G04 PROTEUS GERBER X2 FILE*
%TF.GenerationSoftware,Labcenter,Proteus,8.15-SP1-Build34318*%
%TF.CreationDate,2023-09-22T11:00:43+00:00*%
%TF.FileFunction,Soldermask,Bot*%
%TF.FilePolarity,Negative*%
%TF.Part,Single*%
%TF.SameCoordinates,{daf6ecdc-d2ef-474e-a7a4-287faf42d1bd}*%
%FSLAX45Y45*%
%MOMM*%
G01*
%TA.AperFunction,Material*%
%ADD73C,1.016000*%
%AMPPAD024*
4,1,68,
-0.762000,1.016000,
0.762000,1.016000,
0.788400,1.014720,
0.813930,1.010950,
0.838490,1.004800,
0.861960,0.996400,
0.884220,0.985870,
0.905150,0.973300,
0.924650,0.958840,
0.942580,0.942580,
0.958840,0.924640,
0.973300,0.905150,
0.985860,0.884220,
0.996400,0.861960,
1.004800,0.838490,
1.010950,0.813930,
1.014720,0.788400,
1.016000,0.762000,
1.016000,-0.762000,
1.014720,-0.788400,
1.010950,-0.813930,
1.004800,-0.838490,
0.996400,-0.861960,
0.985860,-0.884220,
0.973300,-0.905150,
0.958840,-0.924640,
0.942580,-0.942580,
0.924650,-0.958840,
0.905150,-0.973300,
0.884220,-0.985870,
0.861960,-0.996400,
0.838490,-1.004800,
0.813930,-1.010950,
0.788400,-1.014720,
0.762000,-1.016000,
-0.762000,-1.016000,
-0.788400,-1.014720,
-0.813930,-1.010950,
-0.838490,-1.004800,
-0.861960,-0.996400,
-0.884220,-0.985870,
-0.905150,-0.973300,
-0.924650,-0.958840,
-0.942580,-0.942580,
-0.958840,-0.924640,
-0.973300,-0.905150,
-0.985860,-0.884220,
-0.996400,-0.861960,
-1.004800,-0.838490,
-1.010950,-0.813930,
-1.014720,-0.788400,
-1.016000,-0.762000,
-1.016000,0.762000,
-1.014720,0.788400,
-1.010950,0.813930,
-1.004800,0.838490,
-0.996400,0.861960,
-0.985860,0.884220,
-0.973300,0.905150,
-0.958840,0.924640,
-0.942580,0.942580,
-0.924650,0.958840,
-0.905150,0.973300,
-0.884220,0.985870,
-0.861960,0.996400,
-0.838490,1.004800,
-0.813930,1.010950,
-0.788400,1.014720,
-0.762000,1.016000,
0*%
%TA.AperFunction,Material*%
%ADD30PPAD024*%
%ADD31C,1.778000*%
%TA.AperFunction,Material*%
%ADD32C,2.032000*%
%AMPPAD027*
4,1,36,
-1.143000,-1.016000,
-1.143000,1.016000,
-1.140470,1.041970,
-1.133200,1.065980,
-1.121650,1.087580,
-1.106290,1.106290,
-1.087570,1.121650,
-1.065980,1.133200,
-1.041970,1.140470,
-1.016000,1.143000,
1.016000,1.143000,
1.041970,1.140470,
1.065980,1.133200,
1.087570,1.121650,
1.106290,1.106290,
1.121650,1.087580,
1.133200,1.065980,
1.140470,1.041970,
1.143000,1.016000,
1.143000,-1.016000,
1.140470,-1.041970,
1.133200,-1.065980,
1.121650,-1.087580,
1.106290,-1.106290,
1.087570,-1.121650,
1.065980,-1.133200,
1.041970,-1.140470,
1.016000,-1.143000,
-1.016000,-1.143000,
-1.041970,-1.140470,
-1.065980,-1.133200,
-1.087570,-1.121650,
-1.106290,-1.106290,
-1.121650,-1.087580,
-1.133200,-1.065980,
-1.140470,-1.041970,
-1.143000,-1.016000,
0*%
%ADD33PPAD027*%
%ADD34C,2.286000*%
%ADD35C,2.540000*%
%AMPPAD030*
4,1,36,
-0.635000,0.762000,
0.635000,0.762000,
0.660970,0.759470,
0.684980,0.752200,
0.706580,0.740650,
0.725290,0.725290,
0.740650,0.706570,
0.752200,0.684980,
0.759470,0.660970,
0.762000,0.635000,
0.762000,-0.635000,
0.759470,-0.660970,
0.752200,-0.684980,
0.740650,-0.706570,
0.725290,-0.725290,
0.706580,-0.740650,
0.684980,-0.752200,
0.660970,-0.759470,
0.635000,-0.762000,
-0.635000,-0.762000,
-0.660970,-0.759470,
-0.684980,-0.752200,
-0.706580,-0.740650,
-0.725290,-0.725290,
-0.740650,-0.706570,
-0.752200,-0.684980,
-0.759470,-0.660970,
-0.762000,-0.635000,
-0.762000,0.635000,
-0.759470,0.660970,
-0.752200,0.684980,
-0.740650,0.706570,
-0.725290,0.725290,
-0.706580,0.740650,
-0.684980,0.752200,
-0.660970,0.759470,
-0.635000,0.762000,
0*%
%TA.AperFunction,Material*%
%ADD36PPAD030*%
%ADD37C,1.524000*%
%TA.AperFunction,Material*%
%ADD38C,2.794000*%
%AMPPAD033*
4,1,36,
0.762000,0.635000,
0.762000,-0.635000,
0.759470,-0.660970,
0.752200,-0.684980,
0.740650,-0.706580,
0.725290,-0.725290,
0.706570,-0.740650,
0.684980,-0.752200,
0.660970,-0.759470,
0.635000,-0.762000,
-0.635000,-0.762000,
-0.660970,-0.759470,
-0.684980,-0.752200,
-0.706570,-0.740650,
-0.725290,-0.725290,
-0.740650,-0.706580,
-0.752200,-0.684980,
-0.759470,-0.660970,
-0.762000,-0.635000,
-0.762000,0.635000,
-0.759470,0.660970,
-0.752200,0.684980,
-0.740650,0.706580,
-0.725290,0.725290,
-0.706570,0.740650,
-0.684980,0.752200,
-0.660970,0.759470,
-0.635000,0.762000,
0.635000,0.762000,
0.660970,0.759470,
0.684980,0.752200,
0.706570,0.740650,
0.725290,0.725290,
0.740650,0.706580,
0.752200,0.684980,
0.759470,0.660970,
0.762000,0.635000,
0*%
%TA.AperFunction,Material*%
%ADD39PPAD033*%
%TA.AperFunction,Material*%
%ADD40C,3.302000*%
%TA.AperFunction,Material*%
%ADD41C,6.604000*%
%TA.AperFunction,Profile*%
%ADD23C,0.203200*%
%TD.AperFunction*%
D73*
X-8695580Y-6034329D03*
X-8706032Y-5365358D03*
X-6044494Y-6482252D03*
X-2667000Y-6477000D03*
X-2119842Y-5529752D03*
X-878920Y-1723217D03*
X-2920328Y-1723217D03*
X+1397000Y-4191000D03*
X+1390504Y-5126123D03*
X-2561634Y-4498841D03*
X+2387387Y-3121995D03*
X-1137633Y-5530761D03*
X-93014Y-3234029D03*
X-818960Y-7051837D03*
X-2159000Y-6731000D03*
X-2159000Y-5842000D03*
X-4663471Y-5694230D03*
X-7493000Y-2540000D03*
X-6967519Y-3581273D03*
D30*
X-2286000Y-4953000D03*
D31*
X-2032000Y-4953000D03*
X-1778000Y-4953000D03*
X-1524000Y-4953000D03*
X-1270000Y-4953000D03*
X-1016000Y-4953000D03*
X-762000Y-4953000D03*
X-508000Y-4953000D03*
X-254000Y-4953000D03*
X+0Y-4953000D03*
X+254000Y-4953000D03*
X+508000Y-4953000D03*
X+762000Y-4953000D03*
X+1016000Y-4953000D03*
X+1016000Y-4191000D03*
X+762000Y-4191000D03*
X+508000Y-4191000D03*
X+254000Y-4191000D03*
X+0Y-4191000D03*
X-254000Y-4191000D03*
X-508000Y-4191000D03*
X-762000Y-4191000D03*
X-1016000Y-4191000D03*
X-1270000Y-4191000D03*
X-1524000Y-4191000D03*
X-1778000Y-4191000D03*
X-2032000Y-4191000D03*
X-2284000Y-4191000D03*
D32*
X+1016000Y-5588000D03*
X+1016000Y-6604000D03*
X+508000Y-5588000D03*
X+508000Y-6604000D03*
X+762000Y-5588000D03*
X+762000Y-6604000D03*
X+1270000Y-5588000D03*
X+1270000Y-6604000D03*
X+254000Y-5588000D03*
X+254000Y-6604000D03*
D33*
X+2070212Y-3975212D03*
X+2070212Y-3721212D03*
D34*
X+1778000Y-4318000D03*
X+1778000Y-4826000D03*
D33*
X+889000Y-7366000D03*
X+889000Y-7620000D03*
X-381000Y-7366000D03*
X-381000Y-7620000D03*
X+2159000Y-7366000D03*
X+2159000Y-7620000D03*
X+1524000Y-7366000D03*
X+1524000Y-7620000D03*
X+254000Y-7366000D03*
X+254000Y-7620000D03*
D32*
X-635000Y-3683000D03*
X-635000Y-2667000D03*
X-254000Y-3594099D03*
X-254000Y-2578099D03*
D35*
X-4191000Y-4953000D03*
X-3175000Y-4953000D03*
D32*
X-3175000Y-6845299D03*
X-3175000Y-5829299D03*
D33*
X-4826000Y-4826000D03*
X-4826000Y-4572000D03*
D32*
X-3810000Y-3302000D03*
X-3556000Y-3302000D03*
X-3556000Y-2794000D03*
X-3810000Y-2794000D03*
D35*
X-4191000Y-4445000D03*
X-3175000Y-4445000D03*
D34*
X-3810000Y-3937000D03*
X-3556000Y-3937000D03*
D32*
X-2667000Y-2667000D03*
X-2667000Y-3683000D03*
X-1778000Y-7239000D03*
X-1778000Y-8255000D03*
D35*
X-1143000Y-7239000D03*
X-1143000Y-8255000D03*
D36*
X-1651000Y-6858000D03*
D37*
X-1397000Y-6858000D03*
X-1143000Y-6858000D03*
X-1143000Y-6096000D03*
X-1397000Y-6096000D03*
X-1651000Y-6096000D03*
D38*
X-10922000Y-7366000D03*
X-10922000Y-5842000D03*
D39*
X-8339314Y-5795303D03*
D37*
X-8339314Y-6049303D03*
X-8339314Y-6303303D03*
X-8339314Y-6557303D03*
X-8339314Y-6811303D03*
X-8339314Y-7065303D03*
X-8339314Y-7319303D03*
X-7577314Y-7319303D03*
X-7577314Y-7065303D03*
X-7577314Y-6811303D03*
X-7577314Y-6557303D03*
X-7577314Y-6303303D03*
X-7577314Y-6049303D03*
X-7577314Y-5795303D03*
D32*
X-11049000Y-4318000D03*
X-10795000Y-4318000D03*
D35*
X-10541000Y-2794000D03*
X-10541000Y-3810000D03*
X-11176000Y-3810000D03*
X-11176000Y-2794000D03*
D32*
X-5334000Y-2286000D03*
X-5334000Y-2540000D03*
D35*
X-4775199Y-3556000D03*
X-4775199Y-2540000D03*
D32*
X-6985000Y-1778000D03*
X-5969000Y-1778000D03*
X-6985000Y-2159000D03*
X-5969000Y-2159000D03*
X-6985000Y-1524000D03*
X-5969000Y-1524000D03*
X-11049000Y-2286000D03*
X-10795000Y-2286000D03*
X-2159000Y-7239000D03*
X-2159000Y-8255000D03*
X-2540000Y-8255000D03*
X-2540000Y-7239000D03*
X+508000Y-3429000D03*
X+508000Y-2413000D03*
X+115951Y-3987801D03*
X+115951Y-2971801D03*
D34*
X-3226000Y-7972000D03*
X-3886000Y-7972000D03*
X-3226000Y-7522000D03*
X-3886000Y-7522000D03*
D32*
X+2159000Y-2921000D03*
X+2159000Y-1905000D03*
X+2540000Y-1905000D03*
X+2540000Y-2921000D03*
D31*
X-7239000Y-4064000D03*
X-7366000Y-4191000D03*
X-7493000Y-4064000D03*
X-4699000Y-508000D03*
X-4826000Y-635000D03*
X-4953000Y-508000D03*
X-9474199Y-50800D03*
X-9270999Y-50800D03*
X-9067799Y-50800D03*
X-6172200Y+0D03*
X-5969000Y+0D03*
X-5765800Y+0D03*
D40*
X-10922000Y+508000D03*
X-10922000Y+0D03*
X-10922000Y-508000D03*
D33*
X-5334000Y-3048000D03*
X-5334000Y-3302000D03*
X-5334000Y-3556000D03*
D32*
X-9525000Y-5969000D03*
X-9525000Y-5461000D03*
X-9779000Y-3302000D03*
X-8763000Y-3302000D03*
D34*
X-9271000Y-1778000D03*
X-9525000Y-1778000D03*
X-9779000Y-1778000D03*
D32*
X-6815314Y-7192303D03*
X-6815314Y-6176303D03*
X-6561314Y-6176303D03*
X-6561314Y-7192303D03*
X-5799314Y-7192303D03*
X-5799314Y-6176303D03*
X-6180314Y-6176303D03*
X-6180314Y-7192303D03*
X-5969000Y-2921000D03*
X-6985000Y-2921000D03*
X-5969000Y-3302000D03*
X-6985000Y-3302000D03*
X-3429000Y-1778000D03*
X-3429000Y-762000D03*
X-5969000Y-2540000D03*
X-6985000Y-2540000D03*
X+2667000Y-4826000D03*
X+2921000Y-4826000D03*
X+2667000Y-4445000D03*
X+2921000Y-4445000D03*
D34*
X-7572963Y+428037D03*
X-7572963Y+682037D03*
D35*
X-9271000Y+1778000D03*
X-9271000Y+762000D03*
D32*
X-7196314Y-6303303D03*
X-7196314Y-7319303D03*
X-5418314Y-7192303D03*
X-5418314Y-6176303D03*
D34*
X-4369000Y-7972000D03*
X-5029000Y-7972000D03*
X-4369000Y-7522000D03*
X-5029000Y-7522000D03*
D32*
X-5969000Y-5334000D03*
X-5969000Y-4064000D03*
X-6350000Y-5334000D03*
X-6350000Y-4064000D03*
D38*
X-8890000Y+4353560D03*
X-8890000Y+3266440D03*
D41*
X-7576820Y+3810000D03*
X-10574020Y+3810000D03*
D38*
X-3937000Y+4353560D03*
X-3937000Y+3266440D03*
D41*
X-2623820Y+3810000D03*
X-5621020Y+3810000D03*
D40*
X-12065000Y-8636000D03*
X+3302000Y-8636000D03*
X+3302000Y+5842000D03*
X-11430000Y+5715000D03*
D33*
X+2921000Y-7366000D03*
X+2921000Y-7620000D03*
D32*
X+1524000Y-5588000D03*
X+1524000Y-6604000D03*
D34*
X+3048000Y-5715000D03*
X+3048000Y-5969000D03*
X+3048000Y-6223000D03*
X+3048000Y-6477000D03*
X+3048000Y-6731000D03*
D35*
X-7239000Y-1016000D03*
X-6223000Y-1016000D03*
D34*
X-7162799Y+1142252D03*
X-7162799Y+888252D03*
X-10922000Y-4826000D03*
X-10922000Y-5080000D03*
D23*
X-12382500Y-8953500D02*
X+3619500Y-8953500D01*
X+3619500Y+6068060D01*
X-12382500Y+6068060D01*
X-12382500Y-8953500D01*
M02*
