G04 PROTEUS GERBER X2 FILE*
%TF.GenerationSoftware,Labcenter,Proteus,8.15-SP1-Build34318*%
%TF.CreationDate,2023-09-22T11:01:59+00:00*%
%TF.FileFunction,AssemblyDrawing,Top*%
%TF.FilePolarity,Positive*%
%TF.Part,Single*%
%TF.SameCoordinates,{152284cb-42d1-4113-bbe4-b0d9b1a291b6}*%
%FSLAX45Y45*%
%MOMM*%
G01*
%TA.AperFunction,Profile*%
%ADD23C,0.203200*%
%TA.AperFunction,Material*%
%ADD27C,0.203200*%
%ADD42C,0.609600*%
%ADD43C,0.507080*%
%ADD44C,0.711200*%
%ADD45C,0.110230*%
%ADD46C,0.812800*%
%ADD47C,0.237060*%
%ADD48C,0.190500*%
%ADD49C,0.914400*%
%ADD50C,0.186690*%
%ADD51C,0.111760*%
%ADD52C,0.169330*%
%ADD53C,0.508000*%
%ADD54C,0.226060*%
%ADD55C,1.016000*%
%ADD56C,0.515610*%
%ADD57C,0.490380*%
%ADD58C,0.132990*%
%ADD59C,0.180800*%
%ADD60C,0.160020*%
%ADD61C,1.219200*%
%ADD62C,0.331890*%
%ADD63C,0.194730*%
%ADD64C,0.177800*%
%ADD65C,0.266700*%
%ADD66C,0.216890*%
%ADD67C,0.889000*%
%ADD68C,0.389460*%
%ADD69C,0.211660*%
%TD.AperFunction*%
D23*
X-12382500Y-8953500D02*
X+3619500Y-8953500D01*
X+3619500Y+6068060D01*
X-12382500Y+6068060D01*
X-12382500Y-8953500D01*
D27*
X-2357660Y-5016500D02*
X+1091660Y-5016500D01*
X+1091660Y-4127500D01*
X-2357660Y-4127500D01*
X-2357660Y-5016500D01*
D42*
X-2286000Y-4953000D02*
X-2286000Y-4953000D01*
D43*
X-1038306Y-4419874D02*
X-1038306Y-4673417D01*
X-981259Y-4724125D01*
X-753071Y-4724125D01*
X-696024Y-4673417D01*
X-696024Y-4419874D01*
X-524883Y-4470583D02*
X-467836Y-4419874D01*
X-296695Y-4419874D01*
X-239648Y-4470583D01*
X-239648Y-4521291D01*
X-296695Y-4572000D01*
X-467836Y-4572000D01*
X-524883Y-4622708D01*
X-524883Y-4724125D01*
X-239648Y-4724125D01*
D27*
X+927100Y-6692900D02*
X+1104900Y-6692900D01*
X+1104900Y-5499100D01*
X+927100Y-5499100D01*
X+927100Y-6692900D01*
D44*
X+1016000Y-5588000D02*
X+1016000Y-5588000D01*
D45*
X+1049071Y-6307048D02*
X+982930Y-6307048D01*
X+982930Y-6245041D01*
X+993953Y-6232639D01*
X+1004977Y-6232639D01*
X+1016000Y-6245041D01*
X+1016000Y-6307048D01*
X+1016000Y-6245041D02*
X+1027024Y-6232639D01*
X+1049071Y-6232639D01*
X+1004977Y-6183033D02*
X+982930Y-6158230D01*
X+1049071Y-6158230D01*
X+993953Y-6096223D02*
X+982930Y-6083821D01*
X+982930Y-6046617D01*
X+993953Y-6034215D01*
X+1004977Y-6034215D01*
X+1016000Y-6046617D01*
X+1016000Y-6083821D01*
X+1027024Y-6096223D01*
X+1049071Y-6096223D01*
X+1049071Y-6034215D01*
D27*
X+419100Y-6692900D02*
X+596900Y-6692900D01*
X+596900Y-5499100D01*
X+419100Y-5499100D01*
X+419100Y-6692900D01*
D44*
X+508000Y-5588000D02*
X+508000Y-5588000D01*
D45*
X+541071Y-6307048D02*
X+474930Y-6307048D01*
X+474930Y-6245041D01*
X+485953Y-6232639D01*
X+496977Y-6232639D01*
X+508000Y-6245041D01*
X+508000Y-6307048D01*
X+508000Y-6245041D02*
X+519024Y-6232639D01*
X+541071Y-6232639D01*
X+496977Y-6183033D02*
X+474930Y-6158230D01*
X+541071Y-6158230D01*
X+485953Y-6096223D02*
X+474930Y-6083821D01*
X+474930Y-6046617D01*
X+485953Y-6034215D01*
X+496977Y-6034215D01*
X+508000Y-6046617D01*
X+519024Y-6034215D01*
X+530048Y-6034215D01*
X+541071Y-6046617D01*
X+541071Y-6083821D01*
X+530048Y-6096223D01*
X+508000Y-6071420D02*
X+508000Y-6046617D01*
D27*
X+673100Y-6692900D02*
X+850900Y-6692900D01*
X+850900Y-5499100D01*
X+673100Y-5499100D01*
X+673100Y-6692900D01*
D44*
X+762000Y-5588000D02*
X+762000Y-5588000D01*
D45*
X+795071Y-6307048D02*
X+728930Y-6307048D01*
X+728930Y-6245041D01*
X+739953Y-6232639D01*
X+750977Y-6232639D01*
X+762000Y-6245041D01*
X+762000Y-6307048D01*
X+762000Y-6245041D02*
X+773024Y-6232639D01*
X+795071Y-6232639D01*
X+750977Y-6183033D02*
X+728930Y-6158230D01*
X+795071Y-6158230D01*
X+773024Y-6034215D02*
X+773024Y-6108624D01*
X+728930Y-6059018D01*
X+795071Y-6059018D01*
D27*
X+1181100Y-6692900D02*
X+1358900Y-6692900D01*
X+1358900Y-5499100D01*
X+1181100Y-5499100D01*
X+1181100Y-6692900D01*
D44*
X+1270000Y-5588000D02*
X+1270000Y-5588000D01*
D45*
X+1303071Y-6307048D02*
X+1236930Y-6307048D01*
X+1236930Y-6245041D01*
X+1247953Y-6232639D01*
X+1258977Y-6232639D01*
X+1270000Y-6245041D01*
X+1270000Y-6307048D01*
X+1270000Y-6245041D02*
X+1281024Y-6232639D01*
X+1303071Y-6232639D01*
X+1258977Y-6183033D02*
X+1236930Y-6158230D01*
X+1303071Y-6158230D01*
X+1236930Y-6034215D02*
X+1236930Y-6096223D01*
X+1258977Y-6096223D01*
X+1258977Y-6046617D01*
X+1270000Y-6034215D01*
X+1292048Y-6034215D01*
X+1303071Y-6046617D01*
X+1303071Y-6083821D01*
X+1292048Y-6096223D01*
D27*
X+165100Y-6692900D02*
X+342900Y-6692900D01*
X+342900Y-5499100D01*
X+165100Y-5499100D01*
X+165100Y-6692900D01*
D44*
X+254000Y-5588000D02*
X+254000Y-5588000D01*
D45*
X+287071Y-6307048D02*
X+220930Y-6307048D01*
X+220930Y-6245041D01*
X+231953Y-6232639D01*
X+242977Y-6232639D01*
X+254000Y-6245041D01*
X+254000Y-6307048D01*
X+254000Y-6245041D02*
X+265024Y-6232639D01*
X+287071Y-6232639D01*
X+242977Y-6183033D02*
X+220930Y-6158230D01*
X+287071Y-6158230D01*
X+231953Y-6034215D02*
X+220930Y-6046617D01*
X+220930Y-6083821D01*
X+231953Y-6096223D01*
X+276048Y-6096223D01*
X+287071Y-6083821D01*
X+287071Y-6046617D01*
X+276048Y-6034215D01*
X+265024Y-6034215D01*
X+254000Y-6046617D01*
X+254000Y-6096223D01*
D27*
X+1933052Y-4112372D02*
X+2207372Y-4112372D01*
X+2207372Y-3584052D01*
X+1933052Y-3584052D01*
X+1933052Y-4112372D01*
D46*
X+2070212Y-3975212D02*
X+2070212Y-3975212D01*
D45*
X+2037193Y-3907900D02*
X+2103232Y-3907900D01*
X+2103232Y-3833606D01*
X+2092226Y-3808841D02*
X+2103232Y-3796459D01*
X+2103232Y-3746930D01*
X+2092226Y-3734547D01*
X+2081219Y-3734547D01*
X+2070212Y-3746930D01*
X+2070212Y-3796459D01*
X+2059206Y-3808841D01*
X+2048199Y-3808841D01*
X+2037193Y-3796459D01*
X+2037193Y-3746930D01*
X+2048199Y-3734547D01*
X+2059206Y-3685018D02*
X+2037193Y-3660253D01*
X+2103232Y-3660253D01*
D27*
X+1513840Y-5090160D02*
X+2042160Y-5090160D01*
X+2042160Y-4053840D01*
X+1513840Y-4053840D01*
X+1513840Y-5090160D01*
D46*
X+1778000Y-4318000D02*
X+1778000Y-4318000D01*
D47*
X+1706881Y-4937759D02*
X+1849120Y-4777740D01*
X+1849120Y-4937759D02*
X+1706881Y-4777740D01*
X+1754294Y-4671061D02*
X+1706881Y-4617721D01*
X+1849120Y-4617721D01*
D27*
X+624840Y-7757160D02*
X+1216660Y-7757160D01*
X+1216660Y-7165340D01*
X+624840Y-7165340D01*
X+624840Y-7757160D01*
D46*
X+889000Y-7620000D02*
X+889000Y-7620000D01*
D48*
X+749300Y-7429500D02*
X+749300Y-7315200D01*
X+835025Y-7315200D01*
X+877887Y-7353300D01*
X+877887Y-7391400D01*
X+835025Y-7429500D01*
X+749300Y-7429500D01*
X+1049337Y-7353300D02*
X+1027906Y-7372350D01*
X+963612Y-7372350D01*
X+942181Y-7353300D01*
X+942181Y-7334250D01*
X+963612Y-7315200D01*
X+1027906Y-7315200D01*
X+1049337Y-7334250D01*
X+1049337Y-7410450D01*
X+1027906Y-7429500D01*
X+963612Y-7429500D01*
D27*
X-645160Y-7757160D02*
X-53340Y-7757160D01*
X-53340Y-7165340D01*
X-645160Y-7165340D01*
X-645160Y-7757160D01*
D46*
X-381000Y-7620000D02*
X-381000Y-7620000D01*
D48*
X-606425Y-7429500D02*
X-606425Y-7315200D01*
X-520700Y-7315200D01*
X-477838Y-7353300D01*
X-477838Y-7391400D01*
X-520700Y-7429500D01*
X-606425Y-7429500D01*
X-392113Y-7353300D02*
X-349250Y-7315200D01*
X-349250Y-7429500D01*
X-263525Y-7410450D02*
X-263525Y-7334250D01*
X-242094Y-7315200D01*
X-156369Y-7315200D01*
X-134938Y-7334250D01*
X-134938Y-7410450D01*
X-156369Y-7429500D01*
X-242094Y-7429500D01*
X-263525Y-7410450D01*
X-263525Y-7429500D02*
X-134938Y-7315200D01*
D27*
X+1894840Y-7757160D02*
X+2486660Y-7757160D01*
X+2486660Y-7165340D01*
X+1894840Y-7165340D01*
X+1894840Y-7757160D01*
D46*
X+2159000Y-7620000D02*
X+2159000Y-7620000D01*
D48*
X+1933575Y-7429500D02*
X+1933575Y-7315200D01*
X+2019300Y-7315200D01*
X+2062162Y-7353300D01*
X+2062162Y-7391400D01*
X+2019300Y-7429500D01*
X+1933575Y-7429500D01*
X+2147887Y-7353300D02*
X+2190750Y-7315200D01*
X+2190750Y-7429500D01*
X+2319337Y-7353300D02*
X+2362200Y-7315200D01*
X+2362200Y-7429500D01*
D27*
X+1259840Y-7757160D02*
X+1851660Y-7757160D01*
X+1851660Y-7165340D01*
X+1259840Y-7165340D01*
X+1259840Y-7757160D01*
D46*
X+1524000Y-7620000D02*
X+1524000Y-7620000D01*
D48*
X+1384300Y-7429500D02*
X+1384300Y-7315200D01*
X+1470025Y-7315200D01*
X+1512887Y-7353300D01*
X+1512887Y-7391400D01*
X+1470025Y-7429500D01*
X+1384300Y-7429500D01*
X+1577181Y-7315200D02*
X+1684337Y-7315200D01*
X+1684337Y-7334250D01*
X+1577181Y-7429500D01*
D27*
X-10160Y-7757160D02*
X+581660Y-7757160D01*
X+581660Y-7165340D01*
X-10160Y-7165340D01*
X-10160Y-7757160D01*
D46*
X+254000Y-7620000D02*
X+254000Y-7620000D01*
D48*
X+114300Y-7429500D02*
X+114300Y-7315200D01*
X+200025Y-7315200D01*
X+242887Y-7353300D01*
X+242887Y-7391400D01*
X+200025Y-7429500D01*
X+114300Y-7429500D01*
X+328612Y-7372350D02*
X+307181Y-7353300D01*
X+307181Y-7334250D01*
X+328612Y-7315200D01*
X+392906Y-7315200D01*
X+414337Y-7334250D01*
X+414337Y-7353300D01*
X+392906Y-7372350D01*
X+328612Y-7372350D01*
X+307181Y-7391400D01*
X+307181Y-7410450D01*
X+328612Y-7429500D01*
X+392906Y-7429500D01*
X+414337Y-7410450D01*
X+414337Y-7391400D01*
X+392906Y-7372350D01*
D27*
X-723900Y-3771900D02*
X-546100Y-3771900D01*
X-546100Y-2578100D01*
X-723900Y-2578100D01*
X-723900Y-3771900D01*
D44*
X-635000Y-3683000D02*
X-635000Y-3683000D01*
D45*
X-601929Y-3261588D02*
X-668070Y-3261588D01*
X-668070Y-3199581D01*
X-657047Y-3187179D01*
X-646023Y-3187179D01*
X-635000Y-3199581D01*
X-635000Y-3261588D01*
X-635000Y-3199581D02*
X-623976Y-3187179D01*
X-601929Y-3187179D01*
X-657047Y-3149975D02*
X-668070Y-3137573D01*
X-668070Y-3100369D01*
X-657047Y-3087967D01*
X-646023Y-3087967D01*
X-635000Y-3100369D01*
X-635000Y-3137573D01*
X-623976Y-3149975D01*
X-601929Y-3149975D01*
X-601929Y-3087967D01*
X-612952Y-3063164D02*
X-657047Y-3063164D01*
X-668070Y-3050763D01*
X-668070Y-3001157D01*
X-657047Y-2988755D01*
X-612952Y-2988755D01*
X-601929Y-3001157D01*
X-601929Y-3050763D01*
X-612952Y-3063164D01*
X-601929Y-3063164D02*
X-668070Y-2988755D01*
D27*
X-342900Y-3682999D02*
X-165100Y-3682999D01*
X-165100Y-2489199D01*
X-342900Y-2489199D01*
X-342900Y-3682999D01*
D44*
X-254000Y-3594099D02*
X-254000Y-3594099D01*
D45*
X-220929Y-3172687D02*
X-287070Y-3172687D01*
X-287070Y-3110680D01*
X-276047Y-3098278D01*
X-265023Y-3098278D01*
X-254000Y-3110680D01*
X-254000Y-3172687D01*
X-254000Y-3110680D02*
X-242976Y-3098278D01*
X-220929Y-3098278D01*
X-276047Y-3061074D02*
X-287070Y-3048672D01*
X-287070Y-3011468D01*
X-276047Y-2999066D01*
X-265023Y-2999066D01*
X-254000Y-3011468D01*
X-254000Y-3048672D01*
X-242976Y-3061074D01*
X-220929Y-3061074D01*
X-220929Y-2999066D01*
X-265023Y-2949460D02*
X-287070Y-2924657D01*
X-220929Y-2924657D01*
D27*
X-4305300Y-5097780D02*
X-3060700Y-5097780D01*
X-3060700Y-4810760D01*
X-4305300Y-4810760D01*
X-4305300Y-5097780D01*
D49*
X-3175000Y-4953000D02*
X-3175000Y-4953000D01*
D50*
X-4015041Y-5010277D02*
X-4015041Y-4898263D01*
X-3931031Y-4898263D01*
X-3889026Y-4935601D01*
X-3889026Y-4972939D01*
X-3931031Y-5010277D01*
X-4015041Y-5010277D01*
X-3805015Y-4935601D02*
X-3763010Y-4898263D01*
X-3763010Y-5010277D01*
X-3657997Y-4916932D02*
X-3636994Y-4898263D01*
X-3573986Y-4898263D01*
X-3552984Y-4916932D01*
X-3552984Y-4935601D01*
X-3573986Y-4954270D01*
X-3636994Y-4954270D01*
X-3657997Y-4972939D01*
X-3657997Y-5010277D01*
X-3552984Y-5010277D01*
D27*
X-3263900Y-6934199D02*
X-3086100Y-6934199D01*
X-3086100Y-5740399D01*
X-3263900Y-5740399D01*
X-3263900Y-6934199D01*
D44*
X-3175000Y-6845299D02*
X-3175000Y-6845299D01*
D45*
X-3141929Y-6423887D02*
X-3208070Y-6423887D01*
X-3208070Y-6361880D01*
X-3197047Y-6349478D01*
X-3186023Y-6349478D01*
X-3175000Y-6361880D01*
X-3175000Y-6423887D01*
X-3175000Y-6361880D02*
X-3163976Y-6349478D01*
X-3141929Y-6349478D01*
X-3186023Y-6299872D02*
X-3208070Y-6275069D01*
X-3141929Y-6275069D01*
X-3186023Y-6151054D02*
X-3175000Y-6163456D01*
X-3175000Y-6200660D01*
X-3186023Y-6213062D01*
X-3197047Y-6213062D01*
X-3208070Y-6200660D01*
X-3208070Y-6163456D01*
X-3197047Y-6151054D01*
X-3152952Y-6151054D01*
X-3141929Y-6163456D01*
X-3141929Y-6200660D01*
D27*
X-5153660Y-5026660D02*
X-4561840Y-5026660D01*
X-4561840Y-4434840D01*
X-5153660Y-4434840D01*
X-5153660Y-5026660D01*
D46*
X-4826000Y-4572000D02*
X-4826000Y-4572000D01*
D48*
X-5114925Y-4876800D02*
X-5114925Y-4762500D01*
X-5029200Y-4762500D01*
X-4986338Y-4800600D01*
X-4986338Y-4838700D01*
X-5029200Y-4876800D01*
X-5114925Y-4876800D01*
X-4900613Y-4800600D02*
X-4857750Y-4762500D01*
X-4857750Y-4876800D01*
X-4750594Y-4781550D02*
X-4729163Y-4762500D01*
X-4664869Y-4762500D01*
X-4643438Y-4781550D01*
X-4643438Y-4800600D01*
X-4664869Y-4819650D01*
X-4643438Y-4838700D01*
X-4643438Y-4857750D01*
X-4664869Y-4876800D01*
X-4729163Y-4876800D01*
X-4750594Y-4857750D01*
X-4707732Y-4819650D02*
X-4664869Y-4819650D01*
D27*
X-3947160Y-3439160D02*
X-3418840Y-3439160D01*
X-3418840Y-3164840D01*
X-3947160Y-3164840D01*
X-3947160Y-3439160D01*
D44*
X-3810000Y-3302000D02*
X-3810000Y-3302000D01*
D51*
X-3621786Y-3324352D02*
X-3634359Y-3335528D01*
X-3672078Y-3335528D01*
X-3697224Y-3313176D01*
X-3697224Y-3290824D01*
X-3672078Y-3268472D01*
X-3634359Y-3268472D01*
X-3621786Y-3279648D01*
X-3521202Y-3313176D02*
X-3596640Y-3313176D01*
X-3546348Y-3268472D01*
X-3546348Y-3335528D01*
D27*
X-3947160Y-2931160D02*
X-3418840Y-2931160D01*
X-3418840Y-2656840D01*
X-3947160Y-2656840D01*
X-3947160Y-2931160D01*
D44*
X-3556000Y-2794000D02*
X-3556000Y-2794000D01*
D51*
X-3844798Y-2816352D02*
X-3857371Y-2827528D01*
X-3895090Y-2827528D01*
X-3920236Y-2805176D01*
X-3920236Y-2782824D01*
X-3895090Y-2760472D01*
X-3857371Y-2760472D01*
X-3844798Y-2771648D01*
X-3794506Y-2782824D02*
X-3769360Y-2760472D01*
X-3769360Y-2827528D01*
X-3719068Y-2816352D02*
X-3719068Y-2771648D01*
X-3706495Y-2760472D01*
X-3656203Y-2760472D01*
X-3643630Y-2771648D01*
X-3643630Y-2816352D01*
X-3656203Y-2827528D01*
X-3706495Y-2827528D01*
X-3719068Y-2816352D01*
X-3719068Y-2827528D02*
X-3643630Y-2760472D01*
D27*
X-4305300Y-4589780D02*
X-3060700Y-4589780D01*
X-3060700Y-4302760D01*
X-4305300Y-4302760D01*
X-4305300Y-4589780D01*
D49*
X-3175000Y-4445000D02*
X-3175000Y-4445000D01*
D50*
X-4015041Y-4502277D02*
X-4015041Y-4390263D01*
X-3931031Y-4390263D01*
X-3889026Y-4427601D01*
X-3889026Y-4464939D01*
X-3931031Y-4502277D01*
X-4015041Y-4502277D01*
X-3805015Y-4427601D02*
X-3763010Y-4390263D01*
X-3763010Y-4502277D01*
X-3552984Y-4464939D02*
X-3678999Y-4464939D01*
X-3594989Y-4390263D01*
X-3594989Y-4502277D01*
D27*
X-3947160Y-4201160D02*
X-3418840Y-4201160D01*
X-3418840Y-3672840D01*
X-3947160Y-3672840D01*
X-3947160Y-4201160D01*
D46*
X-3556000Y-3937000D02*
X-3556000Y-3937000D01*
D52*
X-3738033Y-4051299D02*
X-3721100Y-4070349D01*
X-3721100Y-4127499D01*
X-3754967Y-4165598D01*
X-3788833Y-4165598D01*
X-3822700Y-4127499D01*
X-3822700Y-4070349D01*
X-3805767Y-4051299D01*
X-3788833Y-3975100D02*
X-3822700Y-3937000D01*
X-3721100Y-3937000D01*
X-3805767Y-3841751D02*
X-3822700Y-3822701D01*
X-3822700Y-3765551D01*
X-3805767Y-3746501D01*
X-3788833Y-3746501D01*
X-3771900Y-3765551D01*
X-3771900Y-3822701D01*
X-3754967Y-3841751D01*
X-3721100Y-3841751D01*
X-3721100Y-3746501D01*
D27*
X-2755900Y-3771900D02*
X-2578100Y-3771900D01*
X-2578100Y-2578100D01*
X-2755900Y-2578100D01*
X-2755900Y-3771900D01*
D44*
X-2667000Y-2667000D02*
X-2667000Y-2667000D01*
D45*
X-2633929Y-3386048D02*
X-2700070Y-3386048D01*
X-2700070Y-3324041D01*
X-2689047Y-3311639D01*
X-2678023Y-3311639D01*
X-2667000Y-3324041D01*
X-2667000Y-3386048D01*
X-2667000Y-3324041D02*
X-2655976Y-3311639D01*
X-2633929Y-3311639D01*
X-2689047Y-3274435D02*
X-2700070Y-3262033D01*
X-2700070Y-3224829D01*
X-2689047Y-3212427D01*
X-2678023Y-3212427D01*
X-2667000Y-3224829D01*
X-2667000Y-3262033D01*
X-2655976Y-3274435D01*
X-2633929Y-3274435D01*
X-2633929Y-3212427D01*
X-2689047Y-3175223D02*
X-2700070Y-3162821D01*
X-2700070Y-3125617D01*
X-2689047Y-3113215D01*
X-2678023Y-3113215D01*
X-2667000Y-3125617D01*
X-2655976Y-3113215D01*
X-2644952Y-3113215D01*
X-2633929Y-3125617D01*
X-2633929Y-3162821D01*
X-2644952Y-3175223D01*
X-2667000Y-3150420D02*
X-2667000Y-3125617D01*
D27*
X-1866900Y-8343900D02*
X-1689100Y-8343900D01*
X-1689100Y-7150100D01*
X-1866900Y-7150100D01*
X-1866900Y-8343900D01*
D44*
X-1778000Y-7239000D02*
X-1778000Y-7239000D01*
D45*
X-1744929Y-7958048D02*
X-1811070Y-7958048D01*
X-1811070Y-7896041D01*
X-1800047Y-7883639D01*
X-1789023Y-7883639D01*
X-1778000Y-7896041D01*
X-1778000Y-7958048D01*
X-1778000Y-7896041D02*
X-1766976Y-7883639D01*
X-1744929Y-7883639D01*
X-1800047Y-7846435D02*
X-1811070Y-7834033D01*
X-1811070Y-7796829D01*
X-1800047Y-7784427D01*
X-1789023Y-7784427D01*
X-1778000Y-7796829D01*
X-1778000Y-7834033D01*
X-1766976Y-7846435D01*
X-1744929Y-7846435D01*
X-1744929Y-7784427D01*
X-1800047Y-7747223D02*
X-1811070Y-7734821D01*
X-1811070Y-7697617D01*
X-1800047Y-7685215D01*
X-1789023Y-7685215D01*
X-1778000Y-7697617D01*
X-1778000Y-7734821D01*
X-1766976Y-7747223D01*
X-1744929Y-7747223D01*
X-1744929Y-7685215D01*
D27*
X-1287780Y-8369300D02*
X-1000760Y-8369300D01*
X-1000760Y-7124700D01*
X-1287780Y-7124700D01*
X-1287780Y-8369300D01*
D49*
X-1143000Y-8255000D02*
X-1143000Y-8255000D01*
D50*
X-1088263Y-7919021D02*
X-1200277Y-7919021D01*
X-1200277Y-7835011D01*
X-1162939Y-7793006D01*
X-1125601Y-7793006D01*
X-1088263Y-7835011D01*
X-1088263Y-7919021D01*
X-1162939Y-7708995D02*
X-1200277Y-7666990D01*
X-1088263Y-7666990D01*
X-1181608Y-7456964D02*
X-1200277Y-7477966D01*
X-1200277Y-7540974D01*
X-1181608Y-7561977D01*
X-1106932Y-7561977D01*
X-1088263Y-7540974D01*
X-1088263Y-7477966D01*
X-1106932Y-7456964D01*
X-1125601Y-7456964D01*
X-1144270Y-7477966D01*
X-1144270Y-7561977D01*
D27*
X-1788160Y-6921500D02*
X-1005840Y-6921500D01*
X-1005840Y-6032500D01*
X-1788160Y-6032500D01*
X-1788160Y-6921500D01*
D53*
X-1651000Y-6858000D02*
X-1651000Y-6858000D01*
D54*
X-1464818Y-6636004D02*
X-1351788Y-6636004D01*
X-1329182Y-6610573D01*
X-1329182Y-6508846D01*
X-1351788Y-6483414D01*
X-1464818Y-6483414D01*
X-1442212Y-6279960D02*
X-1464818Y-6305392D01*
X-1464818Y-6381687D01*
X-1442212Y-6407119D01*
X-1351788Y-6407119D01*
X-1329182Y-6381687D01*
X-1329182Y-6305392D01*
X-1351788Y-6279960D01*
X-1374394Y-6279960D01*
X-1397000Y-6305392D01*
X-1397000Y-6407119D01*
D27*
X-11376660Y-7757160D02*
X-10467340Y-7757160D01*
X-10467340Y-5450840D01*
X-11376660Y-5450840D01*
X-11376660Y-7757160D01*
D55*
X-10922000Y-7366000D02*
X-10922000Y-7366000D01*
D56*
X-10767314Y-6847077D02*
X-11076686Y-6847077D01*
X-11076686Y-6499035D01*
X-10922000Y-6847077D02*
X-10922000Y-6615049D01*
X-10973562Y-6267006D02*
X-11076686Y-6150992D01*
X-10767314Y-6150992D01*
D27*
X-8402814Y-7456463D02*
X-7513814Y-7456463D01*
X-7513814Y-5658143D01*
X-8402814Y-5658143D01*
X-8402814Y-7456463D01*
D53*
X-8339314Y-5795303D02*
X-8339314Y-5795303D01*
D57*
X-8105431Y-7079933D02*
X-7860236Y-7079933D01*
X-7811197Y-7024765D01*
X-7811197Y-6804090D01*
X-7860236Y-6748921D01*
X-8105431Y-6748921D01*
X-8007353Y-6528246D02*
X-8105431Y-6417908D01*
X-7811197Y-6417908D01*
D27*
X-11186160Y-4455160D02*
X-10657840Y-4455160D01*
X-10657840Y-4180840D01*
X-11186160Y-4180840D01*
X-11186160Y-4455160D01*
D44*
X-11049000Y-4318000D02*
X-11049000Y-4318000D01*
D51*
X-10860786Y-4340352D02*
X-10873359Y-4351528D01*
X-10911078Y-4351528D01*
X-10936224Y-4329176D01*
X-10936224Y-4306824D01*
X-10911078Y-4284472D01*
X-10873359Y-4284472D01*
X-10860786Y-4295648D01*
X-10760202Y-4306824D02*
X-10772775Y-4318000D01*
X-10810494Y-4318000D01*
X-10823067Y-4306824D01*
X-10823067Y-4295648D01*
X-10810494Y-4284472D01*
X-10772775Y-4284472D01*
X-10760202Y-4295648D01*
X-10760202Y-4340352D01*
X-10772775Y-4351528D01*
X-10810494Y-4351528D01*
D27*
X-10685780Y-3924300D02*
X-10398760Y-3924300D01*
X-10398760Y-2679700D01*
X-10685780Y-2679700D01*
X-10685780Y-3924300D01*
D49*
X-10541000Y-3810000D02*
X-10541000Y-3810000D01*
D50*
X-10486263Y-3390011D02*
X-10598277Y-3390011D01*
X-10598277Y-3306001D01*
X-10560939Y-3263996D01*
X-10523601Y-3263996D01*
X-10486263Y-3306001D01*
X-10486263Y-3390011D01*
X-10579608Y-3200988D02*
X-10598277Y-3179985D01*
X-10598277Y-3116977D01*
X-10579608Y-3095975D01*
X-10560939Y-3095975D01*
X-10542270Y-3116977D01*
X-10523601Y-3095975D01*
X-10504932Y-3095975D01*
X-10486263Y-3116977D01*
X-10486263Y-3179985D01*
X-10504932Y-3200988D01*
X-10542270Y-3158983D02*
X-10542270Y-3116977D01*
D27*
X-11318240Y-3924300D02*
X-11031220Y-3924300D01*
X-11031220Y-2679700D01*
X-11318240Y-2679700D01*
X-11318240Y-3924300D01*
D49*
X-11176000Y-2794000D02*
X-11176000Y-2794000D01*
D50*
X-11118723Y-3550031D02*
X-11230737Y-3550031D01*
X-11230737Y-3466021D01*
X-11193399Y-3424016D01*
X-11156061Y-3424016D01*
X-11118723Y-3466021D01*
X-11118723Y-3550031D01*
X-11212068Y-3361008D02*
X-11230737Y-3340005D01*
X-11230737Y-3276997D01*
X-11212068Y-3255995D01*
X-11193399Y-3255995D01*
X-11174730Y-3276997D01*
X-11174730Y-3340005D01*
X-11156061Y-3361008D01*
X-11118723Y-3361008D01*
X-11118723Y-3255995D01*
D27*
X-5471160Y-2677160D02*
X-5196840Y-2677160D01*
X-5196840Y-2148840D01*
X-5471160Y-2148840D01*
X-5471160Y-2677160D01*
D44*
X-5334000Y-2286000D02*
X-5334000Y-2286000D01*
D51*
X-5311648Y-2524506D02*
X-5300472Y-2537079D01*
X-5300472Y-2574798D01*
X-5322824Y-2599944D01*
X-5345176Y-2599944D01*
X-5367528Y-2574798D01*
X-5367528Y-2537079D01*
X-5356352Y-2524506D01*
X-5367528Y-2423922D02*
X-5367528Y-2486787D01*
X-5345176Y-2486787D01*
X-5345176Y-2436495D01*
X-5334000Y-2423922D01*
X-5311648Y-2423922D01*
X-5300472Y-2436495D01*
X-5300472Y-2474214D01*
X-5311648Y-2486787D01*
D27*
X-4917439Y-3670300D02*
X-4630419Y-3670300D01*
X-4630419Y-2425700D01*
X-4917439Y-2425700D01*
X-4917439Y-3670300D01*
D49*
X-4775199Y-2540000D02*
X-4775199Y-2540000D01*
D50*
X-4717922Y-3296031D02*
X-4829936Y-3296031D01*
X-4829936Y-3212021D01*
X-4792598Y-3170016D01*
X-4755260Y-3170016D01*
X-4717922Y-3212021D01*
X-4717922Y-3296031D01*
X-4792598Y-3086005D02*
X-4829936Y-3044000D01*
X-4717922Y-3044000D01*
D27*
X-7073900Y-1866900D02*
X-5880100Y-1866900D01*
X-5880100Y-1689100D01*
X-7073900Y-1689100D01*
X-7073900Y-1866900D01*
D44*
X-6985000Y-1778000D02*
X-6985000Y-1778000D01*
D45*
X-6513982Y-1811071D02*
X-6513982Y-1744930D01*
X-6451975Y-1744930D01*
X-6439573Y-1755953D01*
X-6439573Y-1766977D01*
X-6451975Y-1778000D01*
X-6513982Y-1778000D01*
X-6451975Y-1778000D02*
X-6439573Y-1789024D01*
X-6439573Y-1811071D01*
X-6340361Y-1789024D02*
X-6414770Y-1789024D01*
X-6365164Y-1744930D01*
X-6365164Y-1811071D01*
D27*
X-7073900Y-2247900D02*
X-5880100Y-2247900D01*
X-5880100Y-2070100D01*
X-7073900Y-2070100D01*
X-7073900Y-2247900D01*
D44*
X-6985000Y-2159000D02*
X-6985000Y-2159000D01*
D45*
X-6513982Y-2192071D02*
X-6513982Y-2125930D01*
X-6451975Y-2125930D01*
X-6439573Y-2136953D01*
X-6439573Y-2147977D01*
X-6451975Y-2159000D01*
X-6513982Y-2159000D01*
X-6451975Y-2159000D02*
X-6439573Y-2170024D01*
X-6439573Y-2192071D01*
X-6340361Y-2125930D02*
X-6402369Y-2125930D01*
X-6402369Y-2147977D01*
X-6352763Y-2147977D01*
X-6340361Y-2159000D01*
X-6340361Y-2181048D01*
X-6352763Y-2192071D01*
X-6389967Y-2192071D01*
X-6402369Y-2181048D01*
D27*
X-7073900Y-1612900D02*
X-5880100Y-1612900D01*
X-5880100Y-1435100D01*
X-7073900Y-1435100D01*
X-7073900Y-1612900D01*
D44*
X-6985000Y-1524000D02*
X-6985000Y-1524000D01*
D45*
X-6513982Y-1557071D02*
X-6513982Y-1490930D01*
X-6451975Y-1490930D01*
X-6439573Y-1501953D01*
X-6439573Y-1512977D01*
X-6451975Y-1524000D01*
X-6513982Y-1524000D01*
X-6451975Y-1524000D02*
X-6439573Y-1535024D01*
X-6439573Y-1557071D01*
X-6340361Y-1501953D02*
X-6352763Y-1490930D01*
X-6389967Y-1490930D01*
X-6402369Y-1501953D01*
X-6402369Y-1546048D01*
X-6389967Y-1557071D01*
X-6352763Y-1557071D01*
X-6340361Y-1546048D01*
X-6340361Y-1535024D01*
X-6352763Y-1524000D01*
X-6402369Y-1524000D01*
D27*
X-11186160Y-2423160D02*
X-10657840Y-2423160D01*
X-10657840Y-2148840D01*
X-11186160Y-2148840D01*
X-11186160Y-2423160D01*
D44*
X-11049000Y-2286000D02*
X-11049000Y-2286000D01*
D51*
X-10860786Y-2308352D02*
X-10873359Y-2319528D01*
X-10911078Y-2319528D01*
X-10936224Y-2297176D01*
X-10936224Y-2274824D01*
X-10911078Y-2252472D01*
X-10873359Y-2252472D01*
X-10860786Y-2263648D01*
X-10810494Y-2286000D02*
X-10823067Y-2274824D01*
X-10823067Y-2263648D01*
X-10810494Y-2252472D01*
X-10772775Y-2252472D01*
X-10760202Y-2263648D01*
X-10760202Y-2274824D01*
X-10772775Y-2286000D01*
X-10810494Y-2286000D01*
X-10823067Y-2297176D01*
X-10823067Y-2308352D01*
X-10810494Y-2319528D01*
X-10772775Y-2319528D01*
X-10760202Y-2308352D01*
X-10760202Y-2297176D01*
X-10772775Y-2286000D01*
D27*
X-2247900Y-8343900D02*
X-2070100Y-8343900D01*
X-2070100Y-7150100D01*
X-2247900Y-7150100D01*
X-2247900Y-8343900D01*
D44*
X-2159000Y-7239000D02*
X-2159000Y-7239000D01*
D45*
X-2125929Y-7958048D02*
X-2192070Y-7958048D01*
X-2192070Y-7896041D01*
X-2181047Y-7883639D01*
X-2170023Y-7883639D01*
X-2159000Y-7896041D01*
X-2159000Y-7958048D01*
X-2159000Y-7896041D02*
X-2147976Y-7883639D01*
X-2125929Y-7883639D01*
X-2170023Y-7834033D02*
X-2192070Y-7809230D01*
X-2125929Y-7809230D01*
X-2192070Y-7747223D02*
X-2192070Y-7685215D01*
X-2181047Y-7685215D01*
X-2125929Y-7747223D01*
D27*
X-2628900Y-8343900D02*
X-2451100Y-8343900D01*
X-2451100Y-7150100D01*
X-2628900Y-7150100D01*
X-2628900Y-8343900D01*
D44*
X-2540000Y-8255000D02*
X-2540000Y-8255000D01*
D45*
X-2506929Y-7833588D02*
X-2573070Y-7833588D01*
X-2573070Y-7771581D01*
X-2562047Y-7759179D01*
X-2551023Y-7759179D01*
X-2540000Y-7771581D01*
X-2540000Y-7833588D01*
X-2540000Y-7771581D02*
X-2528976Y-7759179D01*
X-2506929Y-7759179D01*
X-2551023Y-7709573D02*
X-2573070Y-7684770D01*
X-2506929Y-7684770D01*
X-2540000Y-7610361D02*
X-2551023Y-7622763D01*
X-2562047Y-7622763D01*
X-2573070Y-7610361D01*
X-2573070Y-7573157D01*
X-2562047Y-7560755D01*
X-2551023Y-7560755D01*
X-2540000Y-7573157D01*
X-2540000Y-7610361D01*
X-2528976Y-7622763D01*
X-2517952Y-7622763D01*
X-2506929Y-7610361D01*
X-2506929Y-7573157D01*
X-2517952Y-7560755D01*
X-2528976Y-7560755D01*
X-2540000Y-7573157D01*
D27*
X+419100Y-3517900D02*
X+596900Y-3517900D01*
X+596900Y-2324100D01*
X+419100Y-2324100D01*
X+419100Y-3517900D01*
D44*
X+508000Y-3429000D02*
X+508000Y-3429000D01*
D45*
X+541071Y-3007588D02*
X+474930Y-3007588D01*
X+474930Y-2945581D01*
X+485953Y-2933179D01*
X+496977Y-2933179D01*
X+508000Y-2945581D01*
X+508000Y-3007588D01*
X+508000Y-2945581D02*
X+519024Y-2933179D01*
X+541071Y-2933179D01*
X+485953Y-2895975D02*
X+474930Y-2883573D01*
X+474930Y-2846369D01*
X+485953Y-2833967D01*
X+496977Y-2833967D01*
X+508000Y-2846369D01*
X+508000Y-2883573D01*
X+519024Y-2895975D01*
X+541071Y-2895975D01*
X+541071Y-2833967D01*
X+508000Y-2784361D02*
X+496977Y-2796763D01*
X+485953Y-2796763D01*
X+474930Y-2784361D01*
X+474930Y-2747157D01*
X+485953Y-2734755D01*
X+496977Y-2734755D01*
X+508000Y-2747157D01*
X+508000Y-2784361D01*
X+519024Y-2796763D01*
X+530048Y-2796763D01*
X+541071Y-2784361D01*
X+541071Y-2747157D01*
X+530048Y-2734755D01*
X+519024Y-2734755D01*
X+508000Y-2747157D01*
D27*
X+27051Y-4076701D02*
X+204851Y-4076701D01*
X+204851Y-2882901D01*
X+27051Y-2882901D01*
X+27051Y-4076701D01*
D44*
X+115951Y-3987801D02*
X+115951Y-3987801D01*
D45*
X+149022Y-3566389D02*
X+82881Y-3566389D01*
X+82881Y-3504382D01*
X+93904Y-3491980D01*
X+104928Y-3491980D01*
X+115951Y-3504382D01*
X+115951Y-3566389D01*
X+115951Y-3504382D02*
X+126975Y-3491980D01*
X+149022Y-3491980D01*
X+93904Y-3454776D02*
X+82881Y-3442374D01*
X+82881Y-3405170D01*
X+93904Y-3392768D01*
X+104928Y-3392768D01*
X+115951Y-3405170D01*
X+115951Y-3442374D01*
X+126975Y-3454776D01*
X+149022Y-3454776D01*
X+149022Y-3392768D01*
X+104928Y-3293556D02*
X+115951Y-3305958D01*
X+115951Y-3343162D01*
X+104928Y-3355564D01*
X+93904Y-3355564D01*
X+82881Y-3343162D01*
X+82881Y-3305958D01*
X+93904Y-3293556D01*
X+137999Y-3293556D01*
X+149022Y-3305958D01*
X+149022Y-3343162D01*
D27*
X-3987600Y-8073600D02*
X-3124400Y-8073600D01*
X-3124400Y-7420400D01*
X-3987600Y-7420400D01*
X-3987600Y-8073600D01*
D46*
X-3226000Y-7972000D02*
X-3226000Y-7972000D01*
D58*
X-3926350Y-7786898D02*
X-3926350Y-7707103D01*
X-3851543Y-7707103D01*
X-3836581Y-7720402D01*
X-3836581Y-7733701D01*
X-3851543Y-7747000D01*
X-3836581Y-7760300D01*
X-3836581Y-7773599D01*
X-3851543Y-7786898D01*
X-3926350Y-7786898D01*
X-3926350Y-7747000D02*
X-3851543Y-7747000D01*
X-3806658Y-7733701D02*
X-3776735Y-7707103D01*
X-3746812Y-7707103D01*
X-3716889Y-7733701D01*
X-3716889Y-7760300D01*
X-3746812Y-7786898D01*
X-3776735Y-7786898D01*
X-3806658Y-7760300D01*
X-3806658Y-7733701D01*
X-3686966Y-7707103D02*
X-3597197Y-7707103D01*
X-3642082Y-7707103D02*
X-3642082Y-7786898D01*
X-3567274Y-7733701D02*
X-3537351Y-7707103D01*
X-3507428Y-7707103D01*
X-3477505Y-7733701D01*
X-3477505Y-7760300D01*
X-3507428Y-7786898D01*
X-3537351Y-7786898D01*
X-3567274Y-7760300D01*
X-3567274Y-7733701D01*
X-3447582Y-7786898D02*
X-3447582Y-7707103D01*
X-3357813Y-7786898D01*
X-3357813Y-7707103D01*
D27*
X+2070100Y-3009900D02*
X+2247900Y-3009900D01*
X+2247900Y-1816100D01*
X+2070100Y-1816100D01*
X+2070100Y-3009900D01*
D44*
X+2159000Y-2921000D02*
X+2159000Y-2921000D01*
D45*
X+2192071Y-2499588D02*
X+2125930Y-2499588D01*
X+2125930Y-2437581D01*
X+2136953Y-2425179D01*
X+2147977Y-2425179D01*
X+2159000Y-2437581D01*
X+2159000Y-2499588D01*
X+2159000Y-2437581D02*
X+2170024Y-2425179D01*
X+2192071Y-2425179D01*
X+2136953Y-2387975D02*
X+2125930Y-2375573D01*
X+2125930Y-2338369D01*
X+2136953Y-2325967D01*
X+2147977Y-2325967D01*
X+2159000Y-2338369D01*
X+2170024Y-2325967D01*
X+2181048Y-2325967D01*
X+2192071Y-2338369D01*
X+2192071Y-2375573D01*
X+2181048Y-2387975D01*
X+2159000Y-2363172D02*
X+2159000Y-2338369D01*
X+2181048Y-2301164D02*
X+2136953Y-2301164D01*
X+2125930Y-2288763D01*
X+2125930Y-2239157D01*
X+2136953Y-2226755D01*
X+2181048Y-2226755D01*
X+2192071Y-2239157D01*
X+2192071Y-2288763D01*
X+2181048Y-2301164D01*
X+2192071Y-2301164D02*
X+2125930Y-2226755D01*
D27*
X+2451100Y-3009900D02*
X+2628900Y-3009900D01*
X+2628900Y-1816100D01*
X+2451100Y-1816100D01*
X+2451100Y-3009900D01*
D44*
X+2540000Y-1905000D02*
X+2540000Y-1905000D01*
D45*
X+2573071Y-2624048D02*
X+2506930Y-2624048D01*
X+2506930Y-2562041D01*
X+2517953Y-2549639D01*
X+2528977Y-2549639D01*
X+2540000Y-2562041D01*
X+2540000Y-2624048D01*
X+2540000Y-2562041D02*
X+2551024Y-2549639D01*
X+2573071Y-2549639D01*
X+2517953Y-2512435D02*
X+2506930Y-2500033D01*
X+2506930Y-2462829D01*
X+2517953Y-2450427D01*
X+2528977Y-2450427D01*
X+2540000Y-2462829D01*
X+2551024Y-2450427D01*
X+2562048Y-2450427D01*
X+2573071Y-2462829D01*
X+2573071Y-2500033D01*
X+2562048Y-2512435D01*
X+2540000Y-2487632D02*
X+2540000Y-2462829D01*
X+2528977Y-2400821D02*
X+2506930Y-2376018D01*
X+2573071Y-2376018D01*
D27*
X-7630160Y-4362560D02*
X-7101840Y-4362560D01*
X-7101840Y-3799840D01*
X-7630160Y-3799840D01*
X-7630160Y-4362560D01*
D53*
X-7493000Y-4064000D02*
X-7493000Y-4064000D01*
D59*
X-7302800Y-4243920D02*
X-7338960Y-4203240D01*
X-7338960Y-4162560D01*
X-7302800Y-4121880D01*
X-7266640Y-4121880D01*
X-7230480Y-4162560D01*
X-7230480Y-4203240D01*
X-7266640Y-4243920D01*
X-7302800Y-4243920D01*
X-7266640Y-4162560D02*
X-7230480Y-4121880D01*
X-7302800Y-4040520D02*
X-7338960Y-3999840D01*
X-7230480Y-3999840D01*
D27*
X-5090160Y-806560D02*
X-4561840Y-806560D01*
X-4561840Y-243840D01*
X-5090160Y-243840D01*
X-5090160Y-806560D01*
D53*
X-4953000Y-508000D02*
X-4953000Y-508000D01*
D59*
X-4762800Y-687920D02*
X-4798960Y-647240D01*
X-4798960Y-606560D01*
X-4762800Y-565880D01*
X-4726640Y-565880D01*
X-4690480Y-606560D01*
X-4690480Y-647240D01*
X-4726640Y-687920D01*
X-4762800Y-687920D01*
X-4726640Y-606560D02*
X-4690480Y-565880D01*
X-4780880Y-504860D02*
X-4798960Y-484520D01*
X-4798960Y-423500D01*
X-4780880Y-403160D01*
X-4762800Y-403160D01*
X-4744720Y-423500D01*
X-4744720Y-484520D01*
X-4726640Y-504860D01*
X-4690480Y-504860D01*
X-4690480Y-403160D01*
D27*
X-9598659Y-187960D02*
X-8943339Y-187960D01*
X-8943339Y+86360D01*
X-9598659Y+86360D01*
X-9598659Y-187960D01*
D42*
X-9474199Y-50800D02*
X-9474199Y-50800D01*
D60*
X-9337547Y-34798D02*
X-9301543Y-2794D01*
X-9265538Y-2794D01*
X-9229534Y-34798D01*
X-9229534Y-66802D01*
X-9265538Y-98806D01*
X-9301543Y-98806D01*
X-9337547Y-66802D01*
X-9337547Y-34798D01*
X-9265538Y-66802D02*
X-9229534Y-98806D01*
X-9175527Y-18796D02*
X-9157525Y-2794D01*
X-9103518Y-2794D01*
X-9085516Y-18796D01*
X-9085516Y-34798D01*
X-9103518Y-50800D01*
X-9085516Y-66802D01*
X-9085516Y-82804D01*
X-9103518Y-98806D01*
X-9157525Y-98806D01*
X-9175527Y-82804D01*
X-9139523Y-50800D02*
X-9103518Y-50800D01*
D27*
X-6296660Y-137160D02*
X-5641340Y-137160D01*
X-5641340Y+137160D01*
X-6296660Y+137160D01*
X-6296660Y-137160D01*
D42*
X-6172200Y+0D02*
X-6172200Y+0D01*
D60*
X-6035548Y+16002D02*
X-5999544Y+48006D01*
X-5963539Y+48006D01*
X-5927535Y+16002D01*
X-5927535Y-16002D01*
X-5963539Y-48006D01*
X-5999544Y-48006D01*
X-6035548Y-16002D01*
X-6035548Y+16002D01*
X-5963539Y-16002D02*
X-5927535Y-48006D01*
X-5783517Y-16002D02*
X-5891530Y-16002D01*
X-5819521Y+48006D01*
X-5819521Y-48006D01*
D27*
X-11440160Y-772160D02*
X-10403840Y-772160D01*
X-10403840Y+772160D01*
X-11440160Y+772160D01*
X-11440160Y-772160D01*
D61*
X-10922000Y+508000D02*
X-10922000Y+508000D01*
D62*
X-10888811Y-461263D02*
X-10855621Y-461263D01*
X-10822432Y-423926D01*
X-10822432Y-274574D01*
X-10855621Y-237236D01*
X-11021568Y-237236D01*
X-10988379Y-125223D02*
X-11021568Y-87885D01*
X-11021568Y+24129D01*
X-10988379Y+61467D01*
X-10955189Y+61467D01*
X-10922000Y+24129D01*
X-10922000Y-87885D01*
X-10888811Y-125223D01*
X-10822432Y-125223D01*
X-10822432Y+61467D01*
D27*
X-5471160Y-3693160D02*
X-5069840Y-3693160D01*
X-5069840Y-2910840D01*
X-5471160Y-2910840D01*
X-5471160Y-3693160D01*
D46*
X-5334000Y-3048000D02*
X-5334000Y-3048000D01*
D63*
X-5328920Y-3566159D02*
X-5231553Y-3566159D01*
X-5212080Y-3544252D01*
X-5212080Y-3456623D01*
X-5231553Y-3434715D01*
X-5328920Y-3434715D01*
X-5309447Y-3368993D02*
X-5328920Y-3347086D01*
X-5328920Y-3281364D01*
X-5309447Y-3259456D01*
X-5289973Y-3259456D01*
X-5270500Y-3281364D01*
X-5251027Y-3259456D01*
X-5231553Y-3259456D01*
X-5212080Y-3281364D01*
X-5212080Y-3347086D01*
X-5231553Y-3368993D01*
X-5270500Y-3325178D02*
X-5270500Y-3281364D01*
D27*
X-9662160Y-6106160D02*
X-9387840Y-6106160D01*
X-9387840Y-5323840D01*
X-9662160Y-5323840D01*
X-9662160Y-6106160D01*
D44*
X-9525000Y-5969000D02*
X-9525000Y-5969000D01*
D64*
X-9489440Y-5668645D02*
X-9471660Y-5688648D01*
X-9471660Y-5748655D01*
X-9507220Y-5788660D01*
X-9542780Y-5788660D01*
X-9578340Y-5748655D01*
X-9578340Y-5688648D01*
X-9560560Y-5668645D01*
X-9542780Y-5588635D02*
X-9578340Y-5548630D01*
X-9471660Y-5548630D01*
D27*
X-9867900Y-3390900D02*
X-8674100Y-3390900D01*
X-8674100Y-3213100D01*
X-9867900Y-3213100D01*
X-9867900Y-3390900D01*
D44*
X-9779000Y-3302000D02*
X-9779000Y-3302000D01*
D45*
X-9307982Y-3335071D02*
X-9307982Y-3268930D01*
X-9245975Y-3268930D01*
X-9233573Y-3279953D01*
X-9233573Y-3290977D01*
X-9245975Y-3302000D01*
X-9307982Y-3302000D01*
X-9245975Y-3302000D02*
X-9233573Y-3313024D01*
X-9233573Y-3335071D01*
X-9183967Y-3290977D02*
X-9159164Y-3268930D01*
X-9159164Y-3335071D01*
D27*
X-9662160Y-2740660D02*
X-8879840Y-2740660D01*
X-8879840Y-1577340D01*
X-9662160Y-1577340D01*
X-9662160Y-2740660D01*
D46*
X-9017000Y-1778000D02*
X-9017000Y-1778000D01*
D65*
X-9190990Y-2639695D02*
X-9351010Y-2639695D01*
X-9351010Y-2489677D01*
X-9324340Y-2459673D01*
X-9297670Y-2459673D01*
X-9271000Y-2489677D01*
X-9271000Y-2639695D01*
X-9271000Y-2489677D02*
X-9244330Y-2459673D01*
X-9190990Y-2459673D01*
X-9351010Y-2399665D02*
X-9271000Y-2399665D01*
X-9190990Y-2309654D01*
X-9271000Y-2219643D01*
X-9351010Y-2219643D01*
X-9297670Y-2099628D02*
X-9351010Y-2039620D01*
X-9190990Y-2039620D01*
D27*
X-6904214Y-7281203D02*
X-6726414Y-7281203D01*
X-6726414Y-6087403D01*
X-6904214Y-6087403D01*
X-6904214Y-7281203D01*
D44*
X-6815314Y-7192303D02*
X-6815314Y-7192303D01*
D45*
X-6782243Y-6770891D02*
X-6848384Y-6770891D01*
X-6848384Y-6708884D01*
X-6837361Y-6696482D01*
X-6826337Y-6696482D01*
X-6815314Y-6708884D01*
X-6815314Y-6770891D01*
X-6815314Y-6708884D02*
X-6804290Y-6696482D01*
X-6782243Y-6696482D01*
X-6837361Y-6659278D02*
X-6848384Y-6646876D01*
X-6848384Y-6609672D01*
X-6837361Y-6597270D01*
X-6826337Y-6597270D01*
X-6815314Y-6609672D01*
X-6815314Y-6646876D01*
X-6804290Y-6659278D01*
X-6782243Y-6659278D01*
X-6782243Y-6597270D01*
X-6848384Y-6498058D02*
X-6848384Y-6560066D01*
X-6826337Y-6560066D01*
X-6826337Y-6510460D01*
X-6815314Y-6498058D01*
X-6793266Y-6498058D01*
X-6782243Y-6510460D01*
X-6782243Y-6547664D01*
X-6793266Y-6560066D01*
D27*
X-6650214Y-7281203D02*
X-6472414Y-7281203D01*
X-6472414Y-6087403D01*
X-6650214Y-6087403D01*
X-6650214Y-7281203D01*
D44*
X-6561314Y-6176303D02*
X-6561314Y-6176303D01*
D45*
X-6528243Y-6895351D02*
X-6594384Y-6895351D01*
X-6594384Y-6833344D01*
X-6583361Y-6820942D01*
X-6572337Y-6820942D01*
X-6561314Y-6833344D01*
X-6561314Y-6895351D01*
X-6561314Y-6833344D02*
X-6550290Y-6820942D01*
X-6528243Y-6820942D01*
X-6583361Y-6783738D02*
X-6594384Y-6771336D01*
X-6594384Y-6734132D01*
X-6583361Y-6721730D01*
X-6572337Y-6721730D01*
X-6561314Y-6734132D01*
X-6561314Y-6771336D01*
X-6550290Y-6783738D01*
X-6528243Y-6783738D01*
X-6528243Y-6721730D01*
X-6583361Y-6622518D02*
X-6594384Y-6634920D01*
X-6594384Y-6672124D01*
X-6583361Y-6684526D01*
X-6539266Y-6684526D01*
X-6528243Y-6672124D01*
X-6528243Y-6634920D01*
X-6539266Y-6622518D01*
X-6550290Y-6622518D01*
X-6561314Y-6634920D01*
X-6561314Y-6684526D01*
D27*
X-5888214Y-7281203D02*
X-5710414Y-7281203D01*
X-5710414Y-6087403D01*
X-5888214Y-6087403D01*
X-5888214Y-7281203D01*
D44*
X-5799314Y-7192303D02*
X-5799314Y-7192303D01*
D45*
X-5766243Y-6770891D02*
X-5832384Y-6770891D01*
X-5832384Y-6708884D01*
X-5821361Y-6696482D01*
X-5810337Y-6696482D01*
X-5799314Y-6708884D01*
X-5799314Y-6770891D01*
X-5799314Y-6708884D02*
X-5788290Y-6696482D01*
X-5766243Y-6696482D01*
X-5821361Y-6659278D02*
X-5832384Y-6646876D01*
X-5832384Y-6609672D01*
X-5821361Y-6597270D01*
X-5810337Y-6597270D01*
X-5799314Y-6609672D01*
X-5799314Y-6646876D01*
X-5788290Y-6659278D01*
X-5766243Y-6659278D01*
X-5766243Y-6597270D01*
X-5832384Y-6560066D02*
X-5832384Y-6498058D01*
X-5821361Y-6498058D01*
X-5766243Y-6560066D01*
D27*
X-6269214Y-7281203D02*
X-6091414Y-7281203D01*
X-6091414Y-6087403D01*
X-6269214Y-6087403D01*
X-6269214Y-7281203D01*
D44*
X-6180314Y-6176303D02*
X-6180314Y-6176303D01*
D45*
X-6147243Y-6895351D02*
X-6213384Y-6895351D01*
X-6213384Y-6833344D01*
X-6202361Y-6820942D01*
X-6191337Y-6820942D01*
X-6180314Y-6833344D01*
X-6180314Y-6895351D01*
X-6180314Y-6833344D02*
X-6169290Y-6820942D01*
X-6147243Y-6820942D01*
X-6191337Y-6771336D02*
X-6213384Y-6746533D01*
X-6147243Y-6746533D01*
X-6191337Y-6672124D02*
X-6213384Y-6647321D01*
X-6147243Y-6647321D01*
D27*
X-7073900Y-3009900D02*
X-5880100Y-3009900D01*
X-5880100Y-2832100D01*
X-7073900Y-2832100D01*
X-7073900Y-3009900D01*
D44*
X-5969000Y-2921000D02*
X-5969000Y-2921000D01*
D45*
X-6688048Y-2954071D02*
X-6688048Y-2887930D01*
X-6626041Y-2887930D01*
X-6613639Y-2898953D01*
X-6613639Y-2909977D01*
X-6626041Y-2921000D01*
X-6688048Y-2921000D01*
X-6626041Y-2921000D02*
X-6613639Y-2932024D01*
X-6613639Y-2954071D01*
X-6564033Y-2909977D02*
X-6539230Y-2887930D01*
X-6539230Y-2954071D01*
X-6489624Y-2943048D02*
X-6489624Y-2898953D01*
X-6477223Y-2887930D01*
X-6427617Y-2887930D01*
X-6415215Y-2898953D01*
X-6415215Y-2943048D01*
X-6427617Y-2954071D01*
X-6477223Y-2954071D01*
X-6489624Y-2943048D01*
X-6489624Y-2954071D02*
X-6415215Y-2887930D01*
D27*
X-7073900Y-3390900D02*
X-5880100Y-3390900D01*
X-5880100Y-3213100D01*
X-7073900Y-3213100D01*
X-7073900Y-3390900D01*
D44*
X-5969000Y-3302000D02*
X-5969000Y-3302000D01*
D45*
X-6638442Y-3335071D02*
X-6638442Y-3268930D01*
X-6576435Y-3268930D01*
X-6564033Y-3279953D01*
X-6564033Y-3290977D01*
X-6576435Y-3302000D01*
X-6638442Y-3302000D01*
X-6576435Y-3302000D02*
X-6564033Y-3313024D01*
X-6564033Y-3335071D01*
X-6526829Y-3268930D02*
X-6464821Y-3268930D01*
X-6464821Y-3279953D01*
X-6526829Y-3335071D01*
D27*
X-3517900Y-1866900D02*
X-3340100Y-1866900D01*
X-3340100Y-673100D01*
X-3517900Y-673100D01*
X-3517900Y-1866900D01*
D44*
X-3429000Y-1778000D02*
X-3429000Y-1778000D01*
D45*
X-3395929Y-1306982D02*
X-3462070Y-1306982D01*
X-3462070Y-1244975D01*
X-3451047Y-1232573D01*
X-3440023Y-1232573D01*
X-3429000Y-1244975D01*
X-3429000Y-1306982D01*
X-3429000Y-1244975D02*
X-3417976Y-1232573D01*
X-3395929Y-1232573D01*
X-3429000Y-1182967D02*
X-3440023Y-1195369D01*
X-3451047Y-1195369D01*
X-3462070Y-1182967D01*
X-3462070Y-1145763D01*
X-3451047Y-1133361D01*
X-3440023Y-1133361D01*
X-3429000Y-1145763D01*
X-3429000Y-1182967D01*
X-3417976Y-1195369D01*
X-3406952Y-1195369D01*
X-3395929Y-1182967D01*
X-3395929Y-1145763D01*
X-3406952Y-1133361D01*
X-3417976Y-1133361D01*
X-3429000Y-1145763D01*
D27*
X-7073900Y-2628900D02*
X-5880100Y-2628900D01*
X-5880100Y-2451100D01*
X-7073900Y-2451100D01*
X-7073900Y-2628900D01*
D44*
X-5969000Y-2540000D02*
X-5969000Y-2540000D01*
D45*
X-6638442Y-2573071D02*
X-6638442Y-2506930D01*
X-6576435Y-2506930D01*
X-6564033Y-2517953D01*
X-6564033Y-2528977D01*
X-6576435Y-2540000D01*
X-6638442Y-2540000D01*
X-6576435Y-2540000D02*
X-6564033Y-2551024D01*
X-6564033Y-2573071D01*
X-6464821Y-2528977D02*
X-6477223Y-2540000D01*
X-6514427Y-2540000D01*
X-6526829Y-2528977D01*
X-6526829Y-2517953D01*
X-6514427Y-2506930D01*
X-6477223Y-2506930D01*
X-6464821Y-2517953D01*
X-6464821Y-2562048D01*
X-6477223Y-2573071D01*
X-6514427Y-2573071D01*
D27*
X+2529840Y-4963160D02*
X+3058160Y-4963160D01*
X+3058160Y-4688840D01*
X+2529840Y-4688840D01*
X+2529840Y-4963160D01*
D44*
X+2667000Y-4826000D02*
X+2667000Y-4826000D01*
D51*
X+2855214Y-4848352D02*
X+2842641Y-4859528D01*
X+2804922Y-4859528D01*
X+2779776Y-4837176D01*
X+2779776Y-4814824D01*
X+2804922Y-4792472D01*
X+2842641Y-4792472D01*
X+2855214Y-4803648D01*
X+2892933Y-4803648D02*
X+2905506Y-4792472D01*
X+2943225Y-4792472D01*
X+2955798Y-4803648D01*
X+2955798Y-4814824D01*
X+2943225Y-4826000D01*
X+2905506Y-4826000D01*
X+2892933Y-4837176D01*
X+2892933Y-4859528D01*
X+2955798Y-4859528D01*
D27*
X+2529840Y-4582160D02*
X+3058160Y-4582160D01*
X+3058160Y-4307840D01*
X+2529840Y-4307840D01*
X+2529840Y-4582160D01*
D44*
X+2667000Y-4445000D02*
X+2667000Y-4445000D01*
D51*
X+2855214Y-4467352D02*
X+2842641Y-4478528D01*
X+2804922Y-4478528D01*
X+2779776Y-4456176D01*
X+2779776Y-4433824D01*
X+2804922Y-4411472D01*
X+2842641Y-4411472D01*
X+2855214Y-4422648D01*
X+2892933Y-4422648D02*
X+2905506Y-4411472D01*
X+2943225Y-4411472D01*
X+2955798Y-4422648D01*
X+2955798Y-4433824D01*
X+2943225Y-4445000D01*
X+2955798Y-4456176D01*
X+2955798Y-4467352D01*
X+2943225Y-4478528D01*
X+2905506Y-4478528D01*
X+2892933Y-4467352D01*
X+2918079Y-4445000D02*
X+2943225Y-4445000D01*
D27*
X-7837123Y+290877D02*
X-7308803Y+290877D01*
X-7308803Y+819197D01*
X-7837123Y+819197D01*
X-7837123Y+290877D01*
D46*
X-7572963Y+682037D02*
X-7572963Y+682037D01*
D52*
X-7611063Y+432270D02*
X-7630113Y+415337D01*
X-7687263Y+415337D01*
X-7725362Y+449204D01*
X-7725362Y+483070D01*
X-7687263Y+516937D01*
X-7630113Y+516937D01*
X-7611063Y+500004D01*
X-7553914Y+516937D02*
X-7458664Y+516937D01*
X-7458664Y+500004D01*
X-7553914Y+415337D01*
D27*
X-9415780Y+647700D02*
X-9128760Y+647700D01*
X-9128760Y+1892300D01*
X-9415780Y+1892300D01*
X-9415780Y+647700D01*
D49*
X-9271000Y+762000D02*
X-9271000Y+762000D01*
D50*
X-9216263Y+1181989D02*
X-9328277Y+1181989D01*
X-9328277Y+1265999D01*
X-9290939Y+1308004D01*
X-9253601Y+1308004D01*
X-9216263Y+1265999D01*
X-9216263Y+1181989D01*
X-9328277Y+1476025D02*
X-9328277Y+1371012D01*
X-9290939Y+1371012D01*
X-9290939Y+1455023D01*
X-9272270Y+1476025D01*
X-9234932Y+1476025D01*
X-9216263Y+1455023D01*
X-9216263Y+1392015D01*
X-9234932Y+1371012D01*
D27*
X-7285214Y-7408203D02*
X-7107414Y-7408203D01*
X-7107414Y-6214403D01*
X-7285214Y-6214403D01*
X-7285214Y-7408203D01*
D44*
X-7196314Y-6303303D02*
X-7196314Y-6303303D01*
D45*
X-7163243Y-7022351D02*
X-7229384Y-7022351D01*
X-7229384Y-6960344D01*
X-7218361Y-6947942D01*
X-7207337Y-6947942D01*
X-7196314Y-6960344D01*
X-7196314Y-7022351D01*
X-7196314Y-6960344D02*
X-7185290Y-6947942D01*
X-7163243Y-6947942D01*
X-7218361Y-6910738D02*
X-7229384Y-6898336D01*
X-7229384Y-6861132D01*
X-7218361Y-6848730D01*
X-7207337Y-6848730D01*
X-7196314Y-6861132D01*
X-7196314Y-6898336D01*
X-7185290Y-6910738D01*
X-7163243Y-6910738D01*
X-7163243Y-6848730D01*
X-7185290Y-6749518D02*
X-7185290Y-6823927D01*
X-7229384Y-6774321D01*
X-7163243Y-6774321D01*
D27*
X-5507214Y-7281203D02*
X-5329414Y-7281203D01*
X-5329414Y-6087403D01*
X-5507214Y-6087403D01*
X-5507214Y-7281203D01*
D44*
X-5418314Y-7192303D02*
X-5418314Y-7192303D01*
D45*
X-5385243Y-6770891D02*
X-5451384Y-6770891D01*
X-5451384Y-6708884D01*
X-5440361Y-6696482D01*
X-5429337Y-6696482D01*
X-5418314Y-6708884D01*
X-5418314Y-6770891D01*
X-5418314Y-6708884D02*
X-5407290Y-6696482D01*
X-5385243Y-6696482D01*
X-5440361Y-6659278D02*
X-5451384Y-6646876D01*
X-5451384Y-6609672D01*
X-5440361Y-6597270D01*
X-5429337Y-6597270D01*
X-5418314Y-6609672D01*
X-5407290Y-6597270D01*
X-5396266Y-6597270D01*
X-5385243Y-6609672D01*
X-5385243Y-6646876D01*
X-5396266Y-6659278D01*
X-5418314Y-6634475D02*
X-5418314Y-6609672D01*
X-5440361Y-6560066D02*
X-5451384Y-6547664D01*
X-5451384Y-6510460D01*
X-5440361Y-6498058D01*
X-5429337Y-6498058D01*
X-5418314Y-6510460D01*
X-5418314Y-6547664D01*
X-5407290Y-6560066D01*
X-5385243Y-6560066D01*
X-5385243Y-6498058D01*
D27*
X-5130600Y-8073600D02*
X-4267400Y-8073600D01*
X-4267400Y-7420400D01*
X-5130600Y-7420400D01*
X-5130600Y-8073600D01*
D46*
X-4369000Y-7972000D02*
X-4369000Y-7972000D01*
D66*
X-5062929Y-7790380D02*
X-5038529Y-7812069D01*
X-4940926Y-7812069D01*
X-4916525Y-7790380D01*
X-4916525Y-7768690D01*
X-4940926Y-7747000D01*
X-5038529Y-7747000D01*
X-5062929Y-7725311D01*
X-5062929Y-7703621D01*
X-5038529Y-7681932D01*
X-4940926Y-7681932D01*
X-4916525Y-7703621D01*
X-4867723Y-7681932D02*
X-4867723Y-7812069D01*
X-4794521Y-7747000D01*
X-4721319Y-7812069D01*
X-4721319Y-7681932D01*
X-4526113Y-7681932D02*
X-4648117Y-7681932D01*
X-4648117Y-7725311D01*
X-4550514Y-7725311D01*
X-4526113Y-7747000D01*
X-4526113Y-7790380D01*
X-4550514Y-7812069D01*
X-4623716Y-7812069D01*
X-4648117Y-7790380D01*
D27*
X-6057900Y-5422900D02*
X-5880100Y-5422900D01*
X-5880100Y-3975100D01*
X-6057900Y-3975100D01*
X-6057900Y-5422900D01*
D44*
X-5969000Y-5334000D02*
X-5969000Y-5334000D01*
D45*
X-5935929Y-4735982D02*
X-6002070Y-4735982D01*
X-6002070Y-4673975D01*
X-5991047Y-4661573D01*
X-5980023Y-4661573D01*
X-5969000Y-4673975D01*
X-5969000Y-4735982D01*
X-5969000Y-4673975D02*
X-5957976Y-4661573D01*
X-5935929Y-4661573D01*
X-5991047Y-4624369D02*
X-6002070Y-4611967D01*
X-6002070Y-4574763D01*
X-5991047Y-4562361D01*
X-5980023Y-4562361D01*
X-5969000Y-4574763D01*
X-5969000Y-4611967D01*
X-5957976Y-4624369D01*
X-5935929Y-4624369D01*
X-5935929Y-4562361D01*
D27*
X-6438900Y-5422900D02*
X-6261100Y-5422900D01*
X-6261100Y-3975100D01*
X-6438900Y-3975100D01*
X-6438900Y-5422900D01*
D44*
X-6350000Y-5334000D02*
X-6350000Y-5334000D01*
D45*
X-6316929Y-4735982D02*
X-6383070Y-4735982D01*
X-6383070Y-4673975D01*
X-6372047Y-4661573D01*
X-6361023Y-4661573D01*
X-6350000Y-4673975D01*
X-6350000Y-4735982D01*
X-6350000Y-4673975D02*
X-6338976Y-4661573D01*
X-6316929Y-4661573D01*
X-6372047Y-4624369D02*
X-6383070Y-4611967D01*
X-6383070Y-4574763D01*
X-6372047Y-4562361D01*
X-6361023Y-4562361D01*
X-6350000Y-4574763D01*
X-6338976Y-4562361D01*
X-6327952Y-4562361D01*
X-6316929Y-4574763D01*
X-6316929Y-4611967D01*
X-6327952Y-4624369D01*
X-6350000Y-4599566D02*
X-6350000Y-4574763D01*
D27*
X-11041380Y+2504440D02*
X-7109460Y+2504440D01*
X-7109460Y+5115560D01*
X-11041380Y+5115560D01*
X-11041380Y+2504440D01*
D55*
X-8890000Y+4353560D02*
X-8890000Y+4353560D01*
D67*
X-9875520Y+3492500D02*
X-9675495Y+3670300D01*
X-9475470Y+3670300D01*
X-9275445Y+3492500D01*
X-9275445Y+3314700D01*
X-9475470Y+3136900D01*
X-9675495Y+3136900D01*
X-9875520Y+3314700D01*
X-9875520Y+3492500D01*
X-9475470Y+3314700D02*
X-9275445Y+3136900D01*
X-8475345Y+3670300D02*
X-8975408Y+3670300D01*
X-8975408Y+3492500D01*
X-8575358Y+3492500D01*
X-8475345Y+3403600D01*
X-8475345Y+3225800D01*
X-8575358Y+3136900D01*
X-8875395Y+3136900D01*
X-8975408Y+3225800D01*
D27*
X-6088380Y+2504440D02*
X-2156460Y+2504440D01*
X-2156460Y+5115560D01*
X-6088380Y+5115560D01*
X-6088380Y+2504440D01*
D55*
X-3937000Y+4353560D02*
X-3937000Y+4353560D01*
D67*
X-4922520Y+3492500D02*
X-4722495Y+3670300D01*
X-4522470Y+3670300D01*
X-4322445Y+3492500D01*
X-4322445Y+3314700D01*
X-4522470Y+3136900D01*
X-4722495Y+3136900D01*
X-4922520Y+3314700D01*
X-4922520Y+3492500D01*
X-4522470Y+3314700D02*
X-4322445Y+3136900D01*
X-3522345Y+3581400D02*
X-3622358Y+3670300D01*
X-3922395Y+3670300D01*
X-4022408Y+3581400D01*
X-4022408Y+3225800D01*
X-3922395Y+3136900D01*
X-3622358Y+3136900D01*
X-3522345Y+3225800D01*
X-3522345Y+3314700D01*
X-3622358Y+3403600D01*
X-4022408Y+3403600D01*
D27*
X+2656840Y-7757160D02*
X+3248660Y-7757160D01*
X+3248660Y-7165340D01*
X+2656840Y-7165340D01*
X+2656840Y-7757160D01*
D46*
X+2921000Y-7620000D02*
X+2921000Y-7620000D01*
D48*
X+2781300Y-7429500D02*
X+2781300Y-7315200D01*
X+2867025Y-7315200D01*
X+2909887Y-7353300D01*
X+2909887Y-7391400D01*
X+2867025Y-7429500D01*
X+2781300Y-7429500D01*
X+3081337Y-7334250D02*
X+3059906Y-7315200D01*
X+2995612Y-7315200D01*
X+2974181Y-7334250D01*
X+2974181Y-7410450D01*
X+2995612Y-7429500D01*
X+3059906Y-7429500D01*
X+3081337Y-7410450D01*
X+3081337Y-7391400D01*
X+3059906Y-7372350D01*
X+2974181Y-7372350D01*
D27*
X+1435100Y-6692900D02*
X+1612900Y-6692900D01*
X+1612900Y-5499100D01*
X+1435100Y-5499100D01*
X+1435100Y-6692900D01*
D44*
X+1524000Y-5588000D02*
X+1524000Y-5588000D01*
D45*
X+1557071Y-6307048D02*
X+1490930Y-6307048D01*
X+1490930Y-6245041D01*
X+1501953Y-6232639D01*
X+1512977Y-6232639D01*
X+1524000Y-6245041D01*
X+1524000Y-6307048D01*
X+1524000Y-6245041D02*
X+1535024Y-6232639D01*
X+1557071Y-6232639D01*
X+1501953Y-6195435D02*
X+1490930Y-6183033D01*
X+1490930Y-6145829D01*
X+1501953Y-6133427D01*
X+1512977Y-6133427D01*
X+1524000Y-6145829D01*
X+1535024Y-6133427D01*
X+1546048Y-6133427D01*
X+1557071Y-6145829D01*
X+1557071Y-6183033D01*
X+1546048Y-6195435D01*
X+1524000Y-6170632D02*
X+1524000Y-6145829D01*
X+1501953Y-6096223D02*
X+1490930Y-6083821D01*
X+1490930Y-6046617D01*
X+1501953Y-6034215D01*
X+1512977Y-6034215D01*
X+1524000Y-6046617D01*
X+1535024Y-6034215D01*
X+1546048Y-6034215D01*
X+1557071Y-6046617D01*
X+1557071Y-6083821D01*
X+1546048Y-6096223D01*
X+1524000Y-6071420D02*
X+1524000Y-6046617D01*
D27*
X+2783840Y-6995160D02*
X+3439160Y-6995160D01*
X+3439160Y-5450840D01*
X+2783840Y-5450840D01*
X+2783840Y-6995160D01*
D46*
X+3048000Y-5715000D02*
X+3048000Y-5715000D01*
D68*
X+3150447Y-6725919D02*
X+3189394Y-6725919D01*
X+3228340Y-6682105D01*
X+3228340Y-6506845D01*
X+3189394Y-6463030D01*
X+2994661Y-6463030D01*
X+2994661Y-6112511D02*
X+2994661Y-6331586D01*
X+3072554Y-6331586D01*
X+3072554Y-6156326D01*
X+3111500Y-6112511D01*
X+3189394Y-6112511D01*
X+3228340Y-6156326D01*
X+3228340Y-6287771D01*
X+3189394Y-6331586D01*
D27*
X-7353300Y-1160780D02*
X-6108700Y-1160780D01*
X-6108700Y-873760D01*
X-7353300Y-873760D01*
X-7353300Y-1160780D01*
D49*
X-6223000Y-1016000D02*
X-6223000Y-1016000D01*
D50*
X-6979031Y-1073277D02*
X-6979031Y-961263D01*
X-6895021Y-961263D01*
X-6853016Y-998601D01*
X-6853016Y-1035939D01*
X-6895021Y-1073277D01*
X-6979031Y-1073277D01*
X-6684995Y-1035939D02*
X-6811010Y-1035939D01*
X-6727000Y-961263D01*
X-6727000Y-1073277D01*
D27*
X-7426959Y+751092D02*
X-6898639Y+751092D01*
X-6898639Y+1279412D01*
X-7426959Y+1279412D01*
X-7426959Y+751092D01*
D46*
X-7162799Y+888252D02*
X-7162799Y+888252D01*
D52*
X-7200899Y+1070285D02*
X-7219949Y+1053352D01*
X-7277099Y+1053352D01*
X-7315198Y+1087219D01*
X-7315198Y+1121085D01*
X-7277099Y+1154952D01*
X-7219949Y+1154952D01*
X-7200899Y+1138019D01*
X-7048500Y+1138019D02*
X-7067550Y+1154952D01*
X-7124700Y+1154952D01*
X-7143750Y+1138019D01*
X-7143750Y+1070285D01*
X-7124700Y+1053352D01*
X-7067550Y+1053352D01*
X-7048500Y+1070285D01*
X-7048500Y+1087219D01*
X-7067550Y+1104152D01*
X-7143750Y+1104152D01*
D27*
X-11186160Y-5344160D02*
X-10530840Y-5344160D01*
X-10530840Y-4561840D01*
X-11186160Y-4561840D01*
X-11186160Y-5344160D01*
D46*
X-10922000Y-4826000D02*
X-10922000Y-4826000D01*
D69*
X-11048999Y-5126567D02*
X-11048999Y-5147734D01*
X-11025187Y-5168900D01*
X-10929938Y-5168900D01*
X-10906125Y-5147734D01*
X-10906125Y-5041901D01*
X-10834688Y-5063067D02*
X-10810876Y-5041901D01*
X-10739439Y-5041901D01*
X-10715626Y-5063067D01*
X-10715626Y-5084234D01*
X-10739439Y-5105400D01*
X-10715626Y-5126567D01*
X-10715626Y-5147734D01*
X-10739439Y-5168900D01*
X-10810876Y-5168900D01*
X-10834688Y-5147734D01*
X-10787063Y-5105400D02*
X-10739439Y-5105400D01*
M02*
