G04 PROTEUS GERBER X2 FILE*
%TF.GenerationSoftware,Labcenter,Proteus,8.15-SP1-Build34318*%
%TF.CreationDate,2023-09-22T11:03:57+00:00*%
%TF.FileFunction,AssemblyDrawing,Top*%
%TF.FilePolarity,Positive*%
%TF.Part,Single*%
%TF.SameCoordinates,{3b519ea3-0d73-4d6d-96f8-eb606e8d3f04}*%
%FSLAX45Y45*%
%MOMM*%
G01*
%TA.AperFunction,Profile*%
%ADD20C,0.203200*%
%TA.AperFunction,Material*%
%ADD21C,0.203200*%
%ADD34C,0.508000*%
%ADD35C,0.490380*%
%ADD36C,1.016000*%
%ADD37C,0.515610*%
%ADD38C,0.711200*%
%ADD39C,0.110230*%
%ADD40C,0.914400*%
%ADD41C,0.186690*%
%ADD42C,0.111760*%
%ADD43C,0.812800*%
%ADD44C,0.169330*%
%ADD45C,0.177800*%
%ADD46C,0.215900*%
%ADD47C,0.194730*%
%ADD48C,1.219200*%
%ADD49C,0.331890*%
%ADD50C,0.507080*%
%ADD51C,0.190500*%
%ADD52C,0.226060*%
%ADD53C,0.389460*%
%ADD54C,0.132990*%
%ADD55C,0.237060*%
%ADD56C,0.096120*%
%TD.AperFunction*%
D20*
X-1143000Y-5496560D02*
X+9687560Y-5496560D01*
X+9687560Y+5969000D01*
X-1143000Y+5969000D01*
X-1143000Y-5496560D01*
D21*
X+4127500Y-3185160D02*
X+5016500Y-3185160D01*
X+5016500Y-1386840D01*
X+4127500Y-1386840D01*
X+4127500Y-3185160D01*
D34*
X+4191000Y-1524000D02*
X+4191000Y-1524000D01*
D35*
X+4424883Y-2808630D02*
X+4670078Y-2808630D01*
X+4719117Y-2753462D01*
X+4719117Y-2532787D01*
X+4670078Y-2477618D01*
X+4424883Y-2477618D01*
X+4522961Y-2256943D02*
X+4424883Y-2146605D01*
X+4719117Y-2146605D01*
D21*
X+2910840Y-454660D02*
X+5217160Y-454660D01*
X+5217160Y+454660D01*
X+2910840Y+454660D01*
X+2910840Y-454660D01*
D36*
X+3302000Y+0D02*
X+3302000Y+0D01*
D37*
X+3820923Y-154686D02*
X+3820923Y+154686D01*
X+4168965Y+154686D01*
X+3820923Y+0D02*
X+4052951Y+0D01*
X+4400994Y+51562D02*
X+4517008Y+154686D01*
X+4517008Y-154686D01*
D21*
X+5499100Y-1866900D02*
X+6692900Y-1866900D01*
X+6692900Y-1689100D01*
X+5499100Y-1689100D01*
X+5499100Y-1866900D01*
D38*
X+6604000Y-1778000D02*
X+6604000Y-1778000D01*
D39*
X+5884952Y-1811071D02*
X+5884952Y-1744930D01*
X+5946959Y-1744930D01*
X+5959361Y-1755953D01*
X+5959361Y-1766977D01*
X+5946959Y-1778000D01*
X+5884952Y-1778000D01*
X+5946959Y-1778000D02*
X+5959361Y-1789024D01*
X+5959361Y-1811071D01*
X+5996565Y-1755953D02*
X+6008967Y-1744930D01*
X+6046171Y-1744930D01*
X+6058573Y-1755953D01*
X+6058573Y-1766977D01*
X+6046171Y-1778000D01*
X+6008967Y-1778000D01*
X+5996565Y-1789024D01*
X+5996565Y-1811071D01*
X+6058573Y-1811071D01*
X+6108179Y-1778000D02*
X+6095777Y-1766977D01*
X+6095777Y-1755953D01*
X+6108179Y-1744930D01*
X+6145383Y-1744930D01*
X+6157785Y-1755953D01*
X+6157785Y-1766977D01*
X+6145383Y-1778000D01*
X+6108179Y-1778000D01*
X+6095777Y-1789024D01*
X+6095777Y-1800048D01*
X+6108179Y-1811071D01*
X+6145383Y-1811071D01*
X+6157785Y-1800048D01*
X+6157785Y-1789024D01*
X+6145383Y-1778000D01*
D21*
X+5499100Y-1612900D02*
X+6692900Y-1612900D01*
X+6692900Y-1435100D01*
X+5499100Y-1435100D01*
X+5499100Y-1612900D01*
D38*
X+5588000Y-1524000D02*
X+5588000Y-1524000D01*
D39*
X+6009412Y-1557071D02*
X+6009412Y-1490930D01*
X+6071419Y-1490930D01*
X+6083821Y-1501953D01*
X+6083821Y-1512977D01*
X+6071419Y-1524000D01*
X+6009412Y-1524000D01*
X+6071419Y-1524000D02*
X+6083821Y-1535024D01*
X+6083821Y-1557071D01*
X+6121025Y-1501953D02*
X+6133427Y-1490930D01*
X+6170631Y-1490930D01*
X+6183033Y-1501953D01*
X+6183033Y-1512977D01*
X+6170631Y-1524000D01*
X+6133427Y-1524000D01*
X+6121025Y-1535024D01*
X+6121025Y-1557071D01*
X+6183033Y-1557071D01*
X+6282245Y-1512977D02*
X+6269843Y-1524000D01*
X+6232639Y-1524000D01*
X+6220237Y-1512977D01*
X+6220237Y-1501953D01*
X+6232639Y-1490930D01*
X+6269843Y-1490930D01*
X+6282245Y-1501953D01*
X+6282245Y-1546048D01*
X+6269843Y-1557071D01*
X+6232639Y-1557071D01*
D21*
X+1435100Y-88900D02*
X+2628900Y-88900D01*
X+2628900Y+88900D01*
X+1435100Y+88900D01*
X+1435100Y-88900D01*
D38*
X+1524000Y+0D02*
X+1524000Y+0D01*
D39*
X+1945412Y-33071D02*
X+1945412Y+33070D01*
X+2007419Y+33070D01*
X+2019821Y+22047D01*
X+2019821Y+11023D01*
X+2007419Y+0D01*
X+1945412Y+0D01*
X+2007419Y+0D02*
X+2019821Y-11024D01*
X+2019821Y-33071D01*
X+2069427Y+11023D02*
X+2094230Y+33070D01*
X+2094230Y-33071D01*
X+2156237Y+33070D02*
X+2218245Y+33070D01*
X+2218245Y+22047D01*
X+2156237Y-33071D01*
D21*
X+1435100Y+165100D02*
X+2628900Y+165100D01*
X+2628900Y+342900D01*
X+1435100Y+342900D01*
X+1435100Y+165100D01*
D38*
X+2540000Y+254000D02*
X+2540000Y+254000D01*
D39*
X+1820952Y+220929D02*
X+1820952Y+287070D01*
X+1882959Y+287070D01*
X+1895361Y+276047D01*
X+1895361Y+265023D01*
X+1882959Y+254000D01*
X+1820952Y+254000D01*
X+1882959Y+254000D02*
X+1895361Y+242976D01*
X+1895361Y+220929D01*
X+1944967Y+265023D02*
X+1969770Y+287070D01*
X+1969770Y+220929D01*
X+2044179Y+254000D02*
X+2031777Y+265023D01*
X+2031777Y+276047D01*
X+2044179Y+287070D01*
X+2081383Y+287070D01*
X+2093785Y+276047D01*
X+2093785Y+265023D01*
X+2081383Y+254000D01*
X+2044179Y+254000D01*
X+2031777Y+242976D01*
X+2031777Y+231952D01*
X+2044179Y+220929D01*
X+2081383Y+220929D01*
X+2093785Y+231952D01*
X+2093785Y+242976D01*
X+2081383Y+254000D01*
D21*
X+1409700Y+490220D02*
X+2654300Y+490220D01*
X+2654300Y+777240D01*
X+1409700Y+777240D01*
X+1409700Y+490220D01*
D40*
X+2540000Y+635000D02*
X+2540000Y+635000D01*
D41*
X+1783969Y+577723D02*
X+1783969Y+689737D01*
X+1867979Y+689737D01*
X+1909984Y+652399D01*
X+1909984Y+615061D01*
X+1867979Y+577723D01*
X+1783969Y+577723D01*
X+1972992Y+671068D02*
X+1993995Y+689737D01*
X+2057003Y+689737D01*
X+2078005Y+671068D01*
X+2078005Y+652399D01*
X+2057003Y+633730D01*
X+2078005Y+615061D01*
X+2078005Y+596392D01*
X+2057003Y+577723D01*
X+1993995Y+577723D01*
X+1972992Y+596392D01*
X+2014997Y+633730D02*
X+2057003Y+633730D01*
D21*
X+2148840Y-645160D02*
X+2677160Y-645160D01*
X+2677160Y-370840D01*
X+2148840Y-370840D01*
X+2148840Y-645160D01*
D38*
X+2540000Y-508000D02*
X+2540000Y-508000D01*
D42*
X+2301494Y-530352D02*
X+2288921Y-541528D01*
X+2251202Y-541528D01*
X+2226056Y-519176D01*
X+2226056Y-496824D01*
X+2251202Y-474472D01*
X+2288921Y-474472D01*
X+2301494Y-485648D01*
X+2402078Y-496824D02*
X+2389505Y-508000D01*
X+2351786Y-508000D01*
X+2339213Y-496824D01*
X+2339213Y-485648D01*
X+2351786Y-474472D01*
X+2389505Y-474472D01*
X+2402078Y-485648D01*
X+2402078Y-530352D01*
X+2389505Y-541528D01*
X+2351786Y-541528D01*
D21*
X+1386840Y+1005840D02*
X+1915160Y+1005840D01*
X+1915160Y+1534160D01*
X+1386840Y+1534160D01*
X+1386840Y+1005840D01*
D43*
X+1524000Y+1270000D02*
X+1524000Y+1270000D01*
D44*
X+1773767Y+1231900D02*
X+1790700Y+1212850D01*
X+1790700Y+1155700D01*
X+1756833Y+1117601D01*
X+1722967Y+1117601D01*
X+1689100Y+1155700D01*
X+1689100Y+1212850D01*
X+1706033Y+1231900D01*
X+1689100Y+1289049D02*
X+1689100Y+1384299D01*
X+1706033Y+1384299D01*
X+1790700Y+1289049D01*
D21*
X+1386840Y+1640840D02*
X+1915160Y+1640840D01*
X+1915160Y+1915160D01*
X+1386840Y+1915160D01*
X+1386840Y+1640840D01*
D38*
X+1778000Y+1778000D02*
X+1778000Y+1778000D01*
D42*
X+1539494Y+1755648D02*
X+1526921Y+1744472D01*
X+1489202Y+1744472D01*
X+1464056Y+1766824D01*
X+1464056Y+1789176D01*
X+1489202Y+1811528D01*
X+1526921Y+1811528D01*
X+1539494Y+1800352D01*
X+1589786Y+1778000D02*
X+1577213Y+1789176D01*
X+1577213Y+1800352D01*
X+1589786Y+1811528D01*
X+1627505Y+1811528D01*
X+1640078Y+1800352D01*
X+1640078Y+1789176D01*
X+1627505Y+1778000D01*
X+1589786Y+1778000D01*
X+1577213Y+1766824D01*
X+1577213Y+1755648D01*
X+1589786Y+1744472D01*
X+1627505Y+1744472D01*
X+1640078Y+1755648D01*
X+1640078Y+1766824D01*
X+1627505Y+1778000D01*
D21*
X+1386840Y+2021840D02*
X+1915160Y+2021840D01*
X+1915160Y+2296160D01*
X+1386840Y+2296160D01*
X+1386840Y+2021840D01*
D38*
X+1524000Y+2159000D02*
X+1524000Y+2159000D01*
D42*
X+1712214Y+2136648D02*
X+1699641Y+2125472D01*
X+1661922Y+2125472D01*
X+1636776Y+2147824D01*
X+1636776Y+2170176D01*
X+1661922Y+2192528D01*
X+1699641Y+2192528D01*
X+1712214Y+2181352D01*
X+1812798Y+2147824D02*
X+1737360Y+2147824D01*
X+1787652Y+2192528D01*
X+1787652Y+2125472D01*
D21*
X+2705100Y-2374900D02*
X+3898900Y-2374900D01*
X+3898900Y-2197100D01*
X+2705100Y-2197100D01*
X+2705100Y-2374900D01*
D38*
X+2794000Y-2286000D02*
X+2794000Y-2286000D01*
D39*
X+3265018Y-2319071D02*
X+3265018Y-2252930D01*
X+3327025Y-2252930D01*
X+3339427Y-2263953D01*
X+3339427Y-2274977D01*
X+3327025Y-2286000D01*
X+3265018Y-2286000D01*
X+3327025Y-2286000D02*
X+3339427Y-2297024D01*
X+3339427Y-2319071D01*
X+3438639Y-2297024D02*
X+3364230Y-2297024D01*
X+3413836Y-2252930D01*
X+3413836Y-2319071D01*
D21*
X+3164840Y-3058160D02*
X+3439160Y-3058160D01*
X+3439160Y-2529840D01*
X+3164840Y-2529840D01*
X+3164840Y-3058160D01*
D38*
X+3302000Y-2921000D02*
X+3302000Y-2921000D01*
D42*
X+3324352Y-2732786D02*
X+3335528Y-2745359D01*
X+3335528Y-2783078D01*
X+3313176Y-2808224D01*
X+3290824Y-2808224D01*
X+3268472Y-2783078D01*
X+3268472Y-2745359D01*
X+3279648Y-2732786D01*
X+3268472Y-2632202D02*
X+3268472Y-2695067D01*
X+3290824Y-2695067D01*
X+3290824Y-2644775D01*
X+3302000Y-2632202D01*
X+3324352Y-2632202D01*
X+3335528Y-2644775D01*
X+3335528Y-2682494D01*
X+3324352Y-2695067D01*
D21*
X+2529840Y-3058160D02*
X+3058160Y-3058160D01*
X+3058160Y-2529840D01*
X+2529840Y-2529840D01*
X+2529840Y-3058160D01*
D43*
X+2794000Y-2921000D02*
X+2794000Y-2921000D01*
D44*
X+2755900Y-2738967D02*
X+2736850Y-2755900D01*
X+2679700Y-2755900D01*
X+2641601Y-2722033D01*
X+2641601Y-2688167D01*
X+2679700Y-2654300D01*
X+2736850Y-2654300D01*
X+2755900Y-2671233D01*
X+2908299Y-2671233D02*
X+2889249Y-2654300D01*
X+2832099Y-2654300D01*
X+2813049Y-2671233D01*
X+2813049Y-2738967D01*
X+2832099Y-2755900D01*
X+2889249Y-2755900D01*
X+2908299Y-2738967D01*
X+2908299Y-2722033D01*
X+2889249Y-2705100D01*
X+2813049Y-2705100D01*
D21*
X+2705100Y-1866900D02*
X+3898900Y-1866900D01*
X+3898900Y-1689100D01*
X+2705100Y-1689100D01*
X+2705100Y-1866900D01*
D38*
X+3810000Y-1778000D02*
X+3810000Y-1778000D01*
D39*
X+3090952Y-1811071D02*
X+3090952Y-1744930D01*
X+3152959Y-1744930D01*
X+3165361Y-1755953D01*
X+3165361Y-1766977D01*
X+3152959Y-1778000D01*
X+3090952Y-1778000D01*
X+3152959Y-1778000D02*
X+3165361Y-1789024D01*
X+3165361Y-1811071D01*
X+3202565Y-1755953D02*
X+3214967Y-1744930D01*
X+3252171Y-1744930D01*
X+3264573Y-1755953D01*
X+3264573Y-1766977D01*
X+3252171Y-1778000D01*
X+3264573Y-1789024D01*
X+3264573Y-1800048D01*
X+3252171Y-1811071D01*
X+3214967Y-1811071D01*
X+3202565Y-1800048D01*
X+3227368Y-1778000D02*
X+3252171Y-1778000D01*
X+3289376Y-1800048D02*
X+3289376Y-1755953D01*
X+3301777Y-1744930D01*
X+3351383Y-1744930D01*
X+3363785Y-1755953D01*
X+3363785Y-1800048D01*
X+3351383Y-1811071D01*
X+3301777Y-1811071D01*
X+3289376Y-1800048D01*
X+3289376Y-1811071D02*
X+3363785Y-1744930D01*
D21*
X+2705100Y-2120900D02*
X+3898900Y-2120900D01*
X+3898900Y-1943100D01*
X+2705100Y-1943100D01*
X+2705100Y-2120900D01*
D38*
X+2794000Y-2032000D02*
X+2794000Y-2032000D01*
D39*
X+3215412Y-2065071D02*
X+3215412Y-1998930D01*
X+3277419Y-1998930D01*
X+3289821Y-2009953D01*
X+3289821Y-2020977D01*
X+3277419Y-2032000D01*
X+3215412Y-2032000D01*
X+3277419Y-2032000D02*
X+3289821Y-2043024D01*
X+3289821Y-2065071D01*
X+3327025Y-2009953D02*
X+3339427Y-1998930D01*
X+3376631Y-1998930D01*
X+3389033Y-2009953D01*
X+3389033Y-2020977D01*
X+3376631Y-2032000D01*
X+3389033Y-2043024D01*
X+3389033Y-2054048D01*
X+3376631Y-2065071D01*
X+3339427Y-2065071D01*
X+3327025Y-2054048D01*
X+3351828Y-2032000D02*
X+3376631Y-2032000D01*
X+3438639Y-2020977D02*
X+3463442Y-1998930D01*
X+3463442Y-2065071D01*
D21*
X+3037840Y-1280160D02*
X+3820160Y-1280160D01*
X+3820160Y-1005840D01*
X+3037840Y-1005840D01*
X+3037840Y-1280160D01*
D38*
X+3683000Y-1143000D02*
X+3683000Y-1143000D01*
D45*
X+3302635Y-1178560D02*
X+3282632Y-1196340D01*
X+3222625Y-1196340D01*
X+3182620Y-1160780D01*
X+3182620Y-1125220D01*
X+3222625Y-1089660D01*
X+3282632Y-1089660D01*
X+3302635Y-1107440D01*
X+3382645Y-1125220D02*
X+3422650Y-1089660D01*
X+3422650Y-1196340D01*
D21*
X+2705100Y-1612900D02*
X+3898900Y-1612900D01*
X+3898900Y-1435100D01*
X+2705100Y-1435100D01*
X+2705100Y-1612900D01*
D38*
X+2794000Y-1524000D02*
X+2794000Y-1524000D01*
D39*
X+3265018Y-1557071D02*
X+3265018Y-1490930D01*
X+3327025Y-1490930D01*
X+3339427Y-1501953D01*
X+3339427Y-1512977D01*
X+3327025Y-1524000D01*
X+3265018Y-1524000D01*
X+3327025Y-1524000D02*
X+3339427Y-1535024D01*
X+3339427Y-1557071D01*
X+3389033Y-1512977D02*
X+3413836Y-1490930D01*
X+3413836Y-1557071D01*
D21*
X+3101340Y-962660D02*
X+4010660Y-962660D01*
X+4010660Y-561340D01*
X+3101340Y-561340D01*
X+3101340Y-962660D01*
D43*
X+3302000Y-762000D02*
X+3302000Y-762000D01*
D46*
X+3385185Y-826770D02*
X+3385185Y-697230D01*
X+3506628Y-697230D01*
X+3530917Y-718820D01*
X+3530917Y-740410D01*
X+3506628Y-762000D01*
X+3385185Y-762000D01*
X+3506628Y-762000D02*
X+3530917Y-783590D01*
X+3530917Y-826770D01*
X+3579495Y-697230D02*
X+3579495Y-762000D01*
X+3652361Y-826770D01*
X+3725227Y-762000D01*
X+3725227Y-697230D01*
X+3822382Y-740410D02*
X+3870960Y-697230D01*
X+3870960Y-826770D01*
D21*
X+878840Y-5090160D02*
X+1661160Y-5090160D01*
X+1661160Y-4688840D01*
X+878840Y-4688840D01*
X+878840Y-5090160D01*
D43*
X+1524000Y-4826000D02*
X+1524000Y-4826000D01*
D47*
X+1005841Y-4870027D02*
X+1049655Y-4831080D01*
X+1093470Y-4831080D01*
X+1137285Y-4870027D01*
X+1137285Y-4908973D01*
X+1093470Y-4947920D01*
X+1049655Y-4947920D01*
X+1005841Y-4908973D01*
X+1005841Y-4870027D01*
X+1093470Y-4908973D02*
X+1137285Y-4947920D01*
X+1224914Y-4870027D02*
X+1268729Y-4831080D01*
X+1268729Y-4947920D01*
D21*
X+2529840Y-5090160D02*
X+3312160Y-5090160D01*
X+3312160Y-4688840D01*
X+2529840Y-4688840D01*
X+2529840Y-5090160D01*
D43*
X+3175000Y-4826000D02*
X+3175000Y-4826000D01*
D47*
X+2656841Y-4870027D02*
X+2700655Y-4831080D01*
X+2744470Y-4831080D01*
X+2788285Y-4870027D01*
X+2788285Y-4908973D01*
X+2744470Y-4947920D01*
X+2700655Y-4947920D01*
X+2656841Y-4908973D01*
X+2656841Y-4870027D01*
X+2744470Y-4908973D02*
X+2788285Y-4947920D01*
X+2854007Y-4850553D02*
X+2875914Y-4831080D01*
X+2941636Y-4831080D01*
X+2963544Y-4850553D01*
X+2963544Y-4870027D01*
X+2941636Y-4889500D01*
X+2875914Y-4889500D01*
X+2854007Y-4908973D01*
X+2854007Y-4947920D01*
X+2963544Y-4947920D01*
D21*
X+3799840Y-5090160D02*
X+5344160Y-5090160D01*
X+5344160Y-4053840D01*
X+3799840Y-4053840D01*
X+3799840Y-5090160D01*
D48*
X+5080000Y-4572000D02*
X+5080000Y-4572000D01*
D49*
X+4110737Y-4605189D02*
X+4110737Y-4638379D01*
X+4148074Y-4671568D01*
X+4297426Y-4671568D01*
X+4334764Y-4638379D01*
X+4334764Y-4472432D01*
X+4484115Y-4538811D02*
X+4558791Y-4472432D01*
X+4558791Y-4671568D01*
D21*
X+2451100Y-3644900D02*
X+3898900Y-3644900D01*
X+3898900Y-3467100D01*
X+2451100Y-3467100D01*
X+2451100Y-3644900D01*
D38*
X+3810000Y-3556000D02*
X+3810000Y-3556000D01*
D39*
X+3013558Y-3589071D02*
X+3013558Y-3522930D01*
X+3075565Y-3522930D01*
X+3087967Y-3533953D01*
X+3087967Y-3544977D01*
X+3075565Y-3556000D01*
X+3013558Y-3556000D01*
X+3075565Y-3556000D02*
X+3087967Y-3567024D01*
X+3087967Y-3589071D01*
X+3125171Y-3533953D02*
X+3137573Y-3522930D01*
X+3174777Y-3522930D01*
X+3187179Y-3533953D01*
X+3187179Y-3544977D01*
X+3174777Y-3556000D01*
X+3137573Y-3556000D01*
X+3125171Y-3567024D01*
X+3125171Y-3589071D01*
X+3187179Y-3589071D01*
D21*
X+2451100Y-3898900D02*
X+3898900Y-3898900D01*
X+3898900Y-3721100D01*
X+2451100Y-3721100D01*
X+2451100Y-3898900D01*
D38*
X+3810000Y-3810000D02*
X+3810000Y-3810000D01*
D39*
X+3013558Y-3843071D02*
X+3013558Y-3776930D01*
X+3075565Y-3776930D01*
X+3087967Y-3787953D01*
X+3087967Y-3798977D01*
X+3075565Y-3810000D01*
X+3013558Y-3810000D01*
X+3075565Y-3810000D02*
X+3087967Y-3821024D01*
X+3087967Y-3843071D01*
X+3125171Y-3787953D02*
X+3137573Y-3776930D01*
X+3174777Y-3776930D01*
X+3187179Y-3787953D01*
X+3187179Y-3798977D01*
X+3174777Y-3810000D01*
X+3187179Y-3821024D01*
X+3187179Y-3832048D01*
X+3174777Y-3843071D01*
X+3137573Y-3843071D01*
X+3125171Y-3832048D01*
X+3149974Y-3810000D02*
X+3174777Y-3810000D01*
D21*
X+3357340Y+1460500D02*
X+6806660Y+1460500D01*
X+6806660Y+2349500D01*
X+3357340Y+2349500D01*
X+3357340Y+1460500D01*
D34*
X+3429000Y+1524000D02*
X+3429000Y+1524000D01*
D50*
X+4674154Y+2057126D02*
X+4674154Y+1803583D01*
X+4731201Y+1752875D01*
X+4959389Y+1752875D01*
X+5016436Y+1803583D01*
X+5016436Y+2057126D01*
X+5187577Y+2006417D02*
X+5244624Y+2057126D01*
X+5415765Y+2057126D01*
X+5472812Y+2006417D01*
X+5472812Y+1955709D01*
X+5415765Y+1905000D01*
X+5244624Y+1905000D01*
X+5187577Y+1854292D01*
X+5187577Y+1752875D01*
X+5472812Y+1752875D01*
D21*
X+1513840Y+3418840D02*
X+2296160Y+3418840D01*
X+2296160Y+3820160D01*
X+1513840Y+3820160D01*
X+1513840Y+3418840D01*
D43*
X+1651000Y+3556000D02*
X+1651000Y+3556000D01*
D47*
X+1818641Y+3677920D02*
X+1818641Y+3580553D01*
X+1840548Y+3561080D01*
X+1928177Y+3561080D01*
X+1950085Y+3580553D01*
X+1950085Y+3677920D01*
X+2015807Y+3658447D02*
X+2037714Y+3677920D01*
X+2103436Y+3677920D01*
X+2125344Y+3658447D01*
X+2125344Y+3638973D01*
X+2103436Y+3619500D01*
X+2125344Y+3600027D01*
X+2125344Y+3580553D01*
X+2103436Y+3561080D01*
X+2037714Y+3561080D01*
X+2015807Y+3580553D01*
X+2059622Y+3619500D02*
X+2103436Y+3619500D01*
D21*
X-368300Y+2522220D02*
X+876300Y+2522220D01*
X+876300Y+2809240D01*
X-368300Y+2809240D01*
X-368300Y+2522220D01*
D40*
X+762000Y+2667000D02*
X+762000Y+2667000D01*
D41*
X-78041Y+2609723D02*
X-78041Y+2721737D01*
X+5969Y+2721737D01*
X+47974Y+2684399D01*
X+47974Y+2647061D01*
X+5969Y+2609723D01*
X-78041Y+2609723D01*
X+131985Y+2684399D02*
X+173990Y+2721737D01*
X+173990Y+2609723D01*
X+279003Y+2703068D02*
X+300006Y+2721737D01*
X+363014Y+2721737D01*
X+384016Y+2703068D01*
X+384016Y+2684399D01*
X+363014Y+2665730D01*
X+300006Y+2665730D01*
X+279003Y+2647061D01*
X+279003Y+2609723D01*
X+384016Y+2609723D01*
D21*
X-73660Y+1894840D02*
X+518160Y+1894840D01*
X+518160Y+2486660D01*
X-73660Y+2486660D01*
X-73660Y+1894840D01*
D43*
X+381000Y+2159000D02*
X+381000Y+2159000D01*
D51*
X+190500Y+1933575D02*
X+76200Y+1933575D01*
X+76200Y+2019300D01*
X+114300Y+2062162D01*
X+152400Y+2062162D01*
X+190500Y+2019300D01*
X+190500Y+1933575D01*
X+114300Y+2147887D02*
X+76200Y+2190750D01*
X+190500Y+2190750D01*
X+95250Y+2297906D02*
X+76200Y+2319337D01*
X+76200Y+2383631D01*
X+95250Y+2405062D01*
X+114300Y+2405062D01*
X+133350Y+2383631D01*
X+152400Y+2405062D01*
X+171450Y+2405062D01*
X+190500Y+2383631D01*
X+190500Y+2319337D01*
X+171450Y+2297906D01*
X+133350Y+2340768D02*
X+133350Y+2383631D01*
D21*
X-368300Y+2905760D02*
X+876300Y+2905760D01*
X+876300Y+3192780D01*
X-368300Y+3192780D01*
X-368300Y+2905760D01*
D40*
X-254000Y+3048000D02*
X-254000Y+3048000D01*
D41*
X+81979Y+2993263D02*
X+81979Y+3105277D01*
X+165989Y+3105277D01*
X+207994Y+3067939D01*
X+207994Y+3030601D01*
X+165989Y+2993263D01*
X+81979Y+2993263D01*
X+292005Y+3067939D02*
X+334010Y+3105277D01*
X+334010Y+2993263D01*
X+544036Y+3030601D02*
X+418021Y+3030601D01*
X+502031Y+3105277D01*
X+502031Y+2993263D01*
D21*
X-723900Y+2070100D02*
X-546100Y+2070100D01*
X-546100Y+3263900D01*
X-723900Y+3263900D01*
X-723900Y+2070100D01*
D38*
X-635000Y+2159000D02*
X-635000Y+2159000D01*
D39*
X-601929Y+2580412D02*
X-668070Y+2580412D01*
X-668070Y+2642419D01*
X-657047Y+2654821D01*
X-646023Y+2654821D01*
X-635000Y+2642419D01*
X-635000Y+2580412D01*
X-635000Y+2642419D02*
X-623976Y+2654821D01*
X-601929Y+2654821D01*
X-646023Y+2704427D02*
X-668070Y+2729230D01*
X-601929Y+2729230D01*
X-646023Y+2853245D02*
X-635000Y+2840843D01*
X-635000Y+2803639D01*
X-646023Y+2791237D01*
X-657047Y+2791237D01*
X-668070Y+2803639D01*
X-668070Y+2840843D01*
X-657047Y+2853245D01*
X-612952Y+2853245D01*
X-601929Y+2840843D01*
X-601929Y+2803639D01*
D21*
X+2021840Y+2021840D02*
X+2550160Y+2021840D01*
X+2550160Y+2296160D01*
X+2021840Y+2296160D01*
X+2021840Y+2021840D01*
D38*
X+2159000Y+2159000D02*
X+2159000Y+2159000D01*
D42*
X+2296922Y+2136648D02*
X+2284349Y+2125472D01*
X+2246630Y+2125472D01*
X+2221484Y+2147824D01*
X+2221484Y+2170176D01*
X+2246630Y+2192528D01*
X+2284349Y+2192528D01*
X+2296922Y+2181352D01*
X+2347214Y+2170176D02*
X+2372360Y+2192528D01*
X+2372360Y+2125472D01*
X+2422652Y+2136648D02*
X+2422652Y+2181352D01*
X+2435225Y+2192528D01*
X+2485517Y+2192528D01*
X+2498090Y+2181352D01*
X+2498090Y+2136648D01*
X+2485517Y+2125472D01*
X+2435225Y+2125472D01*
X+2422652Y+2136648D01*
X+2422652Y+2125472D02*
X+2498090Y+2192528D01*
D21*
X+2021840Y+1386840D02*
X+2550160Y+1386840D01*
X+2550160Y+1915160D01*
X+2021840Y+1915160D01*
X+2021840Y+1386840D01*
D43*
X+2159000Y+1651000D02*
X+2159000Y+1651000D01*
D44*
X+2408767Y+1536701D02*
X+2425700Y+1517651D01*
X+2425700Y+1460501D01*
X+2391833Y+1422402D01*
X+2357967Y+1422402D01*
X+2324100Y+1460501D01*
X+2324100Y+1517651D01*
X+2341033Y+1536701D01*
X+2357967Y+1612900D02*
X+2324100Y+1651000D01*
X+2425700Y+1651000D01*
X+2341033Y+1746249D02*
X+2324100Y+1765299D01*
X+2324100Y+1822449D01*
X+2341033Y+1841499D01*
X+2357967Y+1841499D01*
X+2374900Y+1822449D01*
X+2374900Y+1765299D01*
X+2391833Y+1746249D01*
X+2425700Y+1746249D01*
X+2425700Y+1841499D01*
D21*
X+3672840Y+3238500D02*
X+4455160Y+3238500D01*
X+4455160Y+4127500D01*
X+3672840Y+4127500D01*
X+3672840Y+3238500D01*
D34*
X+3810000Y+3302000D02*
X+3810000Y+3302000D01*
D52*
X+3996182Y+3523996D02*
X+4109212Y+3523996D01*
X+4131818Y+3549427D01*
X+4131818Y+3651154D01*
X+4109212Y+3676586D01*
X+3996182Y+3676586D01*
X+4018788Y+3880040D02*
X+3996182Y+3854608D01*
X+3996182Y+3778313D01*
X+4018788Y+3752881D01*
X+4109212Y+3752881D01*
X+4131818Y+3778313D01*
X+4131818Y+3854608D01*
X+4109212Y+3880040D01*
X+4086606Y+3880040D01*
X+4064000Y+3854608D01*
X+4064000Y+3752881D01*
D21*
X+2070100Y+2705100D02*
X+3263900Y+2705100D01*
X+3263900Y+2882900D01*
X+2070100Y+2882900D01*
X+2070100Y+2705100D01*
D38*
X+3175000Y+2794000D02*
X+3175000Y+2794000D01*
D39*
X+2455952Y+2760929D02*
X+2455952Y+2827070D01*
X+2517959Y+2827070D01*
X+2530361Y+2816047D01*
X+2530361Y+2805023D01*
X+2517959Y+2794000D01*
X+2455952Y+2794000D01*
X+2517959Y+2794000D02*
X+2530361Y+2782976D01*
X+2530361Y+2760929D01*
X+2567565Y+2816047D02*
X+2579967Y+2827070D01*
X+2617171Y+2827070D01*
X+2629573Y+2816047D01*
X+2629573Y+2805023D01*
X+2617171Y+2794000D01*
X+2579967Y+2794000D01*
X+2567565Y+2782976D01*
X+2567565Y+2760929D01*
X+2629573Y+2760929D01*
X+2666777Y+2816047D02*
X+2679179Y+2827070D01*
X+2716383Y+2827070D01*
X+2728785Y+2816047D01*
X+2728785Y+2805023D01*
X+2716383Y+2794000D01*
X+2679179Y+2794000D01*
X+2666777Y+2782976D01*
X+2666777Y+2760929D01*
X+2728785Y+2760929D01*
D21*
X+2070100Y+2959100D02*
X+3263900Y+2959100D01*
X+3263900Y+3136900D01*
X+2070100Y+3136900D01*
X+2070100Y+2959100D01*
D38*
X+2159000Y+3048000D02*
X+2159000Y+3048000D01*
D39*
X+2580412Y+3014929D02*
X+2580412Y+3081070D01*
X+2642419Y+3081070D01*
X+2654821Y+3070047D01*
X+2654821Y+3059023D01*
X+2642419Y+3048000D01*
X+2580412Y+3048000D01*
X+2642419Y+3048000D02*
X+2654821Y+3036976D01*
X+2654821Y+3014929D01*
X+2692025Y+3070047D02*
X+2704427Y+3081070D01*
X+2741631Y+3081070D01*
X+2754033Y+3070047D01*
X+2754033Y+3059023D01*
X+2741631Y+3048000D01*
X+2704427Y+3048000D01*
X+2692025Y+3036976D01*
X+2692025Y+3014929D01*
X+2754033Y+3014929D01*
X+2791237Y+3070047D02*
X+2803639Y+3081070D01*
X+2840843Y+3081070D01*
X+2853245Y+3070047D01*
X+2853245Y+3059023D01*
X+2840843Y+3048000D01*
X+2853245Y+3036976D01*
X+2853245Y+3025952D01*
X+2840843Y+3014929D01*
X+2803639Y+3014929D01*
X+2791237Y+3025952D01*
X+2816040Y+3048000D02*
X+2840843Y+3048000D01*
D21*
X+3695700Y+2651760D02*
X+4940300Y+2651760D01*
X+4940300Y+2938780D01*
X+3695700Y+2938780D01*
X+3695700Y+2651760D01*
D40*
X+3810000Y+2794000D02*
X+3810000Y+2794000D01*
D41*
X+4145979Y+2739263D02*
X+4145979Y+2851277D01*
X+4229989Y+2851277D01*
X+4271994Y+2813939D01*
X+4271994Y+2776601D01*
X+4229989Y+2739263D01*
X+4145979Y+2739263D01*
X+4356005Y+2813939D02*
X+4398010Y+2851277D01*
X+4398010Y+2739263D01*
X+4608036Y+2832608D02*
X+4587034Y+2851277D01*
X+4524026Y+2851277D01*
X+4503023Y+2832608D01*
X+4503023Y+2757932D01*
X+4524026Y+2739263D01*
X+4587034Y+2739263D01*
X+4608036Y+2757932D01*
X+4608036Y+2776601D01*
X+4587034Y+2795270D01*
X+4503023Y+2795270D01*
D21*
X+8562340Y+2847340D02*
X+9154160Y+2847340D01*
X+9154160Y+3439160D01*
X+8562340Y+3439160D01*
X+8562340Y+2847340D01*
D43*
X+8890000Y+3302000D02*
X+8890000Y+3302000D01*
D51*
X+8686800Y+2997200D02*
X+8686800Y+3111500D01*
X+8772525Y+3111500D01*
X+8815387Y+3073400D01*
X+8815387Y+3035300D01*
X+8772525Y+2997200D01*
X+8686800Y+2997200D01*
X+8986837Y+3092450D02*
X+8965406Y+3111500D01*
X+8901112Y+3111500D01*
X+8879681Y+3092450D01*
X+8879681Y+3016250D01*
X+8901112Y+2997200D01*
X+8965406Y+2997200D01*
X+8986837Y+3016250D01*
X+8986837Y+3035300D01*
X+8965406Y+3054350D01*
X+8879681Y+3054350D01*
D21*
X+8562340Y+2212340D02*
X+9154160Y+2212340D01*
X+9154160Y+2804160D01*
X+8562340Y+2804160D01*
X+8562340Y+2212340D01*
D43*
X+8890000Y+2667000D02*
X+8890000Y+2667000D01*
D51*
X+8686800Y+2362200D02*
X+8686800Y+2476500D01*
X+8772525Y+2476500D01*
X+8815387Y+2438400D01*
X+8815387Y+2400300D01*
X+8772525Y+2362200D01*
X+8686800Y+2362200D01*
X+8879681Y+2476500D02*
X+8986837Y+2476500D01*
X+8986837Y+2457450D01*
X+8879681Y+2362200D01*
D21*
X+8562340Y+1577340D02*
X+9154160Y+1577340D01*
X+9154160Y+2169160D01*
X+8562340Y+2169160D01*
X+8562340Y+1577340D01*
D43*
X+8890000Y+2032000D02*
X+8890000Y+2032000D01*
D51*
X+8686800Y+1727200D02*
X+8686800Y+1841500D01*
X+8772525Y+1841500D01*
X+8815387Y+1803400D01*
X+8815387Y+1765300D01*
X+8772525Y+1727200D01*
X+8686800Y+1727200D01*
X+8901112Y+1784350D02*
X+8879681Y+1803400D01*
X+8879681Y+1822450D01*
X+8901112Y+1841500D01*
X+8965406Y+1841500D01*
X+8986837Y+1822450D01*
X+8986837Y+1803400D01*
X+8965406Y+1784350D01*
X+8901112Y+1784350D01*
X+8879681Y+1765300D01*
X+8879681Y+1746250D01*
X+8901112Y+1727200D01*
X+8965406Y+1727200D01*
X+8986837Y+1746250D01*
X+8986837Y+1765300D01*
X+8965406Y+1784350D01*
D21*
X+8562340Y+942340D02*
X+9154160Y+942340D01*
X+9154160Y+1534160D01*
X+8562340Y+1534160D01*
X+8562340Y+942340D01*
D43*
X+8890000Y+1397000D02*
X+8890000Y+1397000D01*
D51*
X+8686800Y+1092200D02*
X+8686800Y+1206500D01*
X+8772525Y+1206500D01*
X+8815387Y+1168400D01*
X+8815387Y+1130300D01*
X+8772525Y+1092200D01*
X+8686800Y+1092200D01*
X+8986837Y+1168400D02*
X+8965406Y+1149350D01*
X+8901112Y+1149350D01*
X+8879681Y+1168400D01*
X+8879681Y+1187450D01*
X+8901112Y+1206500D01*
X+8965406Y+1206500D01*
X+8986837Y+1187450D01*
X+8986837Y+1111250D01*
X+8965406Y+1092200D01*
X+8901112Y+1092200D01*
D21*
X+8562340Y+307340D02*
X+9154160Y+307340D01*
X+9154160Y+899160D01*
X+8562340Y+899160D01*
X+8562340Y+307340D01*
D43*
X+8890000Y+762000D02*
X+8890000Y+762000D01*
D51*
X+8601075Y+457200D02*
X+8601075Y+571500D01*
X+8686800Y+571500D01*
X+8729662Y+533400D01*
X+8729662Y+495300D01*
X+8686800Y+457200D01*
X+8601075Y+457200D01*
X+8815387Y+533400D02*
X+8858250Y+571500D01*
X+8858250Y+457200D01*
X+8943975Y+476250D02*
X+8943975Y+552450D01*
X+8965406Y+571500D01*
X+9051131Y+571500D01*
X+9072562Y+552450D01*
X+9072562Y+476250D01*
X+9051131Y+457200D01*
X+8965406Y+457200D01*
X+8943975Y+476250D01*
X+8943975Y+457200D02*
X+9072562Y+571500D01*
D21*
X+8562340Y-327660D02*
X+9154160Y-327660D01*
X+9154160Y+264160D01*
X+8562340Y+264160D01*
X+8562340Y-327660D01*
D43*
X+8890000Y+127000D02*
X+8890000Y+127000D01*
D51*
X+8601075Y-177800D02*
X+8601075Y-63500D01*
X+8686800Y-63500D01*
X+8729662Y-101600D01*
X+8729662Y-139700D01*
X+8686800Y-177800D01*
X+8601075Y-177800D01*
X+8815387Y-101600D02*
X+8858250Y-63500D01*
X+8858250Y-177800D01*
X+8986837Y-101600D02*
X+9029700Y-63500D01*
X+9029700Y-177800D01*
D21*
X+8117840Y+4053840D02*
X+8773160Y+4053840D01*
X+8773160Y+5598160D01*
X+8117840Y+5598160D01*
X+8117840Y+4053840D01*
D43*
X+8382000Y+5334000D02*
X+8382000Y+5334000D01*
D53*
X+8484447Y+4323081D02*
X+8523394Y+4323081D01*
X+8562340Y+4366895D01*
X+8562340Y+4542155D01*
X+8523394Y+4585970D01*
X+8328661Y+4585970D01*
X+8328661Y+4936489D02*
X+8328661Y+4717414D01*
X+8406554Y+4717414D01*
X+8406554Y+4892674D01*
X+8445500Y+4936489D01*
X+8523394Y+4936489D01*
X+8562340Y+4892674D01*
X+8562340Y+4761229D01*
X+8523394Y+4717414D01*
D21*
X+7023100Y+1689100D02*
X+8216900Y+1689100D01*
X+8216900Y+1866900D01*
X+7023100Y+1866900D01*
X+7023100Y+1689100D01*
D38*
X+7112000Y+1778000D02*
X+7112000Y+1778000D01*
D39*
X+7533412Y+1744929D02*
X+7533412Y+1811070D01*
X+7595419Y+1811070D01*
X+7607821Y+1800047D01*
X+7607821Y+1789023D01*
X+7595419Y+1778000D01*
X+7533412Y+1778000D01*
X+7595419Y+1778000D02*
X+7607821Y+1766976D01*
X+7607821Y+1744929D01*
X+7657427Y+1789023D02*
X+7682230Y+1811070D01*
X+7682230Y+1744929D01*
X+7744237Y+1800047D02*
X+7756639Y+1811070D01*
X+7793843Y+1811070D01*
X+7806245Y+1800047D01*
X+7806245Y+1789023D01*
X+7793843Y+1778000D01*
X+7756639Y+1778000D01*
X+7744237Y+1766976D01*
X+7744237Y+1744929D01*
X+7806245Y+1744929D01*
D21*
X+7023100Y+1435100D02*
X+8216900Y+1435100D01*
X+8216900Y+1612900D01*
X+7023100Y+1612900D01*
X+7023100Y+1435100D01*
D38*
X+7112000Y+1524000D02*
X+7112000Y+1524000D01*
D39*
X+7533412Y+1490929D02*
X+7533412Y+1557070D01*
X+7595419Y+1557070D01*
X+7607821Y+1546047D01*
X+7607821Y+1535023D01*
X+7595419Y+1524000D01*
X+7533412Y+1524000D01*
X+7595419Y+1524000D02*
X+7607821Y+1512976D01*
X+7607821Y+1490929D01*
X+7657427Y+1535023D02*
X+7682230Y+1557070D01*
X+7682230Y+1490929D01*
X+7744237Y+1546047D02*
X+7756639Y+1557070D01*
X+7793843Y+1557070D01*
X+7806245Y+1546047D01*
X+7806245Y+1535023D01*
X+7793843Y+1524000D01*
X+7806245Y+1512976D01*
X+7806245Y+1501952D01*
X+7793843Y+1490929D01*
X+7756639Y+1490929D01*
X+7744237Y+1501952D01*
X+7769040Y+1524000D02*
X+7793843Y+1524000D01*
D21*
X+7023100Y+1181100D02*
X+8216900Y+1181100D01*
X+8216900Y+1358900D01*
X+7023100Y+1358900D01*
X+7023100Y+1181100D01*
D38*
X+7112000Y+1270000D02*
X+7112000Y+1270000D01*
D39*
X+7533412Y+1236929D02*
X+7533412Y+1303070D01*
X+7595419Y+1303070D01*
X+7607821Y+1292047D01*
X+7607821Y+1281023D01*
X+7595419Y+1270000D01*
X+7533412Y+1270000D01*
X+7595419Y+1270000D02*
X+7607821Y+1258976D01*
X+7607821Y+1236929D01*
X+7657427Y+1281023D02*
X+7682230Y+1303070D01*
X+7682230Y+1236929D01*
X+7806245Y+1258976D02*
X+7731836Y+1258976D01*
X+7781442Y+1303070D01*
X+7781442Y+1236929D01*
D21*
X+7023100Y+673100D02*
X+8216900Y+673100D01*
X+8216900Y+850900D01*
X+7023100Y+850900D01*
X+7023100Y+673100D01*
D38*
X+7112000Y+762000D02*
X+7112000Y+762000D01*
D39*
X+7533412Y+728929D02*
X+7533412Y+795070D01*
X+7595419Y+795070D01*
X+7607821Y+784047D01*
X+7607821Y+773023D01*
X+7595419Y+762000D01*
X+7533412Y+762000D01*
X+7595419Y+762000D02*
X+7607821Y+750976D01*
X+7607821Y+728929D01*
X+7657427Y+773023D02*
X+7682230Y+795070D01*
X+7682230Y+728929D01*
X+7806245Y+795070D02*
X+7744237Y+795070D01*
X+7744237Y+773023D01*
X+7793843Y+773023D01*
X+7806245Y+762000D01*
X+7806245Y+739952D01*
X+7793843Y+728929D01*
X+7756639Y+728929D01*
X+7744237Y+739952D01*
D21*
X+7023100Y+927100D02*
X+8216900Y+927100D01*
X+8216900Y+1104900D01*
X+7023100Y+1104900D01*
X+7023100Y+927100D01*
D38*
X+7112000Y+1016000D02*
X+7112000Y+1016000D01*
D39*
X+7533412Y+982929D02*
X+7533412Y+1049070D01*
X+7595419Y+1049070D01*
X+7607821Y+1038047D01*
X+7607821Y+1027023D01*
X+7595419Y+1016000D01*
X+7533412Y+1016000D01*
X+7595419Y+1016000D02*
X+7607821Y+1004976D01*
X+7607821Y+982929D01*
X+7657427Y+1027023D02*
X+7682230Y+1049070D01*
X+7682230Y+982929D01*
X+7806245Y+1038047D02*
X+7793843Y+1049070D01*
X+7756639Y+1049070D01*
X+7744237Y+1038047D01*
X+7744237Y+993952D01*
X+7756639Y+982929D01*
X+7793843Y+982929D01*
X+7806245Y+993952D01*
X+7806245Y+1004976D01*
X+7793843Y+1016000D01*
X+7744237Y+1016000D01*
D21*
X+8331400Y-1215600D02*
X+9194600Y-1215600D01*
X+9194600Y-562400D01*
X+8331400Y-562400D01*
X+8331400Y-1215600D01*
D43*
X+9093000Y-664000D02*
X+9093000Y-664000D01*
D54*
X+8392650Y-928898D02*
X+8392650Y-849103D01*
X+8467457Y-849103D01*
X+8482419Y-862402D01*
X+8482419Y-875701D01*
X+8467457Y-889000D01*
X+8482419Y-902300D01*
X+8482419Y-915599D01*
X+8467457Y-928898D01*
X+8392650Y-928898D01*
X+8392650Y-889000D02*
X+8467457Y-889000D01*
X+8512342Y-875701D02*
X+8542265Y-849103D01*
X+8572188Y-849103D01*
X+8602111Y-875701D01*
X+8602111Y-902300D01*
X+8572188Y-928898D01*
X+8542265Y-928898D01*
X+8512342Y-902300D01*
X+8512342Y-875701D01*
X+8632034Y-849103D02*
X+8721803Y-849103D01*
X+8676918Y-849103D02*
X+8676918Y-928898D01*
X+8751726Y-875701D02*
X+8781649Y-849103D01*
X+8811572Y-849103D01*
X+8841495Y-875701D01*
X+8841495Y-902300D01*
X+8811572Y-928898D01*
X+8781649Y-928898D01*
X+8751726Y-902300D01*
X+8751726Y-875701D01*
X+8871418Y-928898D02*
X+8871418Y-849103D01*
X+8961187Y-928898D01*
X+8961187Y-849103D01*
D21*
X+6769100Y-723900D02*
X+7962900Y-723900D01*
X+7962900Y-546100D01*
X+6769100Y-546100D01*
X+6769100Y-723900D01*
D38*
X+7874000Y-635000D02*
X+7874000Y-635000D01*
D39*
X+7154952Y-668071D02*
X+7154952Y-601930D01*
X+7216959Y-601930D01*
X+7229361Y-612953D01*
X+7229361Y-623977D01*
X+7216959Y-635000D01*
X+7154952Y-635000D01*
X+7216959Y-635000D02*
X+7229361Y-646024D01*
X+7229361Y-668071D01*
X+7266565Y-612953D02*
X+7278967Y-601930D01*
X+7316171Y-601930D01*
X+7328573Y-612953D01*
X+7328573Y-623977D01*
X+7316171Y-635000D01*
X+7278967Y-635000D01*
X+7266565Y-646024D01*
X+7266565Y-668071D01*
X+7328573Y-668071D01*
X+7353376Y-657048D02*
X+7353376Y-612953D01*
X+7365777Y-601930D01*
X+7415383Y-601930D01*
X+7427785Y-612953D01*
X+7427785Y-657048D01*
X+7415383Y-668071D01*
X+7365777Y-668071D01*
X+7353376Y-657048D01*
X+7353376Y-668071D02*
X+7427785Y-601930D01*
D21*
X+6769100Y-977900D02*
X+7962900Y-977900D01*
X+7962900Y-800100D01*
X+6769100Y-800100D01*
X+6769100Y-977900D01*
D38*
X+6858000Y-889000D02*
X+6858000Y-889000D01*
D39*
X+7279412Y-922071D02*
X+7279412Y-855930D01*
X+7341419Y-855930D01*
X+7353821Y-866953D01*
X+7353821Y-877977D01*
X+7341419Y-889000D01*
X+7279412Y-889000D01*
X+7341419Y-889000D02*
X+7353821Y-900024D01*
X+7353821Y-922071D01*
X+7391025Y-866953D02*
X+7403427Y-855930D01*
X+7440631Y-855930D01*
X+7453033Y-866953D01*
X+7453033Y-877977D01*
X+7440631Y-889000D01*
X+7403427Y-889000D01*
X+7391025Y-900024D01*
X+7391025Y-922071D01*
X+7453033Y-922071D01*
X+7502639Y-877977D02*
X+7527442Y-855930D01*
X+7527442Y-922071D01*
D21*
X+4561840Y+624840D02*
X+5598160Y+624840D01*
X+5598160Y+1153160D01*
X+4561840Y+1153160D01*
X+4561840Y+624840D01*
D43*
X+4826000Y+889000D02*
X+4826000Y+889000D01*
D55*
X+5019041Y+960119D02*
X+5179060Y+817880D01*
X+5019041Y+817880D02*
X+5179060Y+960119D01*
X+5285739Y+912706D02*
X+5339079Y+960119D01*
X+5339079Y+817880D01*
D21*
X+6339840Y-137160D02*
X+6614160Y-137160D01*
X+6614160Y+391160D01*
X+6339840Y+391160D01*
X+6339840Y-137160D01*
D38*
X+6477000Y+0D02*
X+6477000Y+0D01*
D42*
X+6499352Y+188214D02*
X+6510528Y+175641D01*
X+6510528Y+137922D01*
X+6488176Y+112776D01*
X+6465824Y+112776D01*
X+6443472Y+137922D01*
X+6443472Y+175641D01*
X+6454648Y+188214D01*
X+6454648Y+225933D02*
X+6443472Y+238506D01*
X+6443472Y+276225D01*
X+6454648Y+288798D01*
X+6465824Y+288798D01*
X+6477000Y+276225D01*
X+6477000Y+238506D01*
X+6488176Y+225933D01*
X+6510528Y+225933D01*
X+6510528Y+288798D01*
D21*
X+6720840Y-137160D02*
X+6995160Y-137160D01*
X+6995160Y+391160D01*
X+6720840Y+391160D01*
X+6720840Y-137160D01*
D38*
X+6858000Y+254000D02*
X+6858000Y+254000D01*
D42*
X+6880352Y+15494D02*
X+6891528Y+2921D01*
X+6891528Y-34798D01*
X+6869176Y-59944D01*
X+6846824Y-59944D01*
X+6824472Y-34798D01*
X+6824472Y+2921D01*
X+6835648Y+15494D01*
X+6835648Y+53213D02*
X+6824472Y+65786D01*
X+6824472Y+103505D01*
X+6835648Y+116078D01*
X+6846824Y+116078D01*
X+6858000Y+103505D01*
X+6869176Y+116078D01*
X+6880352Y+116078D01*
X+6891528Y+103505D01*
X+6891528Y+65786D01*
X+6880352Y+53213D01*
X+6858000Y+78359D02*
X+6858000Y+103505D01*
D21*
X+5704840Y+2783840D02*
X+6233160Y+2783840D01*
X+6233160Y+3058160D01*
X+5704840Y+3058160D01*
X+5704840Y+2783840D01*
D43*
X+6096000Y+2921000D02*
X+6096000Y+2921000D01*
D39*
X+5731512Y+2954019D02*
X+5731512Y+2887980D01*
X+5805806Y+2887980D01*
X+5830571Y+2898986D02*
X+5842953Y+2887980D01*
X+5892482Y+2887980D01*
X+5904865Y+2898986D01*
X+5904865Y+2909993D01*
X+5892482Y+2921000D01*
X+5842953Y+2921000D01*
X+5830571Y+2932006D01*
X+5830571Y+2943013D01*
X+5842953Y+2954019D01*
X+5892482Y+2954019D01*
X+5904865Y+2943013D01*
X+5954394Y+2932006D02*
X+5979159Y+2954019D01*
X+5979159Y+2887980D01*
D21*
X+5443220Y-3289300D02*
X+5730240Y-3289300D01*
X+5730240Y-2044700D01*
X+5443220Y-2044700D01*
X+5443220Y-3289300D01*
D40*
X+5588000Y-3175000D02*
X+5588000Y-3175000D01*
D41*
X+5642737Y-2755011D02*
X+5530723Y-2755011D01*
X+5530723Y-2671001D01*
X+5568061Y-2628996D01*
X+5605399Y-2628996D01*
X+5642737Y-2671001D01*
X+5642737Y-2755011D01*
X+5568061Y-2544985D02*
X+5530723Y-2502980D01*
X+5642737Y-2502980D01*
D21*
X+2141220Y-2273300D02*
X+2428240Y-2273300D01*
X+2428240Y-1028700D01*
X+2141220Y-1028700D01*
X+2141220Y-2273300D01*
D40*
X+2286000Y-2159000D02*
X+2286000Y-2159000D01*
D41*
X+2340737Y-1739011D02*
X+2228723Y-1739011D01*
X+2228723Y-1655001D01*
X+2266061Y-1612996D01*
X+2303399Y-1612996D01*
X+2340737Y-1655001D01*
X+2340737Y-1739011D01*
X+2247392Y-1549988D02*
X+2228723Y-1528985D01*
X+2228723Y-1465977D01*
X+2247392Y-1444975D01*
X+2266061Y-1444975D01*
X+2284730Y-1465977D01*
X+2284730Y-1528985D01*
X+2303399Y-1549988D01*
X+2340737Y-1549988D01*
X+2340737Y-1444975D01*
D21*
X+8331400Y-2231600D02*
X+9194600Y-2231600D01*
X+9194600Y-1578400D01*
X+8331400Y-1578400D01*
X+8331400Y-2231600D01*
D43*
X+9093000Y-1680000D02*
X+9093000Y-1680000D01*
D56*
X+8389081Y-1933838D02*
X+8389081Y-1876162D01*
X+8443152Y-1876162D01*
X+8453966Y-1885775D01*
X+8453966Y-1895387D01*
X+8443152Y-1905000D01*
X+8453966Y-1914613D01*
X+8453966Y-1924225D01*
X+8443152Y-1933838D01*
X+8389081Y-1933838D01*
X+8389081Y-1905000D02*
X+8443152Y-1905000D01*
X+8475595Y-1895387D02*
X+8497223Y-1876162D01*
X+8518852Y-1876162D01*
X+8540480Y-1895387D01*
X+8540480Y-1914613D01*
X+8518852Y-1933838D01*
X+8497223Y-1933838D01*
X+8475595Y-1914613D01*
X+8475595Y-1895387D01*
X+8562109Y-1876162D02*
X+8626994Y-1876162D01*
X+8594551Y-1876162D02*
X+8594551Y-1933838D01*
X+8648623Y-1895387D02*
X+8670251Y-1876162D01*
X+8691880Y-1876162D01*
X+8713508Y-1895387D01*
X+8713508Y-1914613D01*
X+8691880Y-1933838D01*
X+8670251Y-1933838D01*
X+8648623Y-1914613D01*
X+8648623Y-1895387D01*
X+8735137Y-1933838D02*
X+8735137Y-1876162D01*
X+8800022Y-1933838D01*
X+8800022Y-1876162D01*
X+8918979Y-1885775D02*
X+8929793Y-1876162D01*
X+8962236Y-1876162D01*
X+8973050Y-1885775D01*
X+8973050Y-1895387D01*
X+8962236Y-1905000D01*
X+8929793Y-1905000D01*
X+8918979Y-1914613D01*
X+8918979Y-1933838D01*
X+8973050Y-1933838D01*
D21*
X+6769100Y-1231900D02*
X+7962900Y-1231900D01*
X+7962900Y-1054100D01*
X+6769100Y-1054100D01*
X+6769100Y-1231900D01*
D38*
X+6858000Y-1143000D02*
X+6858000Y-1143000D01*
D39*
X+7279412Y-1176071D02*
X+7279412Y-1109930D01*
X+7341419Y-1109930D01*
X+7353821Y-1120953D01*
X+7353821Y-1131977D01*
X+7341419Y-1143000D01*
X+7279412Y-1143000D01*
X+7341419Y-1143000D02*
X+7353821Y-1154024D01*
X+7353821Y-1176071D01*
X+7403427Y-1131977D02*
X+7428230Y-1109930D01*
X+7428230Y-1176071D01*
X+7502639Y-1131977D02*
X+7527442Y-1109930D01*
X+7527442Y-1176071D01*
D21*
X+6769100Y-469900D02*
X+7962900Y-469900D01*
X+7962900Y-292100D01*
X+6769100Y-292100D01*
X+6769100Y-469900D01*
D38*
X+6858000Y-381000D02*
X+6858000Y-381000D01*
D39*
X+7279412Y-414071D02*
X+7279412Y-347930D01*
X+7341419Y-347930D01*
X+7353821Y-358953D01*
X+7353821Y-369977D01*
X+7341419Y-381000D01*
X+7279412Y-381000D01*
X+7341419Y-381000D02*
X+7353821Y-392024D01*
X+7353821Y-414071D01*
X+7391025Y-358953D02*
X+7403427Y-347930D01*
X+7440631Y-347930D01*
X+7453033Y-358953D01*
X+7453033Y-369977D01*
X+7440631Y-381000D01*
X+7403427Y-381000D01*
X+7391025Y-392024D01*
X+7391025Y-414071D01*
X+7453033Y-414071D01*
X+7552245Y-392024D02*
X+7477836Y-392024D01*
X+7527442Y-347930D01*
X+7527442Y-414071D01*
D21*
X+6769100Y-1485900D02*
X+7962900Y-1485900D01*
X+7962900Y-1308100D01*
X+6769100Y-1308100D01*
X+6769100Y-1485900D01*
D38*
X+7874000Y-1397000D02*
X+7874000Y-1397000D01*
D39*
X+7154952Y-1430071D02*
X+7154952Y-1363930D01*
X+7216959Y-1363930D01*
X+7229361Y-1374953D01*
X+7229361Y-1385977D01*
X+7216959Y-1397000D01*
X+7154952Y-1397000D01*
X+7216959Y-1397000D02*
X+7229361Y-1408024D01*
X+7229361Y-1430071D01*
X+7266565Y-1374953D02*
X+7278967Y-1363930D01*
X+7316171Y-1363930D01*
X+7328573Y-1374953D01*
X+7328573Y-1385977D01*
X+7316171Y-1397000D01*
X+7278967Y-1397000D01*
X+7266565Y-1408024D01*
X+7266565Y-1430071D01*
X+7328573Y-1430071D01*
X+7427785Y-1363930D02*
X+7365777Y-1363930D01*
X+7365777Y-1385977D01*
X+7415383Y-1385977D01*
X+7427785Y-1397000D01*
X+7427785Y-1419048D01*
X+7415383Y-1430071D01*
X+7378179Y-1430071D01*
X+7365777Y-1419048D01*
D21*
X+5118100Y+2578100D02*
X+5295900Y+2578100D01*
X+5295900Y+3771900D01*
X+5118100Y+3771900D01*
X+5118100Y+2578100D01*
D38*
X+5207000Y+2667000D02*
X+5207000Y+2667000D01*
D39*
X+5240071Y+3088412D02*
X+5173930Y+3088412D01*
X+5173930Y+3150419D01*
X+5184953Y+3162821D01*
X+5195977Y+3162821D01*
X+5207000Y+3150419D01*
X+5207000Y+3088412D01*
X+5207000Y+3150419D02*
X+5218024Y+3162821D01*
X+5240071Y+3162821D01*
X+5184953Y+3200025D02*
X+5173930Y+3212427D01*
X+5173930Y+3249631D01*
X+5184953Y+3262033D01*
X+5195977Y+3262033D01*
X+5207000Y+3249631D01*
X+5207000Y+3212427D01*
X+5218024Y+3200025D01*
X+5240071Y+3200025D01*
X+5240071Y+3262033D01*
X+5184953Y+3361245D02*
X+5173930Y+3348843D01*
X+5173930Y+3311639D01*
X+5184953Y+3299237D01*
X+5229048Y+3299237D01*
X+5240071Y+3311639D01*
X+5240071Y+3348843D01*
X+5229048Y+3361245D01*
X+5218024Y+3361245D01*
X+5207000Y+3348843D01*
X+5207000Y+3299237D01*
D21*
X+6896100Y+2451100D02*
X+7073900Y+2451100D01*
X+7073900Y+3644900D01*
X+6896100Y+3644900D01*
X+6896100Y+2451100D01*
D38*
X+6985000Y+2540000D02*
X+6985000Y+2540000D01*
D39*
X+7018071Y+2961412D02*
X+6951930Y+2961412D01*
X+6951930Y+3023419D01*
X+6962953Y+3035821D01*
X+6973977Y+3035821D01*
X+6985000Y+3023419D01*
X+6985000Y+2961412D01*
X+6985000Y+3023419D02*
X+6996024Y+3035821D01*
X+7018071Y+3035821D01*
X+6962953Y+3073025D02*
X+6951930Y+3085427D01*
X+6951930Y+3122631D01*
X+6962953Y+3135033D01*
X+6973977Y+3135033D01*
X+6985000Y+3122631D01*
X+6985000Y+3085427D01*
X+6996024Y+3073025D01*
X+7018071Y+3073025D01*
X+7018071Y+3135033D01*
X+6951930Y+3172237D02*
X+6951930Y+3234245D01*
X+6962953Y+3234245D01*
X+7018071Y+3172237D01*
D21*
X+6515100Y+2451100D02*
X+6692900Y+2451100D01*
X+6692900Y+3644900D01*
X+6515100Y+3644900D01*
X+6515100Y+2451100D01*
D38*
X+6604000Y+2540000D02*
X+6604000Y+2540000D01*
D39*
X+6637071Y+2961412D02*
X+6570930Y+2961412D01*
X+6570930Y+3023419D01*
X+6581953Y+3035821D01*
X+6592977Y+3035821D01*
X+6604000Y+3023419D01*
X+6604000Y+2961412D01*
X+6604000Y+3023419D02*
X+6615024Y+3035821D01*
X+6637071Y+3035821D01*
X+6581953Y+3073025D02*
X+6570930Y+3085427D01*
X+6570930Y+3122631D01*
X+6581953Y+3135033D01*
X+6592977Y+3135033D01*
X+6604000Y+3122631D01*
X+6615024Y+3135033D01*
X+6626048Y+3135033D01*
X+6637071Y+3122631D01*
X+6637071Y+3085427D01*
X+6626048Y+3073025D01*
X+6604000Y+3097828D02*
X+6604000Y+3122631D01*
X+6581953Y+3172237D02*
X+6570930Y+3184639D01*
X+6570930Y+3221843D01*
X+6581953Y+3234245D01*
X+6592977Y+3234245D01*
X+6604000Y+3221843D01*
X+6604000Y+3184639D01*
X+6615024Y+3172237D01*
X+6637071Y+3172237D01*
X+6637071Y+3234245D01*
D21*
X+8039100Y+2197100D02*
X+8216900Y+2197100D01*
X+8216900Y+3390900D01*
X+8039100Y+3390900D01*
X+8039100Y+2197100D01*
D38*
X+8128000Y+2286000D02*
X+8128000Y+2286000D01*
D39*
X+8161071Y+2707412D02*
X+8094930Y+2707412D01*
X+8094930Y+2769419D01*
X+8105953Y+2781821D01*
X+8116977Y+2781821D01*
X+8128000Y+2769419D01*
X+8128000Y+2707412D01*
X+8128000Y+2769419D02*
X+8139024Y+2781821D01*
X+8161071Y+2781821D01*
X+8105953Y+2819025D02*
X+8094930Y+2831427D01*
X+8094930Y+2868631D01*
X+8105953Y+2881033D01*
X+8116977Y+2881033D01*
X+8128000Y+2868631D01*
X+8139024Y+2881033D01*
X+8150048Y+2881033D01*
X+8161071Y+2868631D01*
X+8161071Y+2831427D01*
X+8150048Y+2819025D01*
X+8128000Y+2843828D02*
X+8128000Y+2868631D01*
X+8105953Y+2918237D02*
X+8094930Y+2930639D01*
X+8094930Y+2967843D01*
X+8105953Y+2980245D01*
X+8116977Y+2980245D01*
X+8128000Y+2967843D01*
X+8139024Y+2980245D01*
X+8150048Y+2980245D01*
X+8161071Y+2967843D01*
X+8161071Y+2930639D01*
X+8150048Y+2918237D01*
X+8128000Y+2943040D02*
X+8128000Y+2967843D01*
M02*
