G04 PROTEUS GERBER X2 FILE*
%TF.GenerationSoftware,Labcenter,Proteus,8.15-SP1-Build34318*%
%TF.CreationDate,2023-09-22T11:03:57+00:00*%
%TF.FileFunction,Soldermask,Top*%
%TF.FilePolarity,Negative*%
%TF.Part,Single*%
%TF.SameCoordinates,{3b519ea3-0d73-4d6d-96f8-eb606e8d3f04}*%
%FSLAX45Y45*%
%MOMM*%
G01*
%TA.AperFunction,Material*%
%ADD25C,1.016000*%
%AMPPAD018*
4,1,36,
0.762000,0.635000,
0.762000,-0.635000,
0.759470,-0.660970,
0.752200,-0.684980,
0.740650,-0.706580,
0.725290,-0.725290,
0.706570,-0.740650,
0.684980,-0.752200,
0.660970,-0.759470,
0.635000,-0.762000,
-0.635000,-0.762000,
-0.660970,-0.759470,
-0.684980,-0.752200,
-0.706570,-0.740650,
-0.725290,-0.725290,
-0.740650,-0.706580,
-0.752200,-0.684980,
-0.759470,-0.660970,
-0.762000,-0.635000,
-0.762000,0.635000,
-0.759470,0.660970,
-0.752200,0.684980,
-0.740650,0.706580,
-0.725290,0.725290,
-0.706570,0.740650,
-0.684980,0.752200,
-0.660970,0.759470,
-0.635000,0.762000,
0.635000,0.762000,
0.660970,0.759470,
0.684980,0.752200,
0.706570,0.740650,
0.725290,0.725290,
0.740650,0.706580,
0.752200,0.684980,
0.759470,0.660970,
0.762000,0.635000,
0*%
%TA.AperFunction,Material*%
%ADD26PPAD018*%
%ADD27C,1.524000*%
%TA.AperFunction,Material*%
%ADD28C,2.794000*%
%ADD29C,2.032000*%
%ADD72C,2.540000*%
%ADD73C,2.286000*%
%AMPPAD024*
4,1,36,
1.016000,-1.143000,
-1.016000,-1.143000,
-1.041970,-1.140470,
-1.065980,-1.133200,
-1.087580,-1.121650,
-1.106290,-1.106290,
-1.121650,-1.087570,
-1.133200,-1.065980,
-1.140470,-1.041970,
-1.143000,-1.016000,
-1.143000,1.016000,
-1.140470,1.041970,
-1.133200,1.065980,
-1.121650,1.087570,
-1.106290,1.106290,
-1.087580,1.121650,
-1.065980,1.133200,
-1.041970,1.140470,
-1.016000,1.143000,
1.016000,1.143000,
1.041970,1.140470,
1.065980,1.133200,
1.087580,1.121650,
1.106290,1.106290,
1.121650,1.087570,
1.133200,1.065980,
1.140470,1.041970,
1.143000,1.016000,
1.143000,-1.016000,
1.140470,-1.041970,
1.133200,-1.065980,
1.121650,-1.087570,
1.106290,-1.106290,
1.087580,-1.121650,
1.065980,-1.133200,
1.041970,-1.140470,
1.016000,-1.143000,
0*%
%TA.AperFunction,Material*%
%ADD30PPAD024*%
%ADD31C,3.302000*%
%AMPPAD026*
4,1,36,
-0.635000,0.762000,
0.635000,0.762000,
0.660970,0.759470,
0.684980,0.752200,
0.706580,0.740650,
0.725290,0.725290,
0.740650,0.706570,
0.752200,0.684980,
0.759470,0.660970,
0.762000,0.635000,
0.762000,-0.635000,
0.759470,-0.660970,
0.752200,-0.684980,
0.740650,-0.706570,
0.725290,-0.725290,
0.706580,-0.740650,
0.684980,-0.752200,
0.660970,-0.759470,
0.635000,-0.762000,
-0.635000,-0.762000,
-0.660970,-0.759470,
-0.684980,-0.752200,
-0.706580,-0.740650,
-0.725290,-0.725290,
-0.740650,-0.706570,
-0.752200,-0.684980,
-0.759470,-0.660970,
-0.762000,-0.635000,
-0.762000,0.635000,
-0.759470,0.660970,
-0.752200,0.684980,
-0.740650,0.706570,
-0.725290,0.725290,
-0.706580,0.740650,
-0.684980,0.752200,
-0.660970,0.759470,
-0.635000,0.762000,
0*%
%TA.AperFunction,Material*%
%ADD32PPAD026*%
%AMPPAD027*
4,1,36,
-1.143000,-1.016000,
-1.143000,1.016000,
-1.140470,1.041970,
-1.133200,1.065980,
-1.121650,1.087580,
-1.106290,1.106290,
-1.087570,1.121650,
-1.065980,1.133200,
-1.041970,1.140470,
-1.016000,1.143000,
1.016000,1.143000,
1.041970,1.140470,
1.065980,1.133200,
1.087570,1.121650,
1.106290,1.106290,
1.121650,1.087580,
1.133200,1.065980,
1.140470,1.041970,
1.143000,1.016000,
1.143000,-1.016000,
1.140470,-1.041970,
1.133200,-1.065980,
1.121650,-1.087580,
1.106290,-1.106290,
1.087570,-1.121650,
1.065980,-1.133200,
1.041970,-1.140470,
1.016000,-1.143000,
-1.016000,-1.143000,
-1.041970,-1.140470,
-1.065980,-1.133200,
-1.087570,-1.121650,
-1.106290,-1.106290,
-1.121650,-1.087580,
-1.133200,-1.065980,
-1.140470,-1.041970,
-1.143000,-1.016000,
0*%
%TA.AperFunction,Material*%
%ADD33PPAD027*%
%TA.AperFunction,Profile*%
%ADD20C,0.203200*%
%TD.AperFunction*%
D25*
X+2032000Y+889000D03*
X+1215012Y+894935D03*
X+5675690Y+370808D03*
X+6139341Y+824379D03*
X+4383357Y+706299D03*
X+2972246Y+706299D03*
X+5382228Y-1022430D03*
X+4490013Y-483886D03*
X+3810000Y+889000D03*
X+3798747Y+311874D03*
X+4964254Y-1239455D03*
X+5461000Y-3556000D03*
X+6096000Y-3556000D03*
X+3534128Y+2051467D03*
X+6237955Y+4441493D03*
D26*
X+4191000Y-1524000D03*
D27*
X+4191000Y-1778000D03*
X+4191000Y-2032000D03*
X+4191000Y-2286000D03*
X+4191000Y-2540000D03*
X+4191000Y-2794000D03*
X+4191000Y-3048000D03*
X+4953000Y-3048000D03*
X+4953000Y-2794000D03*
X+4953000Y-2540000D03*
X+4953000Y-2286000D03*
X+4953000Y-2032000D03*
X+4953000Y-1778000D03*
X+4953000Y-1524000D03*
D28*
X+3302000Y+0D03*
X+4826000Y+0D03*
D29*
X+6604000Y-1778000D03*
X+5588000Y-1778000D03*
X+5588000Y-1524000D03*
X+6604000Y-1524000D03*
X+1524000Y+0D03*
X+2540000Y+0D03*
X+2540000Y+254000D03*
X+1524000Y+254000D03*
D72*
X+1524000Y+635000D03*
X+2540000Y+635000D03*
D29*
X+2540000Y-508000D03*
X+2286000Y-508000D03*
D73*
X+1778000Y+1270000D03*
X+1524000Y+1270000D03*
D29*
X+1778000Y+1778000D03*
X+1524000Y+1778000D03*
X+1524000Y+2159000D03*
X+1778000Y+2159000D03*
X+2794000Y-2286000D03*
X+3810000Y-2286000D03*
X+3302000Y-2921000D03*
X+3302000Y-2667000D03*
D73*
X+2794000Y-2667000D03*
X+2794000Y-2921000D03*
D29*
X+3810000Y-1778000D03*
X+2794000Y-1778000D03*
X+2794000Y-2032000D03*
X+3810000Y-2032000D03*
X+3683000Y-1143000D03*
X+3175000Y-1143000D03*
X+2794000Y-1524000D03*
X+3810000Y-1524000D03*
D73*
X+3302000Y-762000D03*
X+3556000Y-762000D03*
X+3810000Y-762000D03*
D30*
X+1524000Y-4826000D03*
X+1270000Y-4826000D03*
X+1016000Y-4826000D03*
X+3175000Y-4826000D03*
X+2921000Y-4826000D03*
X+2667000Y-4826000D03*
D31*
X+5080000Y-4572000D03*
X+4572000Y-4572000D03*
X+4064000Y-4572000D03*
D29*
X+3810000Y-3556000D03*
X+2540000Y-3556000D03*
X+3810000Y-3810000D03*
X+2540000Y-3810000D03*
D26*
X+3429000Y+1524000D03*
D27*
X+3683000Y+1524000D03*
X+3937000Y+1524000D03*
X+4191000Y+1524000D03*
X+4445000Y+1524000D03*
X+4699000Y+1524000D03*
X+4953000Y+1524000D03*
X+5207000Y+1524000D03*
X+5461000Y+1524000D03*
X+5715000Y+1524000D03*
X+5969000Y+1524000D03*
X+6223000Y+1524000D03*
X+6477000Y+1524000D03*
X+6731000Y+1524000D03*
X+6731000Y+2286000D03*
X+6477000Y+2286000D03*
X+6223000Y+2286000D03*
X+5969000Y+2286000D03*
X+5715000Y+2286000D03*
X+5461000Y+2286000D03*
X+5207000Y+2286000D03*
X+4953000Y+2286000D03*
X+4699000Y+2286000D03*
X+4445000Y+2286000D03*
X+4191000Y+2286000D03*
X+3937000Y+2286000D03*
X+3683000Y+2286000D03*
X+3431000Y+2286000D03*
D30*
X+1651000Y+3556000D03*
X+1905000Y+3556000D03*
X+2159000Y+3556000D03*
D72*
X-254000Y+2667000D03*
X+762000Y+2667000D03*
D30*
X+127000Y+2159000D03*
X+381000Y+2159000D03*
D72*
X+762000Y+3048000D03*
X-254000Y+3048000D03*
D29*
X-635000Y+2159000D03*
X-635000Y+3175000D03*
X+2159000Y+2159000D03*
X+2413000Y+2159000D03*
D73*
X+2413000Y+1651000D03*
X+2159000Y+1651000D03*
D32*
X+3810000Y+3302000D03*
D27*
X+4064000Y+3302000D03*
X+4318000Y+3302000D03*
X+4318000Y+4064000D03*
X+4064000Y+4064000D03*
X+3810000Y+4064000D03*
D29*
X+3175000Y+2794000D03*
X+2159000Y+2794000D03*
X+2159000Y+3048000D03*
X+3175000Y+3048000D03*
D72*
X+4826000Y+2794000D03*
X+3810000Y+2794000D03*
D33*
X+8890000Y+3048000D03*
X+8890000Y+3302000D03*
X+8890000Y+2413000D03*
X+8890000Y+2667000D03*
X+8890000Y+1778000D03*
X+8890000Y+2032000D03*
X+8890000Y+1143000D03*
X+8890000Y+1397000D03*
X+8890000Y+508000D03*
X+8890000Y+762000D03*
X+8890000Y-127000D03*
X+8890000Y+127000D03*
D73*
X+8382000Y+5334000D03*
X+8382000Y+5080000D03*
X+8382000Y+4826000D03*
X+8382000Y+4572000D03*
X+8382000Y+4318000D03*
D29*
X+7112000Y+1778000D03*
X+8128000Y+1778000D03*
X+7112000Y+1524000D03*
X+8128000Y+1524000D03*
X+7112000Y+1270000D03*
X+8128000Y+1270000D03*
X+7112000Y+762000D03*
X+8128000Y+762000D03*
X+7112000Y+1016000D03*
X+8128000Y+1016000D03*
D73*
X+9093000Y-664000D03*
X+8433000Y-664000D03*
X+9093000Y-1114000D03*
X+8433000Y-1114000D03*
D29*
X+7874000Y-635000D03*
X+6858000Y-635000D03*
X+6858000Y-889000D03*
X+7874000Y-889000D03*
D73*
X+4826000Y+889000D03*
X+5334000Y+889000D03*
D29*
X+6477000Y+0D03*
X+6477000Y+254000D03*
X+6858000Y+254000D03*
X+6858000Y+0D03*
D30*
X+6096000Y+2921000D03*
X+5842000Y+2921000D03*
D72*
X+5588000Y-2159000D03*
X+5588000Y-3175000D03*
X+2286000Y-1143000D03*
X+2286000Y-2159000D03*
D73*
X+9093000Y-1680000D03*
X+8433000Y-1680000D03*
X+9093000Y-2130000D03*
X+8433000Y-2130000D03*
D29*
X+6858000Y-1143000D03*
X+7874000Y-1143000D03*
X+6858000Y-381000D03*
X+7874000Y-381000D03*
X+7874000Y-1397000D03*
X+6858000Y-1397000D03*
X+5207000Y+2667000D03*
X+5207000Y+3683000D03*
X+6985000Y+2540000D03*
X+6985000Y+3556000D03*
X+6604000Y+2540000D03*
X+6604000Y+3556000D03*
X+8128000Y+2286000D03*
X+8128000Y+3302000D03*
D20*
X-1143000Y-5496560D02*
X+9687560Y-5496560D01*
X+9687560Y+5969000D01*
X-1143000Y+5969000D01*
X-1143000Y-5496560D01*
M02*
