G04 PROTEUS GERBER X2 FILE*
%TF.GenerationSoftware,Labcenter,Proteus,8.15-SP1-Build34318*%
%TF.CreationDate,2023-09-22T11:03:57+00:00*%
%TF.FileFunction,Copper,L2,Bot*%
%TF.FilePolarity,Positive*%
%TF.Part,Single*%
%TF.SameCoordinates,{3b519ea3-0d73-4d6d-96f8-eb606e8d3f04}*%
%FSLAX45Y45*%
%MOMM*%
G01*
%TA.AperFunction,Conductor*%
%ADD10C,1.016000*%
%ADD11C,1.270000*%
%TA.AperFunction,ViaPad*%
%ADD12C,0.762000*%
%TA.AperFunction,ComponentPad*%
%ADD14R,1.270000X1.270000*%
%ADD15C,1.270000*%
%TA.AperFunction,ComponentPad*%
%ADD16C,2.540000*%
%ADD17C,1.778000*%
%ADD18C,2.286000*%
%ADD19C,2.032000*%
%TA.AperFunction,ComponentPad*%
%ADD70R,2.032000X2.032000*%
%ADD71C,3.048000*%
%TA.AperFunction,Profile*%
%ADD20C,0.203200*%
%TD.AperFunction*%
%TA.AperFunction,Conductor*%
G36*
X+9525000Y-5334000D02*
X+3787663Y-5334000D01*
X+4267199Y-4854464D01*
X+4267199Y-4799852D01*
X+4318000Y-4749051D01*
X+4445748Y-4876799D01*
X+4571473Y-4876799D01*
X+4752634Y-5057960D01*
X+5241479Y-5057960D01*
X+6018274Y-4281165D01*
X+6018274Y-3759199D01*
X+6180168Y-3759199D01*
X+6299199Y-3640168D01*
X+6299199Y-2606540D01*
X+7647745Y-1257994D01*
X+7659751Y-1270001D01*
X+7632701Y-1297051D01*
X+7632701Y-1496949D01*
X+7774051Y-1638299D01*
X+7973949Y-1638299D01*
X+8115299Y-1496949D01*
X+8115299Y-1297051D01*
X+8088248Y-1270000D01*
X+8115299Y-1242949D01*
X+8115299Y-1092199D01*
X+8123833Y-1092199D01*
X+8179001Y-1147367D01*
X+8179001Y-1219210D01*
X+8327790Y-1367999D01*
X+8538210Y-1367999D01*
X+8686999Y-1219210D01*
X+8686999Y-1008790D01*
X+8567209Y-889000D01*
X+8686999Y-769210D01*
X+8686999Y-584199D01*
X+8839001Y-584199D01*
X+8839001Y-769210D01*
X+8958791Y-889000D01*
X+8839001Y-1008790D01*
X+8839001Y-1219210D01*
X+8987790Y-1367999D01*
X+9070366Y-1367999D01*
X+9070366Y-1426001D01*
X+8987790Y-1426001D01*
X+8839001Y-1574790D01*
X+8839001Y-1785210D01*
X+8958791Y-1905000D01*
X+8839001Y-2024790D01*
X+8839001Y-2235210D01*
X+8987790Y-2383999D01*
X+9198210Y-2383999D01*
X+9346999Y-2235210D01*
X+9346999Y-2163367D01*
X+9476764Y-2033602D01*
X+9476764Y-498238D01*
X+9156327Y-177801D01*
X+9143999Y-177801D01*
X+9143999Y+3555999D01*
X+8636001Y+3555999D01*
X+8636001Y+3251198D01*
X+8466167Y+3251198D01*
X+8369299Y+3348066D01*
X+8369299Y+3401949D01*
X+8227949Y+3543299D01*
X+8028051Y+3543299D01*
X+7886701Y+3401949D01*
X+7886701Y+3202051D01*
X+8028051Y+3060701D01*
X+8081933Y+3060701D01*
X+8297832Y+2844802D01*
X+8382000Y+2844802D01*
X+8636001Y+2844801D01*
X+8636001Y+2573367D01*
X+8369299Y+2306665D01*
X+8369299Y+2385949D01*
X+8331199Y+2424049D01*
X+8331199Y+2747294D01*
X+7016322Y+4062171D01*
X+6498557Y+4062171D01*
X+6792487Y+4356101D01*
X+8128001Y+4356101D01*
X+8128001Y+4212790D01*
X+8276790Y+4064001D01*
X+8487210Y+4064001D01*
X+8635999Y+4212790D01*
X+8635999Y+4423210D01*
X+8614209Y+4445000D01*
X+8635999Y+4466790D01*
X+8635999Y+4677210D01*
X+8614209Y+4699000D01*
X+8635999Y+4720790D01*
X+8635999Y+4931210D01*
X+8614209Y+4953000D01*
X+8635999Y+4974790D01*
X+8635999Y+5185210D01*
X+8614209Y+5207000D01*
X+8635999Y+5228790D01*
X+8635999Y+5439210D01*
X+8487210Y+5587999D01*
X+8276790Y+5587999D01*
X+8128001Y+5439210D01*
X+8128001Y+5228790D01*
X+8149791Y+5207000D01*
X+8128001Y+5185210D01*
X+8128001Y+4974790D01*
X+8149791Y+4953000D01*
X+8128001Y+4931210D01*
X+8128001Y+4787899D01*
X+6613633Y+4787899D01*
X+6396274Y+4570540D01*
X+6322123Y+4644692D01*
X+6127921Y+4644692D01*
X+5357238Y+3874009D01*
X+5306949Y+3924299D01*
X+5107051Y+3924299D01*
X+4965701Y+3782949D01*
X+4965701Y+3583051D01*
X+5070063Y+3478689D01*
X+5070063Y+3043385D01*
X+5011923Y+2985245D01*
X+4936470Y+3060699D01*
X+4715530Y+3060699D01*
X+4654098Y+2999267D01*
X+4487346Y+3166019D01*
X+4533899Y+3212572D01*
X+4533899Y+3391428D01*
X+4407428Y+3517899D01*
X+4228572Y+3517899D01*
X+4191000Y+3480327D01*
X+4153428Y+3517899D01*
X+3594101Y+3517899D01*
X+3594101Y+3373467D01*
X+3392441Y+3171807D01*
X+3378199Y+3186049D01*
X+3378199Y+3551115D01*
X+3697878Y+3870794D01*
X+3720572Y+3848101D01*
X+3899428Y+3848101D01*
X+3937000Y+3885673D01*
X+3974572Y+3848101D01*
X+4153428Y+3848101D01*
X+4191000Y+3885673D01*
X+4228572Y+3848101D01*
X+4407428Y+3848101D01*
X+4533899Y+3974572D01*
X+4533899Y+4153428D01*
X+4407428Y+4279899D01*
X+4228572Y+4279899D01*
X+4191000Y+4242327D01*
X+4153428Y+4279899D01*
X+4135467Y+4279899D01*
X+3983728Y+4431638D01*
X+3683990Y+4431638D01*
X+2971801Y+3719449D01*
X+2971801Y+3186049D01*
X+2933701Y+3147949D01*
X+2933701Y+2948051D01*
X+2960752Y+2921000D01*
X+2933701Y+2893949D01*
X+2933701Y+2694051D01*
X+3075051Y+2552701D01*
X+3209220Y+2552701D01*
X+3076158Y+2419639D01*
X+3076158Y+2119095D01*
X+3346985Y+1848268D01*
X+3465902Y+1848268D01*
X+3357533Y+1739899D01*
X+3213101Y+1739899D01*
X+3213101Y+1341467D01*
X+2963832Y+1092198D01*
X+1981199Y+1092198D01*
X+1981199Y+1113990D01*
X+2031999Y+1164790D01*
X+2031999Y+1375210D01*
X+1981198Y+1426011D01*
X+1981198Y+1469591D01*
X+2053790Y+1397001D01*
X+2264210Y+1397001D01*
X+2286000Y+1418791D01*
X+2307790Y+1397001D01*
X+2518210Y+1397001D01*
X+2666999Y+1545790D01*
X+2666999Y+1617633D01*
X+2870199Y+1820833D01*
X+2870199Y+3894167D01*
X+2734551Y+4029815D01*
X+1374553Y+4029815D01*
X+659437Y+3314699D01*
X+651530Y+3314699D01*
X+495301Y+3158470D01*
X+495301Y+2937530D01*
X+562632Y+2870199D01*
X+211167Y+2870199D01*
X+12699Y+3068667D01*
X+12699Y+3158470D01*
X-143530Y+3314699D01*
X-233333Y+3314699D01*
X-296832Y+3378198D01*
X-496951Y+3378198D01*
X-535051Y+3416299D01*
X-734949Y+3416299D01*
X-876299Y+3274949D01*
X-876299Y+3075051D01*
X-734949Y+2933701D01*
X-535051Y+2933701D01*
X-520699Y+2948053D01*
X-520699Y+2937530D01*
X-440669Y+2857500D01*
X-520699Y+2777470D01*
X-520699Y+2556530D01*
X-364470Y+2400301D01*
X-143530Y+2400301D01*
X-18599Y+2525232D01*
X-16683Y+2523317D01*
X+42833Y+2463801D01*
X+588030Y+2463801D01*
X+651530Y+2400301D01*
X+872470Y+2400301D01*
X+935970Y+2463801D01*
X+1447801Y+2463801D01*
X+1447801Y+2400299D01*
X+1424051Y+2400299D01*
X+1282701Y+2258949D01*
X+1282701Y+2059051D01*
X+1373252Y+1968500D01*
X+1282701Y+1877949D01*
X+1282701Y+1678051D01*
X+1424051Y+1536701D01*
X+1574801Y+1536701D01*
X+1574801Y+1523999D01*
X+1418790Y+1523999D01*
X+1270001Y+1375210D01*
X+1270001Y+1164790D01*
X+1418790Y+1016001D01*
X+1574801Y+1016001D01*
X+1574801Y+901699D01*
X+1418211Y+901699D01*
X+1418211Y+979103D01*
X+1299180Y+1098134D01*
X+1130844Y+1098134D01*
X+1011813Y+979103D01*
X+1011813Y+478821D01*
X+1282701Y+207932D01*
X+1282701Y+154051D01*
X+1309752Y+127000D01*
X+1282701Y+99949D01*
X+1282701Y-99949D01*
X+1424051Y-241299D01*
X+1574801Y-241299D01*
X+1574801Y-1354168D01*
X+2144232Y-1923599D01*
X+2019301Y-2048530D01*
X+2019301Y-2269470D01*
X+2175530Y-2425699D01*
X+2396470Y-2425699D01*
X+2459971Y-2362198D01*
X+2497168Y-2362198D01*
X+2540000Y-2319366D01*
X+2552701Y-2332067D01*
X+2552701Y-2385949D01*
X+2634271Y-2467520D01*
X+2540001Y-2561790D01*
X+2540001Y-2772210D01*
X+2561791Y-2794000D01*
X+2540001Y-2815790D01*
X+2540001Y-3026210D01*
X+2688790Y-3174999D01*
X+2899210Y-3174999D01*
X+3047999Y-3026210D01*
X+3047999Y-2815790D01*
X+3026209Y-2794000D01*
X+3047999Y-2772210D01*
X+3047999Y-2700367D01*
X+3048000Y-2700366D01*
X+3060701Y-2713067D01*
X+3060701Y-2766949D01*
X+3087752Y-2794000D01*
X+3060701Y-2821051D01*
X+3060701Y-3020949D01*
X+3202051Y-3162299D01*
X+3401949Y-3162299D01*
X+3543299Y-3020949D01*
X+3543299Y-2821051D01*
X+3516248Y-2794000D01*
X+3543299Y-2766949D01*
X+3543299Y-2567051D01*
X+3465447Y-2489199D01*
X+3671951Y-2489199D01*
X+3710051Y-2527299D01*
X+3909949Y-2527299D01*
X+3948049Y-2489199D01*
X+3975101Y-2489199D01*
X+3975101Y-2629428D01*
X+3987801Y-2642128D01*
X+3987801Y-2691872D01*
X+3975101Y-2704572D01*
X+3975101Y-2883428D01*
X+4012673Y-2921000D01*
X+3975101Y-2958572D01*
X+3975101Y-3137428D01*
X+4021653Y-3183981D01*
X+3890933Y-3314701D01*
X+3710051Y-3314701D01*
X+3568701Y-3456051D01*
X+3568701Y-3655949D01*
X+3595752Y-3683000D01*
X+3568701Y-3710051D01*
X+3568701Y-3909949D01*
X+3710051Y-4051299D01*
X+3909949Y-4051299D01*
X+3948049Y-4013199D01*
X+4529167Y-4013199D01*
X+4783167Y-3759199D01*
X+5545168Y-3759199D01*
X+5586476Y-3717891D01*
X+5586476Y-4102311D01*
X+5313919Y-4374868D01*
X+5206252Y-4267201D01*
X+5062567Y-4267201D01*
X+4935612Y-4140246D01*
X+3248088Y-4140246D01*
X+2816333Y-4572001D01*
X+2413001Y-4572001D01*
X+2413001Y-5029052D01*
X+1777999Y-5029052D01*
X+1777999Y-4611319D01*
X+2389035Y-4000283D01*
X+2440051Y-4051299D01*
X+2639949Y-4051299D01*
X+2781299Y-3909949D01*
X+2781299Y-3710051D01*
X+2754248Y-3683000D01*
X+2781299Y-3655949D01*
X+2781299Y-3456051D01*
X+2639949Y-3314701D01*
X+2440051Y-3314701D01*
X+2298701Y-3456051D01*
X+2298701Y-3515885D01*
X+1320801Y-4493785D01*
X+1320801Y-4572001D01*
X+762001Y-4572001D01*
X+762001Y-5079999D01*
X+1081055Y-5079999D01*
X+1335056Y-5334000D01*
X-980440Y-5334000D01*
X-980440Y+5806440D01*
X+9525000Y+5806440D01*
X+9525000Y-5334000D01*
G37*
%TD.AperFunction*%
%LPC*%
G36*
X+634999Y+1905001D02*
X-126999Y+1905001D01*
X-126999Y+1955801D01*
X-496951Y+1955801D01*
X-535051Y+1917701D01*
X-734949Y+1917701D01*
X-876299Y+2059051D01*
X-876299Y+2258949D01*
X-734949Y+2400299D01*
X-535051Y+2400299D01*
X-496951Y+2362199D01*
X-126999Y+2362199D01*
X-126999Y+2412999D01*
X+634999Y+2412999D01*
X+634999Y+1905001D01*
G37*
G36*
X+8686999Y-1574790D02*
X+8686999Y-1785210D01*
X+8567209Y-1905000D01*
X+8686999Y-2024790D01*
X+8686999Y-2235210D01*
X+8538210Y-2383999D01*
X+8327790Y-2383999D01*
X+8179001Y-2235210D01*
X+8179001Y-2024790D01*
X+8298791Y-1905000D01*
X+8179001Y-1785210D01*
X+8179001Y-1574790D01*
X+8327790Y-1426001D01*
X+8538210Y-1426001D01*
X+8686999Y-1574790D01*
G37*
%LPD*%
%TA.AperFunction,Conductor*%
G36*
X+2463801Y+3251198D02*
X+2297049Y+3251198D01*
X+2258949Y+3289299D01*
X+2059051Y+3289299D01*
X+1917701Y+3147949D01*
X+1917701Y+2948051D01*
X+1944752Y+2921000D01*
X+1917701Y+2893949D01*
X+1917701Y+2694051D01*
X+2059051Y+2552701D01*
X+2258949Y+2552701D01*
X+2400299Y+2694051D01*
X+2400299Y+2844801D01*
X+2463801Y+2844801D01*
X+2463801Y+2400299D01*
X+2313051Y+2400299D01*
X+2286000Y+2373248D01*
X+2258949Y+2400299D01*
X+2059051Y+2400299D01*
X+1968500Y+2309748D01*
X+1877949Y+2400299D01*
X+1854199Y+2400299D01*
X+1854199Y+3302001D01*
X+2412999Y+3302001D01*
X+2412999Y+3623417D01*
X+2463801Y+3623417D01*
X+2463801Y+3251198D01*
G37*
%TD.AperFunction*%
%TA.AperFunction,Conductor*%
G36*
X+5371572Y+2070101D02*
X+5371573Y+2070101D01*
X+5532957Y+1908717D01*
X+6261581Y+1908717D01*
X+6430398Y+1739899D01*
X+6387572Y+1739899D01*
X+6350000Y+1702327D01*
X+6312428Y+1739899D01*
X+6133572Y+1739899D01*
X+6096000Y+1702327D01*
X+6058428Y+1739899D01*
X+5879572Y+1739899D01*
X+5842000Y+1702327D01*
X+5804428Y+1739899D01*
X+5625572Y+1739899D01*
X+5588000Y+1702327D01*
X+5550428Y+1739899D01*
X+5371572Y+1739899D01*
X+5333999Y+1702326D01*
X+5296428Y+1739899D01*
X+5117572Y+1739899D01*
X+5080000Y+1702327D01*
X+5042428Y+1739899D01*
X+4863572Y+1739899D01*
X+4825999Y+1702326D01*
X+4788428Y+1739899D01*
X+4609572Y+1739899D01*
X+4572000Y+1702327D01*
X+4534428Y+1739899D01*
X+4355572Y+1739899D01*
X+4318000Y+1702327D01*
X+4280428Y+1739899D01*
X+4101572Y+1739899D01*
X+4064000Y+1702327D01*
X+4026428Y+1739899D01*
X+3886198Y+1739899D01*
X+3886198Y+2070101D01*
X+4026428Y+2070101D01*
X+4064000Y+2107673D01*
X+4101572Y+2070101D01*
X+4280428Y+2070101D01*
X+4318000Y+2107673D01*
X+4355572Y+2070101D01*
X+4534428Y+2070101D01*
X+4572000Y+2107673D01*
X+4609572Y+2070101D01*
X+4788428Y+2070101D01*
X+4826000Y+2107673D01*
X+4863572Y+2070101D01*
X+5042428Y+2070101D01*
X+5080000Y+2107673D01*
X+5117572Y+2070101D01*
X+5296428Y+2070101D01*
X+5334000Y+2107673D01*
X+5371572Y+2070101D01*
G37*
%TD.AperFunction*%
%TA.AperFunction,Conductor*%
G36*
X+2059051Y+1917701D02*
X+2258949Y+1917701D01*
X+2286000Y+1944752D01*
X+2313051Y+1917701D01*
X+2392335Y+1917701D01*
X+2379633Y+1904999D01*
X+2307790Y+1904999D01*
X+2285999Y+1883208D01*
X+2264210Y+1904999D01*
X+2053790Y+1904999D01*
X+2019299Y+1870508D01*
X+2019299Y+1877949D01*
X+1928748Y+1968500D01*
X+1968500Y+2008252D01*
X+2059051Y+1917701D01*
G37*
%TD.AperFunction*%
%TA.AperFunction,Conductor*%
G36*
X+8636001Y+1524001D02*
X+8636001Y+1346199D01*
X+8369299Y+1346199D01*
X+8369299Y+1369949D01*
X+8342248Y+1397000D01*
X+8369299Y+1424051D01*
X+8369299Y+1477933D01*
X+8466167Y+1574801D01*
X+8636001Y+1574801D01*
X+8636001Y+1524001D01*
G37*
%TD.AperFunction*%
%TA.AperFunction,Conductor*%
G36*
X+2273301Y+524530D02*
X+2371291Y+426539D01*
X+2298701Y+353949D01*
X+2298701Y+154051D01*
X+2325752Y+127000D01*
X+2298701Y+99949D01*
X+2298701Y-99949D01*
X+2440051Y-241299D01*
X+2511725Y-241299D01*
X+2511725Y-248909D01*
X+2493933Y-266701D01*
X+2440051Y-266701D01*
X+2413000Y-293752D01*
X+2385949Y-266701D01*
X+2186051Y-266701D01*
X+2044701Y-408051D01*
X+2044701Y-607949D01*
X+2186051Y-749299D01*
X+2385949Y-749299D01*
X+2413000Y-722248D01*
X+2414701Y-723949D01*
X+2262349Y-876301D01*
X+2175530Y-876301D01*
X+2019301Y-1032530D01*
X+2019301Y-1223935D01*
X+1981199Y-1185833D01*
X+1981199Y+685801D01*
X+2273301Y+685801D01*
X+2273301Y+524530D01*
G37*
%TD.AperFunction*%
%TA.AperFunction,Conductor*%
G36*
X+7207525Y-252109D02*
X+7099299Y-360335D01*
X+7099299Y-281051D01*
X+7008748Y-190500D01*
X+7099299Y-99949D01*
X+7099299Y+99949D01*
X+7072247Y+126999D01*
X+7099299Y+154051D01*
X+7099299Y+353949D01*
X+7059572Y+393676D01*
X+7207525Y+393676D01*
X+7207525Y-252109D01*
G37*
%TD.AperFunction*%
%TA.AperFunction,Conductor*%
G36*
X+8179001Y-685801D02*
X+8115299Y-685801D01*
X+8115299Y-584199D01*
X+8179001Y-584199D01*
X+8179001Y-685801D01*
G37*
%TD.AperFunction*%
%TA.AperFunction,Conductor*%
G36*
X+3441701Y-1242949D02*
X+3583051Y-1384299D01*
X+3606801Y-1384299D01*
X+3606801Y-1385951D01*
X+3568701Y-1424051D01*
X+3568701Y-1623949D01*
X+3595752Y-1651000D01*
X+3568701Y-1678051D01*
X+3568701Y-1877949D01*
X+3595751Y-1905001D01*
X+3568701Y-1932051D01*
X+3568701Y-2082801D01*
X+3259167Y-2082801D01*
X+3035299Y-1858933D01*
X+3035299Y-1678051D01*
X+3008248Y-1651000D01*
X+3035299Y-1623949D01*
X+3035299Y-1424051D01*
X+2997199Y-1385951D01*
X+2997199Y-1306447D01*
X+3075051Y-1384299D01*
X+3274949Y-1384299D01*
X+3416299Y-1242949D01*
X+3416299Y-1142942D01*
X+3441701Y-1142942D01*
X+3441701Y-1242949D01*
G37*
%TD.AperFunction*%
%TA.AperFunction,Conductor*%
G36*
X+6362701Y-1570068D02*
X+6362701Y-1623949D01*
X+6389752Y-1651000D01*
X+6362701Y-1678051D01*
X+6362701Y-1877949D01*
X+6407879Y-1923128D01*
X+5892801Y-2438206D01*
X+5892801Y-2471368D01*
X+5772801Y-2351368D01*
X+5854699Y-2269470D01*
X+5854699Y-2048530D01*
X+5756708Y-1950540D01*
X+5829299Y-1877949D01*
X+5829299Y-1678051D01*
X+5802248Y-1651000D01*
X+5829299Y-1623949D01*
X+5829299Y-1424051D01*
X+5687949Y-1282701D01*
X+5488051Y-1282701D01*
X+5462651Y-1308101D01*
X+5422899Y-1308101D01*
X+5422899Y-1225629D01*
X+6018262Y-1225629D01*
X+6362701Y-1570068D01*
G37*
%TD.AperFunction*%
%TA.AperFunction,Conductor*%
G36*
X+4716077Y-1383138D02*
X+4752306Y-1419367D01*
X+4737101Y-1434572D01*
X+4737101Y-1613428D01*
X+4774673Y-1651000D01*
X+4737101Y-1688572D01*
X+4737101Y-1867428D01*
X+4774673Y-1905000D01*
X+4737101Y-1942572D01*
X+4737101Y-2121428D01*
X+4774672Y-2159001D01*
X+4737101Y-2196572D01*
X+4737101Y-2375428D01*
X+4774672Y-2413001D01*
X+4737101Y-2450572D01*
X+4737101Y-2468533D01*
X+4406899Y-2798735D01*
X+4406899Y-2704572D01*
X+4394198Y-2691873D01*
X+4394198Y-2642129D01*
X+4406899Y-2629428D01*
X+4406899Y-2450572D01*
X+4394198Y-2437871D01*
X+4394198Y-2388129D01*
X+4406899Y-2375428D01*
X+4406899Y-2196572D01*
X+4369326Y-2159001D01*
X+4406899Y-2121428D01*
X+4406899Y-1942572D01*
X+4369326Y-1905001D01*
X+4406899Y-1867428D01*
X+4406899Y-1849467D01*
X+4592319Y-1664047D01*
X+4592319Y-1259380D01*
X+4716077Y-1383138D01*
G37*
%TD.AperFunction*%
%TA.AperFunction,Conductor*%
G36*
X+4737101Y-3137428D02*
X+4783653Y-3183981D01*
X+4360833Y-3606801D01*
X+4173565Y-3606801D01*
X+4737101Y-3043265D01*
X+4737101Y-3137428D01*
G37*
%TD.AperFunction*%
D10*
X+6604000Y-1524000D02*
X+6604000Y-1778000D01*
X+3302000Y+0D02*
X+2714924Y+0D01*
X+1524000Y+254000D02*
X+1524000Y+0D01*
X+2540000Y+254000D02*
X+2714924Y+254000D01*
X+2540000Y+635000D02*
X+2714924Y+460076D01*
X+2714924Y+254000D01*
X+2714924Y+0D01*
X+1778000Y+1778000D02*
X+1778000Y+1270000D01*
X+4191000Y-2286000D02*
X+3810000Y-2286000D01*
X+4191000Y-2540000D02*
X+4191000Y-2286000D01*
X+4191000Y-2540000D02*
X+4191000Y-2794000D01*
X+3302000Y-2667000D02*
X+3048000Y-2413000D01*
X+2794000Y-2667000D01*
X+3810000Y-1778000D02*
X+3810000Y-2032000D01*
X+2794000Y-2032000D02*
X+2921000Y-2032000D01*
X+3175000Y-2286000D01*
X+3810000Y-2286000D02*
X+3175000Y-2286000D01*
X+3048000Y-2413000D01*
X+1778000Y+624025D02*
X+1778000Y-1270000D01*
X+1778000Y+624025D02*
X+1778000Y+1270000D01*
X+2794000Y-1524000D02*
X+2794000Y-862917D01*
X+3178136Y-478781D01*
X+3272781Y-478781D01*
X+3556000Y-762000D01*
X+3810000Y-1524000D02*
X+3810000Y-1270000D01*
X+3683000Y-1143000D01*
X+3810000Y-1524000D02*
X+4051397Y-1765397D01*
X+4051397Y-1892397D01*
X+4191000Y-2032000D01*
X+3810000Y-762000D02*
X+3937000Y-889000D01*
X+3886257Y-939743D02*
X+3987743Y-939743D01*
X+4000500Y-952500D01*
X+3302000Y-762000D02*
X+3479743Y-939743D01*
X+3886257Y-939743D01*
X+3937000Y-889000D02*
X+3987743Y-939743D01*
X+4000500Y-952500D02*
X+4389120Y-1341120D01*
X+4389120Y-1579880D01*
X+4191000Y-1778000D01*
X+1270000Y-4826000D02*
X+1270000Y-4932204D01*
X+1220626Y-4932204D01*
X+1520673Y-5232251D01*
X+3602046Y-5232251D01*
X+4064000Y-4770297D01*
X+4064000Y-4572000D01*
X+2921000Y-4826000D02*
X+2993040Y-4753960D01*
X+2993040Y-4682660D01*
X+3332255Y-4343445D01*
X+4851445Y-4343445D01*
X+5080000Y-4572000D01*
X+1524000Y-4826000D02*
X+1524000Y-4577952D01*
X+2540000Y-3561952D01*
X+2540000Y-3556000D01*
X+3429000Y+1524000D02*
X+3683000Y+1778000D01*
X+3683000Y+2286000D01*
X+3683000Y+1524000D02*
X+3048000Y+889000D01*
X+2032000Y+889000D01*
X+1215012Y+894935D02*
X+1215012Y+562988D01*
X+1524000Y+254000D01*
D11*
X+5207000Y-381000D02*
X+4826000Y+0D01*
X+5207000Y-381000D02*
X+5207000Y-97882D01*
X+5675690Y+370808D01*
X+6139341Y+824379D02*
X+6653388Y+1338426D01*
X+6764261Y+1338426D01*
X+6885214Y+1459379D01*
X+6885214Y+1590410D01*
X+6351008Y+2124616D01*
X+5622384Y+2124616D01*
X+5461000Y+2286000D01*
D10*
X-254000Y+3048000D02*
X+127000Y+2667000D01*
X+762000Y+2667000D01*
X+1651000Y+2667000D01*
X+1778000Y+2159000D02*
X+1651000Y+2286000D01*
X+1651000Y+2667000D01*
X+1651000Y+3556000D01*
X-254000Y+3048000D02*
X-381000Y+3175000D01*
X-635000Y+3175000D01*
X-635000Y+2159000D02*
X+127000Y+2159000D01*
X+2121018Y+3810000D02*
X+2104402Y+3826616D01*
X+762000Y+3048000D02*
X+762000Y+3129896D01*
X+1458720Y+3826616D01*
X+2104402Y+3826616D01*
X+2121018Y+3810000D02*
X+2128140Y+3802878D01*
X+2159000Y+3772018D01*
X+2159000Y+3556000D01*
X+2413000Y+2159000D02*
X+2635105Y+2159000D01*
X+2667000Y+2190895D01*
X+2667000Y+1905000D01*
X+2413000Y+1651000D01*
X+2159000Y+3048000D02*
X+2667000Y+3048000D01*
X+2104402Y+3826616D02*
X+2650384Y+3826616D01*
X+2667000Y+3810000D01*
X+2667000Y+3048000D01*
X+2667000Y+2190895D01*
X+4064000Y+4064000D02*
X+3899561Y+4228439D01*
X+3768157Y+4228439D01*
X+3175000Y+3635282D01*
X+3175000Y+3048000D01*
X+3810000Y+2794000D02*
X+3683000Y+2794000D01*
X+3492500Y+2984500D01*
X+3175000Y+2794000D02*
X+3302000Y+2794000D01*
X+3492500Y+2984500D01*
X+3810000Y+3302000D01*
X+4064000Y+3302000D02*
X+4572000Y+2794000D01*
X+4826000Y+2794000D01*
X+8128000Y+1778000D02*
X+8763000Y+2413000D01*
X+8890000Y+2413000D01*
X+8128000Y+1524000D02*
X+8382000Y+1778000D01*
X+8890000Y+1778000D01*
X+8128000Y+1270000D02*
X+8255000Y+1143000D01*
X+8890000Y+1143000D01*
X+8128000Y+1016000D02*
X+8636000Y+508000D01*
X+8890000Y+508000D01*
X+8128000Y+762000D02*
X+8128000Y+550581D01*
X+8805581Y-127000D01*
X+8890000Y-127000D01*
X+7112000Y+1270000D02*
X+7282077Y+1099923D01*
X+7282077Y+671145D01*
X+7207807Y+596875D01*
X+6134125Y+596875D01*
X+5969000Y+762000D01*
X+5969000Y+1016000D01*
X+6477000Y+1524000D01*
X+4383357Y+706299D02*
X+2972246Y+706299D01*
X+4826000Y+889000D02*
X+5052115Y+1115115D01*
X+5534147Y+1115115D01*
X+5534147Y+1450853D01*
X+5461000Y+1524000D01*
X+5334000Y+889000D02*
X+5677369Y+545631D01*
X+5741207Y+545631D01*
X+6286838Y+0D01*
X+6477000Y+0D01*
X+6858000Y+254000D02*
X+6713195Y+254000D01*
X+6497274Y+469921D01*
X+6073941Y+469921D01*
X+5534147Y+1009715D01*
X+5534147Y+1115115D01*
X+8433000Y-1114000D02*
X+8208000Y-889000D01*
X+7874000Y-889000D01*
X+7874000Y-635000D01*
X+6858000Y-1143000D02*
X+6858000Y-1397000D01*
X+3810000Y-3556000D02*
X+3937000Y-3556000D01*
X+4064000Y-3429000D01*
X+4953000Y-2540000D01*
D11*
X+4953000Y-2794000D02*
X+4953000Y-3048000D01*
D10*
X+6096000Y+2921000D02*
X+6223000Y+2794000D01*
X+6223000Y+2286000D01*
D11*
X+6858000Y-381000D02*
X+5207000Y-381000D01*
D10*
X+6604000Y-1524000D02*
X+6102430Y-1022430D01*
X+5382228Y-1022430D01*
X+4490013Y-483886D02*
X+4490013Y+625355D01*
X+4626659Y+762001D01*
X+4626659Y+1197659D01*
X+4953000Y+1524000D01*
X+4445000Y+1524000D02*
X+3810000Y+889000D01*
X+3798747Y+311874D02*
X+4240836Y-130215D01*
X+4240836Y-620531D01*
X+4859760Y-1239455D01*
X+4964254Y-1239455D01*
X+2286000Y-2159000D02*
X+2413000Y-2159000D01*
X+2540000Y-2032000D01*
X+2794000Y-2286000D02*
X+2540000Y-2032000D01*
X+1778000Y-1270000D01*
X+2714924Y-254000D02*
X+2714924Y-333076D01*
X+2714924Y-711092D01*
X+2286000Y-1140016D01*
X+2286000Y-1143000D01*
X+2714924Y+0D02*
X+2714924Y-254000D01*
X+2714924Y-333076D02*
X+2540000Y-508000D01*
X+6477000Y+2286000D02*
X+6623662Y+2139338D01*
X+7009366Y+2139338D01*
X+7280495Y+1868209D01*
X+7280495Y+1281102D01*
X+7410724Y+1150873D01*
X+7410724Y-336276D01*
X+6858000Y-889000D01*
X+8128000Y+3302000D02*
X+8382000Y+3048000D01*
X+8890000Y+3048000D01*
D11*
X+5461000Y+2286000D02*
X+5461000Y+3329940D01*
X+6703060Y+4572000D01*
X+8382000Y+4572000D01*
D10*
X+5969000Y+2286000D02*
X+5662839Y+2592161D01*
X+5662839Y+3054804D01*
X+6467007Y+3858972D01*
X+6932155Y+3858972D01*
X+8128000Y+2663127D01*
X+8128000Y+2286000D01*
D11*
X+4572000Y-4572000D02*
X+4842061Y-4842061D01*
X+5152052Y-4842061D01*
X+5802375Y-4191738D01*
X+5802375Y-3099929D01*
X+5207000Y-1524000D02*
X+5207000Y-381000D01*
X+4953000Y-1524000D02*
X+5207000Y-1524000D01*
X+5588000Y-1524000D01*
X+5207000Y-1524000D02*
X+5207000Y-2090893D01*
X+5802375Y-2686268D01*
X+5802375Y-3099929D01*
D10*
X+4699000Y-3556000D02*
X+5461000Y-3556000D01*
X+6096000Y-3556000D02*
X+6096000Y-2522373D01*
X+7703117Y-915256D01*
X+7703117Y+1821883D01*
X+6985000Y+2540000D01*
X+3810000Y-3810000D02*
X+4445000Y-3810000D01*
X+4699000Y-3556000D01*
X+5110427Y-3144573D01*
X+5110427Y-2443427D01*
X+4953000Y-2286000D01*
X+6604000Y+2540000D02*
X+6731000Y+2540000D01*
X+6922341Y+2731341D01*
X+7047659Y+2731341D01*
X+7933539Y+1845461D01*
X+7933539Y+6182D01*
X+8164302Y-224581D01*
X+8164302Y-377006D01*
X+8168296Y-381000D01*
X+7874000Y-381000D02*
X+8168296Y-381000D01*
X+9072160Y-381000D01*
X+9273565Y-582405D01*
X+9273565Y-1949435D01*
X+9093000Y-2130000D01*
X+4981044Y+2667000D02*
X+5273261Y+2959217D01*
X+5273261Y+3502666D01*
X+6212088Y+4441493D01*
X+6237955Y+4441493D01*
X+5207000Y+2667000D02*
X+4981044Y+2667000D01*
X+4757684Y+2443640D01*
X+3387525Y+2443640D01*
X+3279357Y+2335472D01*
X+3279357Y+2203262D01*
X+3431152Y+2051467D01*
X+3534128Y+2051467D01*
D12*
X+2032000Y+889000D03*
X+1215012Y+894935D03*
X+5675690Y+370808D03*
X+6139341Y+824379D03*
X+4383357Y+706299D03*
X+2972246Y+706299D03*
X+5382228Y-1022430D03*
X+4490013Y-483886D03*
X+3810000Y+889000D03*
X+3798747Y+311874D03*
X+4964254Y-1239455D03*
X+5461000Y-3556000D03*
X+6096000Y-3556000D03*
X+3534128Y+2051467D03*
X+6237955Y+4441493D03*
D10*
X+9525000Y-5334000D02*
X+3787663Y-5334000D01*
X+4267199Y-4854464D01*
X+4267199Y-4799852D01*
X+4318000Y-4749051D01*
X+4445748Y-4876799D01*
X+4571473Y-4876799D01*
X+4752634Y-5057960D01*
X+5241479Y-5057960D01*
X+6018274Y-4281165D01*
X+6018274Y-3759199D01*
X+6180168Y-3759199D01*
X+6299199Y-3640168D01*
X+6299199Y-2606540D01*
X+7647745Y-1257994D01*
X+7659751Y-1270001D01*
X+7632701Y-1297051D01*
X+7632701Y-1496949D01*
X+7774051Y-1638299D01*
X+7973949Y-1638299D01*
X+8115299Y-1496949D01*
X+8115299Y-1297051D01*
X+8088248Y-1270000D01*
X+8115299Y-1242949D01*
X+8115299Y-1092199D01*
X+8123833Y-1092199D01*
X+8179001Y-1147367D01*
X+8179001Y-1219210D01*
X+8327790Y-1367999D01*
X+8538210Y-1367999D01*
X+8686999Y-1219210D01*
X+8686999Y-1008790D01*
X+8567209Y-889000D01*
X+8686999Y-769210D01*
X+8686999Y-584199D01*
X+8839001Y-584199D01*
X+8839001Y-769210D01*
X+8958791Y-889000D01*
X+8839001Y-1008790D01*
X+8839001Y-1219210D01*
X+8987790Y-1367999D01*
X+9070366Y-1367999D01*
X+9070366Y-1426001D01*
X+8987790Y-1426001D01*
X+8839001Y-1574790D01*
X+8839001Y-1785210D01*
X+8958791Y-1905000D01*
X+8839001Y-2024790D01*
X+8839001Y-2235210D01*
X+8987790Y-2383999D01*
X+9198210Y-2383999D01*
X+9346999Y-2235210D01*
X+9346999Y-2163367D01*
X+9476764Y-2033602D01*
X+9476764Y-498238D01*
X+9156327Y-177801D01*
X+9143999Y-177801D01*
X+9143999Y+3555999D01*
X+8636001Y+3555999D01*
X+8636001Y+3251198D01*
X+8466167Y+3251198D01*
X+8369299Y+3348066D01*
X+8369299Y+3401949D01*
X+8227949Y+3543299D01*
X+8028051Y+3543299D01*
X+7886701Y+3401949D01*
X+7886701Y+3202051D01*
X+8028051Y+3060701D01*
X+8081933Y+3060701D01*
X+8297832Y+2844802D01*
X+8382000Y+2844802D01*
X+8636001Y+2844801D01*
X+8636001Y+2573367D01*
X+8369299Y+2306665D01*
X+8369299Y+2385949D01*
X+8331199Y+2424049D01*
X+8331199Y+2747294D01*
X+7016322Y+4062171D01*
X+6498557Y+4062171D01*
X+6792487Y+4356101D01*
X+8128001Y+4356101D01*
X+8128001Y+4212790D01*
X+8276790Y+4064001D01*
X+8487210Y+4064001D01*
X+8635999Y+4212790D01*
X+8635999Y+4423210D01*
X+8614209Y+4445000D01*
X+8635999Y+4466790D01*
X+8635999Y+4677210D01*
X+8614209Y+4699000D01*
X+8635999Y+4720790D01*
X+8635999Y+4931210D01*
X+8614209Y+4953000D01*
X+8635999Y+4974790D01*
X+8635999Y+5185210D01*
X+8614209Y+5207000D01*
X+8635999Y+5228790D01*
X+8635999Y+5439210D01*
X+8487210Y+5587999D01*
X+8276790Y+5587999D01*
X+8128001Y+5439210D01*
X+8128001Y+5228790D01*
X+8149791Y+5207000D01*
X+8128001Y+5185210D01*
X+8128001Y+4974790D01*
X+8149791Y+4953000D01*
X+8128001Y+4931210D01*
X+8128001Y+4787899D01*
X+6613633Y+4787899D01*
X+6396274Y+4570540D01*
X+6322123Y+4644692D01*
X+6127921Y+4644692D01*
X+5357238Y+3874009D01*
X+5306949Y+3924299D01*
X+5107051Y+3924299D01*
X+4965701Y+3782949D01*
X+4965701Y+3583051D01*
X+5070063Y+3478689D01*
X+5070063Y+3043385D01*
X+5011923Y+2985245D01*
X+4936470Y+3060699D01*
X+4715530Y+3060699D01*
X+4654098Y+2999267D01*
X+4487346Y+3166019D01*
X+4533899Y+3212572D01*
X+4533899Y+3391428D01*
X+4407428Y+3517899D01*
X+4228572Y+3517899D01*
X+4191000Y+3480327D01*
X+4153428Y+3517899D01*
X+3594101Y+3517899D01*
X+3594101Y+3373467D01*
X+3392441Y+3171807D01*
X+3378199Y+3186049D01*
X+3378199Y+3551115D01*
X+3697878Y+3870794D01*
X+3720572Y+3848101D01*
X+3899428Y+3848101D01*
X+3937000Y+3885673D01*
X+3974572Y+3848101D01*
X+4153428Y+3848101D01*
X+4191000Y+3885673D01*
X+4228572Y+3848101D01*
X+4407428Y+3848101D01*
X+4533899Y+3974572D01*
X+4533899Y+4153428D01*
X+4407428Y+4279899D01*
X+4228572Y+4279899D01*
X+4191000Y+4242327D01*
X+4153428Y+4279899D01*
X+4135467Y+4279899D01*
X+3983728Y+4431638D01*
X+3683990Y+4431638D01*
X+2971801Y+3719449D01*
X+2971801Y+3186049D01*
X+2933701Y+3147949D01*
X+2933701Y+2948051D01*
X+2960752Y+2921000D01*
X+2933701Y+2893949D01*
X+2933701Y+2694051D01*
X+3075051Y+2552701D01*
X+3209220Y+2552701D01*
X+3076158Y+2419639D01*
X+3076158Y+2119095D01*
X+3346985Y+1848268D01*
X+3465902Y+1848268D01*
X+3357533Y+1739899D01*
X+3213101Y+1739899D01*
X+3213101Y+1341467D01*
X+2963832Y+1092198D01*
X+1981199Y+1092198D01*
X+1981199Y+1113990D01*
X+2031999Y+1164790D01*
X+2031999Y+1375210D01*
X+1981198Y+1426011D01*
X+1981198Y+1469591D01*
X+2053790Y+1397001D01*
X+2264210Y+1397001D01*
X+2286000Y+1418791D01*
X+2307790Y+1397001D01*
X+2518210Y+1397001D01*
X+2666999Y+1545790D01*
X+2666999Y+1617633D01*
X+2870199Y+1820833D01*
X+2870199Y+3894167D01*
X+2734551Y+4029815D01*
X+1374553Y+4029815D01*
X+659437Y+3314699D01*
X+651530Y+3314699D01*
X+495301Y+3158470D01*
X+495301Y+2937530D01*
X+562632Y+2870199D01*
X+211167Y+2870199D01*
X+12699Y+3068667D01*
X+12699Y+3158470D01*
X-143530Y+3314699D01*
X-233333Y+3314699D01*
X-296832Y+3378198D01*
X-496951Y+3378198D01*
X-535051Y+3416299D01*
X-734949Y+3416299D01*
X-876299Y+3274949D01*
X-876299Y+3075051D01*
X-734949Y+2933701D01*
X-535051Y+2933701D01*
X-520699Y+2948053D01*
X-520699Y+2937530D01*
X-440669Y+2857500D01*
X-520699Y+2777470D01*
X-520699Y+2556530D01*
X-364470Y+2400301D01*
X-143530Y+2400301D01*
X-18599Y+2525232D01*
X-16683Y+2523317D01*
X+42833Y+2463801D01*
X+588030Y+2463801D01*
X+651530Y+2400301D01*
X+872470Y+2400301D01*
X+935970Y+2463801D01*
X+1447801Y+2463801D01*
X+1447801Y+2400299D01*
X+1424051Y+2400299D01*
X+1282701Y+2258949D01*
X+1282701Y+2059051D01*
X+1373252Y+1968500D01*
X+1282701Y+1877949D01*
X+1282701Y+1678051D01*
X+1424051Y+1536701D01*
X+1574801Y+1536701D01*
X+1574801Y+1523999D01*
X+1418790Y+1523999D01*
X+1270001Y+1375210D01*
X+1270001Y+1164790D01*
X+1418790Y+1016001D01*
X+1574801Y+1016001D01*
X+1574801Y+901699D01*
X+1418211Y+901699D01*
X+1418211Y+979103D01*
X+1299180Y+1098134D01*
X+1130844Y+1098134D01*
X+1011813Y+979103D01*
X+1011813Y+478821D01*
X+1282701Y+207932D01*
X+1282701Y+154051D01*
X+1309752Y+127000D01*
X+1282701Y+99949D01*
X+1282701Y-99949D01*
X+1424051Y-241299D01*
X+1574801Y-241299D01*
X+1574801Y-1354168D01*
X+2144232Y-1923599D01*
X+2019301Y-2048530D01*
X+2019301Y-2269470D01*
X+2175530Y-2425699D01*
X+2396470Y-2425699D01*
X+2459971Y-2362198D01*
X+2497168Y-2362198D01*
X+2540000Y-2319366D01*
X+2552701Y-2332067D01*
X+2552701Y-2385949D01*
X+2634271Y-2467520D01*
X+2540001Y-2561790D01*
X+2540001Y-2772210D01*
X+2561791Y-2794000D01*
X+2540001Y-2815790D01*
X+2540001Y-3026210D01*
X+2688790Y-3174999D01*
X+2899210Y-3174999D01*
X+3047999Y-3026210D01*
X+3047999Y-2815790D01*
X+3026209Y-2794000D01*
X+3047999Y-2772210D01*
X+3047999Y-2700367D01*
X+3048000Y-2700366D01*
X+3060701Y-2713067D01*
X+3060701Y-2766949D01*
X+3087752Y-2794000D01*
X+3060701Y-2821051D01*
X+3060701Y-3020949D01*
X+3202051Y-3162299D01*
X+3401949Y-3162299D01*
X+3543299Y-3020949D01*
X+3543299Y-2821051D01*
X+3516248Y-2794000D01*
X+3543299Y-2766949D01*
X+3543299Y-2567051D01*
X+3465447Y-2489199D01*
X+3671951Y-2489199D01*
X+3710051Y-2527299D01*
X+3909949Y-2527299D01*
X+3948049Y-2489199D01*
X+3975101Y-2489199D01*
X+3975101Y-2629428D01*
X+3987801Y-2642128D01*
X+3987801Y-2691872D01*
X+3975101Y-2704572D01*
X+3975101Y-2883428D01*
X+4012673Y-2921000D01*
X+3975101Y-2958572D01*
X+3975101Y-3137428D01*
X+4021653Y-3183981D01*
X+3890933Y-3314701D01*
X+3710051Y-3314701D01*
X+3568701Y-3456051D01*
X+3568701Y-3655949D01*
X+3595752Y-3683000D01*
X+3568701Y-3710051D01*
X+3568701Y-3909949D01*
X+3710051Y-4051299D01*
X+3909949Y-4051299D01*
X+3948049Y-4013199D01*
X+4529167Y-4013199D01*
X+4783167Y-3759199D01*
X+5545168Y-3759199D01*
X+5586476Y-3717891D01*
X+5586476Y-4102311D01*
X+5313919Y-4374868D01*
X+5206252Y-4267201D01*
X+5062567Y-4267201D01*
X+4935612Y-4140246D01*
X+3248088Y-4140246D01*
X+2816333Y-4572001D01*
X+2413001Y-4572001D01*
X+2413001Y-5029052D01*
X+1777999Y-5029052D01*
X+1777999Y-4611319D01*
X+2389035Y-4000283D01*
X+2440051Y-4051299D01*
X+2639949Y-4051299D01*
X+2781299Y-3909949D01*
X+2781299Y-3710051D01*
X+2754248Y-3683000D01*
X+2781299Y-3655949D01*
X+2781299Y-3456051D01*
X+2639949Y-3314701D01*
X+2440051Y-3314701D01*
X+2298701Y-3456051D01*
X+2298701Y-3515885D01*
X+1320801Y-4493785D01*
X+1320801Y-4572001D01*
X+762001Y-4572001D01*
X+762001Y-5079999D01*
X+1081055Y-5079999D01*
X+1335056Y-5334000D01*
X-980440Y-5334000D01*
X-980440Y+5806440D01*
X+9525000Y+5806440D01*
X+9525000Y-5334000D01*
X+634999Y+1905001D02*
X-126999Y+1905001D01*
X-126999Y+1955801D01*
X-496951Y+1955801D01*
X-535051Y+1917701D01*
X-734949Y+1917701D01*
X-876299Y+2059051D01*
X-876299Y+2258949D01*
X-734949Y+2400299D01*
X-535051Y+2400299D01*
X-496951Y+2362199D01*
X-126999Y+2362199D01*
X-126999Y+2412999D01*
X+634999Y+2412999D01*
X+634999Y+1905001D01*
X+8686999Y-1574790D02*
X+8686999Y-1785210D01*
X+8567209Y-1905000D01*
X+8686999Y-2024790D01*
X+8686999Y-2235210D01*
X+8538210Y-2383999D01*
X+8327790Y-2383999D01*
X+8179001Y-2235210D01*
X+8179001Y-2024790D01*
X+8298791Y-1905000D01*
X+8179001Y-1785210D01*
X+8179001Y-1574790D01*
X+8327790Y-1426001D01*
X+8538210Y-1426001D01*
X+8686999Y-1574790D01*
X+2463801Y+3251198D02*
X+2297049Y+3251198D01*
X+2258949Y+3289299D01*
X+2059051Y+3289299D01*
X+1917701Y+3147949D01*
X+1917701Y+2948051D01*
X+1944752Y+2921000D01*
X+1917701Y+2893949D01*
X+1917701Y+2694051D01*
X+2059051Y+2552701D01*
X+2258949Y+2552701D01*
X+2400299Y+2694051D01*
X+2400299Y+2844801D01*
X+2463801Y+2844801D01*
X+2463801Y+2400299D01*
X+2313051Y+2400299D01*
X+2286000Y+2373248D01*
X+2258949Y+2400299D01*
X+2059051Y+2400299D01*
X+1968500Y+2309748D01*
X+1877949Y+2400299D01*
X+1854199Y+2400299D01*
X+1854199Y+3302001D01*
X+2412999Y+3302001D01*
X+2412999Y+3623417D01*
X+2463801Y+3623417D01*
X+2463801Y+3251198D01*
X+5371572Y+2070101D02*
X+5371573Y+2070101D01*
X+5532957Y+1908717D01*
X+6261581Y+1908717D01*
X+6430398Y+1739899D01*
X+6387572Y+1739899D01*
X+6350000Y+1702327D01*
X+6312428Y+1739899D01*
X+6133572Y+1739899D01*
X+6096000Y+1702327D01*
X+6058428Y+1739899D01*
X+5879572Y+1739899D01*
X+5842000Y+1702327D01*
X+5804428Y+1739899D01*
X+5625572Y+1739899D01*
X+5588000Y+1702327D01*
X+5550428Y+1739899D01*
X+5371572Y+1739899D01*
X+5333999Y+1702326D01*
X+5296428Y+1739899D01*
X+5117572Y+1739899D01*
X+5080000Y+1702327D01*
X+5042428Y+1739899D01*
X+4863572Y+1739899D01*
X+4825999Y+1702326D01*
X+4788428Y+1739899D01*
X+4609572Y+1739899D01*
X+4572000Y+1702327D01*
X+4534428Y+1739899D01*
X+4355572Y+1739899D01*
X+4318000Y+1702327D01*
X+4280428Y+1739899D01*
X+4101572Y+1739899D01*
X+4064000Y+1702327D01*
X+4026428Y+1739899D01*
X+3886198Y+1739899D01*
X+3886198Y+2070101D01*
X+4026428Y+2070101D01*
X+4064000Y+2107673D01*
X+4101572Y+2070101D01*
X+4280428Y+2070101D01*
X+4318000Y+2107673D01*
X+4355572Y+2070101D01*
X+4534428Y+2070101D01*
X+4572000Y+2107673D01*
X+4609572Y+2070101D01*
X+4788428Y+2070101D01*
X+4826000Y+2107673D01*
X+4863572Y+2070101D01*
X+5042428Y+2070101D01*
X+5080000Y+2107673D01*
X+5117572Y+2070101D01*
X+5296428Y+2070101D01*
X+5334000Y+2107673D01*
X+5371572Y+2070101D01*
X+2059051Y+1917701D02*
X+2258949Y+1917701D01*
X+2286000Y+1944752D01*
X+2313051Y+1917701D01*
X+2392335Y+1917701D01*
X+2379633Y+1904999D01*
X+2307790Y+1904999D01*
X+2285999Y+1883208D01*
X+2264210Y+1904999D01*
X+2053790Y+1904999D01*
X+2019299Y+1870508D01*
X+2019299Y+1877949D01*
X+1928748Y+1968500D01*
X+1968500Y+2008252D01*
X+2059051Y+1917701D01*
X+8636001Y+1524001D02*
X+8636001Y+1346199D01*
X+8369299Y+1346199D01*
X+8369299Y+1369949D01*
X+8342248Y+1397000D01*
X+8369299Y+1424051D01*
X+8369299Y+1477933D01*
X+8466167Y+1574801D01*
X+8636001Y+1574801D01*
X+8636001Y+1524001D01*
X+2273301Y+524530D02*
X+2371291Y+426539D01*
X+2298701Y+353949D01*
X+2298701Y+154051D01*
X+2325752Y+127000D01*
X+2298701Y+99949D01*
X+2298701Y-99949D01*
X+2440051Y-241299D01*
X+2511725Y-241299D01*
X+2511725Y-248909D01*
X+2493933Y-266701D01*
X+2440051Y-266701D01*
X+2413000Y-293752D01*
X+2385949Y-266701D01*
X+2186051Y-266701D01*
X+2044701Y-408051D01*
X+2044701Y-607949D01*
X+2186051Y-749299D01*
X+2385949Y-749299D01*
X+2413000Y-722248D01*
X+2414701Y-723949D01*
X+2262349Y-876301D01*
X+2175530Y-876301D01*
X+2019301Y-1032530D01*
X+2019301Y-1223935D01*
X+1981199Y-1185833D01*
X+1981199Y+685801D01*
X+2273301Y+685801D01*
X+2273301Y+524530D01*
X+7207525Y-252109D02*
X+7099299Y-360335D01*
X+7099299Y-281051D01*
X+7008748Y-190500D01*
X+7099299Y-99949D01*
X+7099299Y+99949D01*
X+7072247Y+126999D01*
X+7099299Y+154051D01*
X+7099299Y+353949D01*
X+7059572Y+393676D01*
X+7207525Y+393676D01*
X+7207525Y-252109D01*
X+8179001Y-685801D02*
X+8115299Y-685801D01*
X+8115299Y-584199D01*
X+8179001Y-584199D01*
X+8179001Y-685801D01*
X+3441701Y-1242949D02*
X+3583051Y-1384299D01*
X+3606801Y-1384299D01*
X+3606801Y-1385951D01*
X+3568701Y-1424051D01*
X+3568701Y-1623949D01*
X+3595752Y-1651000D01*
X+3568701Y-1678051D01*
X+3568701Y-1877949D01*
X+3595751Y-1905001D01*
X+3568701Y-1932051D01*
X+3568701Y-2082801D01*
X+3259167Y-2082801D01*
X+3035299Y-1858933D01*
X+3035299Y-1678051D01*
X+3008248Y-1651000D01*
X+3035299Y-1623949D01*
X+3035299Y-1424051D01*
X+2997199Y-1385951D01*
X+2997199Y-1306447D01*
X+3075051Y-1384299D01*
X+3274949Y-1384299D01*
X+3416299Y-1242949D01*
X+3416299Y-1142942D01*
X+3441701Y-1142942D01*
X+3441701Y-1242949D01*
X+6362701Y-1570068D02*
X+6362701Y-1623949D01*
X+6389752Y-1651000D01*
X+6362701Y-1678051D01*
X+6362701Y-1877949D01*
X+6407879Y-1923128D01*
X+5892801Y-2438206D01*
X+5892801Y-2471368D01*
X+5772801Y-2351368D01*
X+5854699Y-2269470D01*
X+5854699Y-2048530D01*
X+5756708Y-1950540D01*
X+5829299Y-1877949D01*
X+5829299Y-1678051D01*
X+5802248Y-1651000D01*
X+5829299Y-1623949D01*
X+5829299Y-1424051D01*
X+5687949Y-1282701D01*
X+5488051Y-1282701D01*
X+5462651Y-1308101D01*
X+5422899Y-1308101D01*
X+5422899Y-1225629D01*
X+6018262Y-1225629D01*
X+6362701Y-1570068D01*
X+4716077Y-1383138D02*
X+4752306Y-1419367D01*
X+4737101Y-1434572D01*
X+4737101Y-1613428D01*
X+4774673Y-1651000D01*
X+4737101Y-1688572D01*
X+4737101Y-1867428D01*
X+4774673Y-1905000D01*
X+4737101Y-1942572D01*
X+4737101Y-2121428D01*
X+4774672Y-2159001D01*
X+4737101Y-2196572D01*
X+4737101Y-2375428D01*
X+4774672Y-2413001D01*
X+4737101Y-2450572D01*
X+4737101Y-2468533D01*
X+4406899Y-2798735D01*
X+4406899Y-2704572D01*
X+4394198Y-2691873D01*
X+4394198Y-2642129D01*
X+4406899Y-2629428D01*
X+4406899Y-2450572D01*
X+4394198Y-2437871D01*
X+4394198Y-2388129D01*
X+4406899Y-2375428D01*
X+4406899Y-2196572D01*
X+4369326Y-2159001D01*
X+4406899Y-2121428D01*
X+4406899Y-1942572D01*
X+4369326Y-1905001D01*
X+4406899Y-1867428D01*
X+4406899Y-1849467D01*
X+4592319Y-1664047D01*
X+4592319Y-1259380D01*
X+4716077Y-1383138D01*
X+4737101Y-3137428D02*
X+4783653Y-3183981D01*
X+4360833Y-3606801D01*
X+4173565Y-3606801D01*
X+4737101Y-3043265D01*
X+4737101Y-3137428D01*
X+4025901Y-3048000D02*
X+4191000Y-3048000D01*
X+4787901Y-3048000D02*
X+4953000Y-3048000D01*
X+4787901Y-2032000D02*
X+4953000Y-2032000D01*
X+5778499Y-1778000D02*
X+5588000Y-1778000D01*
X+2349501Y+0D02*
X+2540000Y+0D01*
X+1524000Y+850899D02*
X+1524000Y+635000D01*
X+2095501Y-508000D02*
X+2286000Y-508000D01*
X+2286000Y-317501D02*
X+2286000Y-508000D01*
X+2286000Y-698499D02*
X+2286000Y-508000D01*
X+1320801Y+1270000D02*
X+1524000Y+1270000D01*
X+1524000Y+1473199D02*
X+1524000Y+1270000D01*
X+1524000Y+1066801D02*
X+1524000Y+1270000D01*
X+1333501Y+1778000D02*
X+1524000Y+1778000D01*
X+1524000Y+1587501D02*
X+1524000Y+1778000D01*
X+1333501Y+2159000D02*
X+1524000Y+2159000D01*
X+3302000Y-3111499D02*
X+3302000Y-2921000D01*
X+3492499Y-2921000D02*
X+3302000Y-2921000D01*
X+3111501Y-2921000D02*
X+3302000Y-2921000D01*
X+2794000Y-3124199D02*
X+2794000Y-2921000D01*
X+2590801Y-2921000D02*
X+2794000Y-2921000D01*
X+2997199Y-2921000D02*
X+2794000Y-2921000D01*
X+2984499Y-1778000D02*
X+2794000Y-1778000D01*
X+1016000Y-4622801D02*
X+1016000Y-4826000D01*
X+812801Y-4826000D02*
X+1016000Y-4826000D01*
X+1016000Y-5029199D02*
X+1016000Y-4826000D01*
X+2667000Y-4622801D02*
X+2667000Y-4826000D01*
X+2463801Y-4826000D02*
X+2667000Y-4826000D01*
X+5207000Y+1689099D02*
X+5207000Y+1524000D01*
X+1905000Y+3352801D02*
X+1905000Y+3556000D01*
X+381000Y+1955801D02*
X+381000Y+2159000D01*
X+584199Y+2159000D02*
X+381000Y+2159000D01*
X+381000Y+2362199D02*
X+381000Y+2159000D01*
X+2159000Y+1968501D02*
X+2159000Y+2159000D01*
X+2159000Y+2349499D02*
X+2159000Y+2159000D01*
X+2159000Y+1854199D02*
X+2159000Y+1651000D01*
X+2159000Y+1447801D02*
X+2159000Y+1651000D01*
X+4483099Y+4064000D02*
X+4318000Y+4064000D01*
X+4318000Y+3898901D02*
X+4318000Y+4064000D01*
X+4318000Y+4229099D02*
X+4318000Y+4064000D01*
X+9093199Y+3302000D02*
X+8890000Y+3302000D01*
X+8890000Y+3505199D02*
X+8890000Y+3302000D01*
X+8686801Y+3302000D02*
X+8890000Y+3302000D01*
X+9093199Y+2667000D02*
X+8890000Y+2667000D01*
X+8686801Y+2667000D02*
X+8890000Y+2667000D01*
X+9093199Y+2032000D02*
X+8890000Y+2032000D01*
X+9093199Y+1397000D02*
X+8890000Y+1397000D01*
X+8686801Y+1397000D02*
X+8890000Y+1397000D01*
X+9093199Y+762000D02*
X+8890000Y+762000D01*
X+9093199Y+127000D02*
X+8890000Y+127000D01*
X+8178801Y+4826000D02*
X+8382000Y+4826000D01*
X+8585199Y+4826000D02*
X+8382000Y+4826000D01*
X+8889801Y-664000D02*
X+9093000Y-664000D01*
X+8636199Y-664000D02*
X+8433000Y-664000D01*
X+8229801Y-664000D02*
X+8433000Y-664000D01*
X+7048499Y+0D02*
X+6858000Y+0D01*
X+5803899Y-2159000D02*
X+5588000Y-2159000D01*
X+8889801Y-1680000D02*
X+9093000Y-1680000D01*
X+8433000Y-1476801D02*
X+8433000Y-1680000D01*
X+8636199Y-1680000D02*
X+8433000Y-1680000D01*
X+8229801Y-1680000D02*
X+8433000Y-1680000D01*
X+8064499Y-1143000D02*
X+7874000Y-1143000D01*
X+5207000Y+3873499D02*
X+5207000Y+3683000D01*
X+5016501Y+3683000D02*
X+5207000Y+3683000D01*
D14*
X+4191000Y-1524000D03*
D15*
X+4191000Y-1778000D03*
X+4191000Y-2032000D03*
X+4191000Y-2286000D03*
X+4191000Y-2540000D03*
X+4191000Y-2794000D03*
X+4191000Y-3048000D03*
X+4953000Y-3048000D03*
X+4953000Y-2794000D03*
X+4953000Y-2540000D03*
X+4953000Y-2286000D03*
X+4953000Y-2032000D03*
X+4953000Y-1778000D03*
X+4953000Y-1524000D03*
D16*
X+3302000Y+0D03*
X+4826000Y+0D03*
D17*
X+6604000Y-1778000D03*
X+5588000Y-1778000D03*
X+5588000Y-1524000D03*
X+6604000Y-1524000D03*
X+1524000Y+0D03*
X+2540000Y+0D03*
X+2540000Y+254000D03*
X+1524000Y+254000D03*
D18*
X+1524000Y+635000D03*
X+2540000Y+635000D03*
D17*
X+2540000Y-508000D03*
X+2286000Y-508000D03*
D19*
X+1778000Y+1270000D03*
X+1524000Y+1270000D03*
D17*
X+1778000Y+1778000D03*
X+1524000Y+1778000D03*
X+1524000Y+2159000D03*
X+1778000Y+2159000D03*
X+2794000Y-2286000D03*
X+3810000Y-2286000D03*
X+3302000Y-2921000D03*
X+3302000Y-2667000D03*
D19*
X+2794000Y-2667000D03*
X+2794000Y-2921000D03*
D17*
X+3810000Y-1778000D03*
X+2794000Y-1778000D03*
X+2794000Y-2032000D03*
X+3810000Y-2032000D03*
X+3683000Y-1143000D03*
X+3175000Y-1143000D03*
X+2794000Y-1524000D03*
X+3810000Y-1524000D03*
D19*
X+3302000Y-762000D03*
X+3556000Y-762000D03*
X+3810000Y-762000D03*
D70*
X+1524000Y-4826000D03*
X+1270000Y-4826000D03*
X+1016000Y-4826000D03*
X+3175000Y-4826000D03*
X+2921000Y-4826000D03*
X+2667000Y-4826000D03*
D71*
X+5080000Y-4572000D03*
X+4572000Y-4572000D03*
X+4064000Y-4572000D03*
D17*
X+3810000Y-3556000D03*
X+2540000Y-3556000D03*
X+3810000Y-3810000D03*
X+2540000Y-3810000D03*
D14*
X+3429000Y+1524000D03*
D15*
X+3683000Y+1524000D03*
X+3937000Y+1524000D03*
X+4191000Y+1524000D03*
X+4445000Y+1524000D03*
X+4699000Y+1524000D03*
X+4953000Y+1524000D03*
X+5207000Y+1524000D03*
X+5461000Y+1524000D03*
X+5715000Y+1524000D03*
X+5969000Y+1524000D03*
X+6223000Y+1524000D03*
X+6477000Y+1524000D03*
X+6731000Y+1524000D03*
X+6731000Y+2286000D03*
X+6477000Y+2286000D03*
X+6223000Y+2286000D03*
X+5969000Y+2286000D03*
X+5715000Y+2286000D03*
X+5461000Y+2286000D03*
X+5207000Y+2286000D03*
X+4953000Y+2286000D03*
X+4699000Y+2286000D03*
X+4445000Y+2286000D03*
X+4191000Y+2286000D03*
X+3937000Y+2286000D03*
X+3683000Y+2286000D03*
X+3431000Y+2286000D03*
D70*
X+1651000Y+3556000D03*
X+1905000Y+3556000D03*
X+2159000Y+3556000D03*
D18*
X-254000Y+2667000D03*
X+762000Y+2667000D03*
D70*
X+127000Y+2159000D03*
X+381000Y+2159000D03*
D18*
X+762000Y+3048000D03*
X-254000Y+3048000D03*
D17*
X-635000Y+2159000D03*
X-635000Y+3175000D03*
X+2159000Y+2159000D03*
X+2413000Y+2159000D03*
D19*
X+2413000Y+1651000D03*
X+2159000Y+1651000D03*
D14*
X+3810000Y+3302000D03*
D15*
X+4064000Y+3302000D03*
X+4318000Y+3302000D03*
X+4318000Y+4064000D03*
X+4064000Y+4064000D03*
X+3810000Y+4064000D03*
D17*
X+3175000Y+2794000D03*
X+2159000Y+2794000D03*
X+2159000Y+3048000D03*
X+3175000Y+3048000D03*
D18*
X+4826000Y+2794000D03*
X+3810000Y+2794000D03*
D70*
X+8890000Y+3048000D03*
X+8890000Y+3302000D03*
X+8890000Y+2413000D03*
X+8890000Y+2667000D03*
X+8890000Y+1778000D03*
X+8890000Y+2032000D03*
X+8890000Y+1143000D03*
X+8890000Y+1397000D03*
X+8890000Y+508000D03*
X+8890000Y+762000D03*
X+8890000Y-127000D03*
X+8890000Y+127000D03*
D19*
X+8382000Y+5334000D03*
X+8382000Y+5080000D03*
X+8382000Y+4826000D03*
X+8382000Y+4572000D03*
X+8382000Y+4318000D03*
D17*
X+7112000Y+1778000D03*
X+8128000Y+1778000D03*
X+7112000Y+1524000D03*
X+8128000Y+1524000D03*
X+7112000Y+1270000D03*
X+8128000Y+1270000D03*
X+7112000Y+762000D03*
X+8128000Y+762000D03*
X+7112000Y+1016000D03*
X+8128000Y+1016000D03*
D19*
X+9093000Y-664000D03*
X+8433000Y-664000D03*
X+9093000Y-1114000D03*
X+8433000Y-1114000D03*
D17*
X+7874000Y-635000D03*
X+6858000Y-635000D03*
X+6858000Y-889000D03*
X+7874000Y-889000D03*
D19*
X+4826000Y+889000D03*
X+5334000Y+889000D03*
D17*
X+6477000Y+0D03*
X+6477000Y+254000D03*
X+6858000Y+254000D03*
X+6858000Y+0D03*
D70*
X+6096000Y+2921000D03*
X+5842000Y+2921000D03*
D18*
X+5588000Y-2159000D03*
X+5588000Y-3175000D03*
X+2286000Y-1143000D03*
X+2286000Y-2159000D03*
D19*
X+9093000Y-1680000D03*
X+8433000Y-1680000D03*
X+9093000Y-2130000D03*
X+8433000Y-2130000D03*
D17*
X+6858000Y-1143000D03*
X+7874000Y-1143000D03*
X+6858000Y-381000D03*
X+7874000Y-381000D03*
X+7874000Y-1397000D03*
X+6858000Y-1397000D03*
X+5207000Y+2667000D03*
X+5207000Y+3683000D03*
X+6985000Y+2540000D03*
X+6985000Y+3556000D03*
X+6604000Y+2540000D03*
X+6604000Y+3556000D03*
X+8128000Y+2286000D03*
X+8128000Y+3302000D03*
D20*
X-1143000Y-5496560D02*
X+9687560Y-5496560D01*
X+9687560Y+5969000D01*
X-1143000Y+5969000D01*
X-1143000Y-5496560D01*
M02*
